<?xml version="1.0" standalone="no"?>
<!DOCTYPE svg PUBLIC "-//W3C//DTD SVG 1.1//EN" "http://www.w3.org/Graphics/SVG/1.1/DTD/svg11.dtd" >
<svg xmlns="http://www.w3.org/2000/svg" xmlns:xlink="http://www.w3.org/1999/xlink" version="1.1">
<metadata></metadata>
<defs>
<font id="birthstone_bounceregular" horiz-adv-x="1777" >
<font-face units-per-em="2048" ascent="1638" descent="-410" />
<missing-glyph horiz-adv-x="348" />
<glyph unicode="&#xfb01;" horiz-adv-x="1372" d="M2 414q0 35 14 39h2q8 0 7 -17q-2 -6 -2 -20q0 -16 8 -30.5t28 -18.5q6 -2 14.5 -2h16.5q29 0 70 6t88 22q80 27 191.5 94.5t252.5 202.5l168 293q90 154 153.5 242t129.5 88q18 0 37 -6q12 -8 12 -31q0 -27 -15.5 -63.5t-37.5 -75.5q-41 -63 -104.5 -136t-147.5 -141 q-94 -164 -178 -330l-158 -309q-25 -45 -66 -139q-43 -96 -87 -212t-83 -237t-57 -221q-12 -63 -12 -117q0 -51 16.5 -82.5t52.5 -31.5q49 0 96.5 42t89.5 104.5t75.5 124t52.5 97.5q47 92 66.5 192.5t15.5 172.5q-35 -20 -71 -28.5t-62 -8.5q-27 0 -39 6q-18 10 -19 27 q0 27 36 57.5t81 38.5q10 2 18.5 3t16.5 1q23 0 33 -6q20 -14 24 -27q20 12 57 44t79 72t79 76t57 56q33 33 43 33t-1 -24.5t-42 -61.5q-35 -41 -84 -91t-97 -92t-81 -65q4 -18 6.5 -51t2.5 -74q0 -51 -6.5 -108.5t-24.5 -104.5q-25 -68 -63 -144.5t-90 -143t-119.5 -109.5 t-153.5 -43q-90 0 -117 61q-25 51 -24 125q0 96 34 224q29 106 64 208q35 100 68.5 179.5t48.5 111.5q131 274 286 557q-55 -45 -120.5 -100t-135 -106.5t-134 -84t-118.5 -32.5q-80 0 -110.5 39t-30.5 86zM969 133q0 29 6 66q25 123 81.5 226t105.5 181q14 25 51 40.5 t65 15.5q31 0 31 -19q0 -12 -8 -22q-41 -63 -94.5 -149.5t-92 -175.5t-38.5 -165q0 -31 11 -49.5t42 -18.5t74 32t83 72t60 62l41 43q18 20 35 43q6 6 10 7q12 0 12 -19q0 -10 -8 -18q-45 -59 -92 -109q-51 -61 -118.5 -118.5t-149.5 -57.5q-106 0 -107 133zM1385 1049 q0 31 21.5 51t50.5 20q51 0 51 -51q0 -29 -21.5 -51.5t-50.5 -22.5q-25 0 -38 15.5t-13 38.5z" />
<glyph unicode="&#xfb02;" horiz-adv-x="1617" d="M2 414q0 35 14 39h2q8 0 7 -17q-2 -6 -2 -20q0 -16 8 -30.5t28 -18.5q6 -2 14.5 -2h16.5q29 0 70 6t88 22q80 27 191.5 94.5t252.5 202.5l168 293q90 154 153.5 242t129.5 88q18 0 37 -6q12 -8 12 -31q0 -27 -15.5 -63.5t-37.5 -75.5q-41 -63 -104.5 -136t-147.5 -141 q-94 -164 -178 -330l-158 -309q-25 -45 -66 -139q-43 -96 -87 -212t-83 -237t-57 -221q-12 -63 -12 -117q0 -51 16.5 -82.5t52.5 -31.5q49 0 96.5 42t89.5 104.5t75.5 124t52.5 97.5q47 92 66.5 192.5t15.5 172.5q-35 -20 -71 -28.5t-62 -8.5q-27 0 -39 6q-18 10 -19 27 q0 27 36 57.5t81 38.5q10 2 18.5 3t16.5 1q23 0 33 -6q20 -14 24 -27q20 12 57 44t79 72t79 76t57 56q33 33 43 33t-1 -24.5t-42 -61.5q-35 -41 -84 -91t-97 -92t-81 -65q4 -18 6.5 -51t2.5 -74q0 -51 -6.5 -108.5t-24.5 -104.5q-25 -68 -63 -144.5t-90 -143t-119.5 -109.5 t-153.5 -43q-90 0 -117 61q-25 51 -24 125q0 96 34 224q29 106 64 208q35 100 68.5 179.5t48.5 111.5q131 274 286 557q-55 -45 -120.5 -100t-135 -106.5t-134 -84t-118.5 -32.5q-80 0 -110.5 39t-30.5 86zM755 266q0 12 39 10q8 -2 15.5 -2h15.5q49 0 110.5 15.5 t131.5 42.5q80 197 174 366.5t192 311.5q98 139 191.5 245.5t169.5 178.5q53 47 108 75.5t103 28.5q61 0 86.5 -31.5t25.5 -79.5q0 -57 -25.5 -126.5t-60.5 -129.5q-68 -115 -172 -242.5t-223 -244.5t-240 -209t-219 -135q-18 -41 -44 -104.5t-38 -108.5q-16 -59 -27.5 -132 t-13.5 -169q0 -94 51 -94q25 0 62 24q57 39 101 79t93 93q25 27 69 79t94 111.5t93 108.5q41 49 82 95q6 6 11 6q12 0 12 -17q0 -10 -8 -20q-23 -29 -48.5 -59.5t-48.5 -57.5q-12 -12 -44.5 -52t-77.5 -94.5t-92.5 -110.5t-87.5 -103t-64 -72q-45 -43 -88 -67.5t-111 -24.5 q-51 0 -80 45q-31 45 -26 160q0 33 9 91t24.5 123.5t32 124t32.5 93.5q-125 -43 -207 -43q-29 0 -51 6q-31 6 -31 16zM1200 399q72 37 159 109q86 72 177.5 164t179.5 196q88 102 159 199q72 96 122.5 178t66.5 131q8 25 8 49q0 63 -51 64q-33 0 -68 -29 q-68 -53 -168 -165.5t-206 -256.5q-106 -145 -207.5 -311t-171.5 -328z" />
<glyph horiz-adv-x="0" />
<glyph horiz-adv-x="682" />
<glyph unicode=" "  horiz-adv-x="348" />
<glyph unicode="&#x09;" horiz-adv-x="348" />
<glyph unicode="&#xa0;" horiz-adv-x="348" />
<glyph unicode="!" horiz-adv-x="456" d="M154 43q0 12 7 23.5t15 17.5l31 22q14 10 33 19l28 14q10 4 27 15q8 4 12 -1.5t0 -9.5q-18 -31 -25.5 -67.5t-19.5 -63t-47 -26.5q-23 0 -35 11t-20 28q-6 10 -6 18zM322 301q0 10 2 26.5t6 37.5q8 43 36.5 121.5t67.5 168.5t81 172t77 129q66 94 121 141.5t103 64 t89 16.5q-49 -51 -113.5 -134t-131 -183.5t-127 -204t-101.5 -195.5q-12 -27 -35.5 -78t-42.5 -78q-18 -26 -24 -26q-8 0 -8 22z" />
<glyph unicode="&#x22;" horiz-adv-x="366" d="M53 919q-6 1 6 15q14 18 42 61t58.5 93.5t54.5 94.5t32 64q4 14 4 35q0 18 -4 25q86 6 86 -68q0 -8 -2 -19.5t-6 -23.5q-12 -53 -55.5 -109.5t-100 -101.5t-105.5 -65q-4 -2 -10 -1zM260 918q-8 0 2 16q12 16 39 55t56.5 88t55 95.5t36.5 74.5q6 12 6 31q0 10 -2 18.5 t-4 10.5q86 6 86 -68q0 -57 -43 -121.5t-104.5 -119t-121.5 -78.5q-2 0 -3 -1t-3 -1z" />
<glyph unicode="#" horiz-adv-x="1105" d="M156 410q0 23 24.5 29.5t34.5 6.5h182l111 265q-29 0 -55 -2q-27 -2 -56 -2q-20 0 -56 6t-36 28q0 20 24.5 29.5t35.5 9.5q43 0 88 -2q43 -2 84 -2q4 10 20 52t36.5 90.5t38 84t23.5 35.5q8 0 9 -16q0 -14 -4.5 -30.5t-4.5 -18.5q-10 -53 -28.5 -100.5t-40.5 -98.5 l184 -2h25q0 2 12 28.5t29.5 66.5t37 79t34 65.5t18.5 26.5q8 0 8 -14t-4 -29.5t-4 -19.5q-10 -53 -31 -102.5t-43 -98.5q47 0 94 4t94 4q4 0 18.5 -2t14.5 -12q-2 -14 -32.5 -26.5t-63.5 -20.5t-45 -8h-105l-116 -264h161q12 0 31 -2.5t19 -12.5q-2 -14 -32 -26.5 t-62.5 -19.5t-45.5 -7l-100 -2q-2 -8 -18.5 -49t-40 -91.5t-45 -87t-35.5 -36.5q-10 0 -11 16q0 16 5 21q4 16 21 62t38.5 94t34.5 71h-217q-2 -8 -19.5 -49t-40 -91.5t-45.5 -87t-37 -36.5q-6 0 -6 10v10t2 10q4 25 23.5 70t40 91t33.5 71q-14 0 -39 -1t-54 -1 q-45 0 -80.5 7t-35.5 28zM444 449h211l113 262h-211z" />
<glyph unicode="$" horiz-adv-x="833" d="M84 365q14 47 59 47q29 0 47.5 -19.5t47.5 -52.5q43 -51 80.5 -77.5t93.5 -26.5q29 0 60.5 20t31.5 61q0 45 -39 86t-91 83t-91 91.5t-39 114.5q0 72 35.5 141.5t93 125t126 88t134.5 32.5q18 25 50 67t59.5 80t33.5 48q23 0 23 -39q0 -33 -33 -92q-4 -8 -22.5 -42 t-30.5 -50q20 -20 33.5 -57.5t13.5 -73.5q0 -35 -23.5 -79t-46 -87t-22.5 -76q-23 0 -45.5 16.5t-22.5 42.5q0 43 22.5 80l45 74t22.5 78l-4 22q-4 16 -35 17q-45 0 -96 -30t-98 -76t-77 -99t-30 -101q0 -53 44 -99t93 -79q47 -33 91.5 -75.5t44.5 -92.5q0 -53 -37 -90 t-91.5 -56.5t-107.5 -19.5q-59 0 -111 23q-29 -35 -60.5 -81t-45.5 -69q-6 -8 -12 -8q-8 0 -16.5 12.5t-8.5 28.5t10 33q27 59 72 121q-53 37 -84 76t-47 39z" />
<glyph unicode="%" horiz-adv-x="858" d="M123 793q0 57 35 127q37 78 91 126t109 48q27 0 48 -9h2l4 -2q18 -12 34 -32q31 -16 72 -27.5t82 -11.5q59 0 102 24v2h3q10 0 27.5 -23.5t17.5 -39.5v-4l-2 -4q-20 -23 -66 -78q-45 -57 -101.5 -129t-117.5 -154l-119 -155q-55 -76 -98 -135.5t-60 -90.5 q-12 -20 -24 -20q-10 0 -10 16q0 31 44 116t117 200q63 98 146.5 210.5t179.5 221.5q-8 -2 -15.5 -3t-15.5 -1q-35 0 -74.5 15t-74.5 38q2 -8 2 -27q0 -33 -6 -63q-16 -59 -52 -114.5t-82.5 -89.5t-97.5 -34t-75.5 29t-24.5 74zM197 784q-1 -55 34 -55q39 0 77 51t59 105 q8 29 15 57.5t7 50.5q0 49 -29 49q-31 0 -60.5 -27.5t-52 -68.5t-36.5 -85t-14 -77zM440 342q0 57 35 131q35 76 89 123t114 47q53 0 77.5 -30.5t24.5 -77.5q0 -12 -2 -26.5t-6 -29.5q-18 -61 -54 -116.5t-83 -90t-98 -34.5q-51 4 -74 31.5t-23 72.5zM512 336q0 -55 37 -55 q39 0 77 51t58 104q8 29 15.5 57.5t7.5 53.5q0 49 -29 49q-31 0 -60.5 -27.5t-53 -68.5t-38 -85t-14.5 -79z" />
<glyph unicode="&#x26;" horiz-adv-x="882" d="M98 221q0 141 84 234.5t199 142.5q-41 23 -59.5 55.5t-18.5 104.5q0 63 37 124.5t98.5 110.5t136 79t152.5 30q61 0 96 -45t35 -111q0 -59 -31.5 -120.5t-54.5 -123.5q-23 0 -37 21.5t-14 46.5q0 45 19.5 82t40 70.5t20.5 76.5q0 6 -8 29q-10 20 -48 21 q-57 0 -132.5 -48.5t-127.5 -107.5q-41 -49 -66.5 -100.5t-25.5 -92.5q0 -27 16.5 -45t49.5 -18q39 0 82 -3t72.5 -18.5t29.5 -52.5q-109 2 -212 -39t-172 -123t-69 -200q0 -53 32 -100.5t83 -47.5q66 0 125 33t102 91.5t56 131.5l-62 -12q-18 -4 -37.5 -8t-39.5 -4 q-51 0 -67.5 31.5t-16.5 76.5q23 -14 77 -14q55 0 133 6q20 2 65.5 8t88.5 10.5t57 4.5q45 0 63.5 -33t18.5 -68q-10 14 -61 21q-10 2 -21.5 2h-23.5q-39 0 -94 -6q0 -90 -43 -166t-117 -120t-170 -44q-117 0 -178.5 64.5t-61.5 162.5z" />
<glyph unicode="'" horiz-adv-x="163" d="M53 919q-6 1 6 15q14 18 42 61t58.5 93.5t54.5 94.5t32 64q4 14 4 35q0 18 -4 25q86 6 86 -68q0 -8 -2 -19.5t-6 -23.5q-12 -53 -55.5 -109.5t-100 -101.5t-105.5 -65q-4 -2 -10 -1z" />
<glyph unicode="(" horiz-adv-x="620" d="M158 246q0 23 2 46t6 48q16 100 66.5 208.5t123 202t155.5 150.5t163 57q35 0 33 -8q-74 -23 -136.5 -82t-115.5 -131q-72 -98 -130.5 -224t-80.5 -263q-4 -25 -6 -48.5t-2 -45.5q0 -86 36.5 -144.5t124.5 -64.5q35 -4 35 -23q1 -18 -22 -18q-14 0 -33 6 q-117 45 -168 133t-51 201z" />
<glyph unicode=")" horiz-adv-x="655" d="M88 -86q76 23 138.5 83t115.5 132q70 98 129 224t80 263q4 25 6 48.5t2 44.5q0 86 -37 145t-123 66q-35 4 -34 22q0 16 22 16q10 0 33 -6q115 -41 166 -131t51 -205q0 -43 -6 -90q-16 -100 -66.5 -208.5t-124 -201.5t-156.5 -151.5t-163 -58.5q-16 0 -25 2q-10 2 -8 6z " />
<glyph unicode="*" horiz-adv-x="649" d="M82 918q0 12 19.5 20t29.5 8l176 8q-8 12 -27.5 42t-42 66t-38 66.5t-15.5 42.5q2 0 2 11q0 8 11 8q10 0 23 -13.5t18 -19.5l114 -158l25 181q0 16 5 49t19 33q10 0 14.5 -26t5.5 -50.5t1 -20.5q0 -45 -4 -86l-8 -90q4 4 26.5 25.5t51 48.5t54 47t36.5 20q10 0 10 -10 q0 -25 -25.5 -58.5t-58.5 -64t-53 -51.5h174q12 0 23 -2t11 -16q0 -16 -29.5 -25.5t-69.5 -12.5t-73.5 -4t-42.5 -1l22 -32q21 -32 50 -74t50.5 -77.5t21.5 -44.5q0 -10 -8 -10q-14 0 -38 22.5t-51.5 53.5t-52 61.5t-39.5 46.5q-2 -10 -7 -46.5t-14 -81t-19.5 -77 t-22.5 -32.5t-15.5 18.5t-3.5 28.5v14q0 43 7 93l8 90q-12 -12 -45 -44t-67 -59.5t-54 -27.5q-4 0 -10 3t-6 11q0 10 9 25.5t15 21.5l123 117h-25l-41 -2q-29 0 -62.5 2t-59 9t-27.5 24z" />
<glyph unicode="+" horiz-adv-x="780" d="M133 436q6 18 19.5 31.5t29.5 13.5q57 0 115 2q57 2 115 2q37 84 75 168q39 82 74 168q10 0 13.5 -12t3.5 -29q0 -27 -5.5 -58.5t-9.5 -41.5q-16 -49 -38.5 -107.5t-43.5 -87.5q35 0 93.5 1t108.5 2t65 4l-3 -11q-4 -14 -14 -26q-8 -12 -44 -20.5t-82 -14.5t-87 -10 t-59 -11q-2 -2 -16.5 -31.5t-37 -70.5t-46 -81t-44 -67.5t-32.5 -27.5q-14 0 -18.5 16.5t-0.5 30.5t18.5 46t32 70t31.5 68.5t19 40.5q-10 0 -47 1t-82.5 5t-76 13.5t-26.5 23.5z" />
<glyph unicode="," horiz-adv-x="495" d="M90 -211l68 78q35 41 68.5 86t54.5 92q2 8 4 17.5t2 17.5q0 16 -6 24q-12 14 -2 15q20 0 40 -15q35 -25 35 -73q0 -25 -8 -47q-16 -45 -59 -79t-82 -57q-16 -10 -45 -29.5t-35 -25.5q-25 -24 -35 -14q-4 6 0 10z" />
<glyph unicode="-" horiz-adv-x="718" d="M96 469q37 -6 88 -6q84 0 184.5 8t180.5 4q59 -4 70.5 -34.5t11.5 -63.5q-8 10 -58 22q-27 4 -65 4h-40t-46 -4q-8 0 -41 -3t-75 -6t-79 -6t-53 -3q-49 0 -63.5 25.5t-14.5 62.5z" />
<glyph unicode="." horiz-adv-x="456" d="M162 43q0 12 7 23.5t15 17.5q14 10 30.5 21.5t35.5 19.5l29 14q10 4 26 15q6 4 10 -1.5t2 -9.5q-18 -29 -26 -66.5t-20.5 -64t-45.5 -26.5q-23 0 -35 11t-22 28q-6 10 -6 18z" />
<glyph unicode="/" horiz-adv-x="739" d="M106 -61q0 72 52.5 211t142.5 313q88 172 206 363.5t249 367.5q0 2 4 2q8 0 21.5 -18.5t24.5 -41t11 -36.5q0 -4 -4 -13q-27 -37 -84 -122q-57 -86 -130 -200t-148 -241q-78 -129 -140 -245q-63 -119 -104 -214.5t-41 -142.5l2 -14v-10q0 -21 -23 -21q-16 0 -27.5 22.5 t-11.5 39.5z" />
<glyph unicode="0" horiz-adv-x="907" d="M94 168q0 33 4 67.5t11 67.5q14 78 44.5 167t80 167t118.5 123q14 6 44 23.5t58.5 31.5t43.5 14q8 0 8 -6q0 -18 -17 -22l-26 -8q-37 -20 -81 -88t-86 -156t-75 -176t-45 -154q-4 -20 -6 -39.5t-2 -36.5q0 -84 57 -84q41 0 93.5 33t101.5 79t84 89q41 49 92 129t100 173 t85 180t48 147q2 12 3.5 23.5t1.5 21.5q0 82 -64 82q-41 0 -100.5 -25.5t-130.5 -68.5q-27 -14 -70 -45t-87 -64t-75 -57q-16 -14 -52 -42t-64.5 -51.5t-24.5 -23.5q-8 0 -8 10q4 23 31.5 58.5t68.5 76.5t86 81t84 69q31 25 89 54.5t126 52t127 22.5q53 0 94 -25.5t58 -87.5 q4 -16 7 -33.5t3 -35.5q0 -33 -10 -78q-16 -84 -60 -176q-43 -94 -102.5 -184.5t-128.5 -172.5q-72 -82 -144 -143q-74 -61 -143.5 -98t-126.5 -37q-70 0 -96.5 51t-26.5 125z" />
<glyph unicode="1" horiz-adv-x="387" d="M63 61q0 41 5.5 81t13.5 67q18 76 51 156.5t72 160.5q20 43 50 98.5t59.5 108.5t50.5 92l-20.5 -20.5t-43.5 -44t-44 -44t-21 -18.5l2 11q0 4 23.5 37.5t52 72.5t44.5 60q16 23 47 62.5t59 71t40 31.5t35.5 -8t42 -21.5t16.5 -25.5q0 -8 -2 -10q-33 -45 -76 -111 q-43 -68 -90 -147.5t-94 -165.5q-49 -88 -90 -172q-41 -86 -72 -163t-45 -134q-2 -6 -3 -15.5t-1 -21.5q0 -18 -1 -37.5t-5 -42.5q-7 -14 -13 -14q-25 0 -34 31.5t-9 74.5z" />
<glyph unicode="2" horiz-adv-x="792" d="M-35 18q115 74 242 176.5t248 221.5q119 117 223 243.5t174 247.5l12 37v4q0 18 -22 23q-10 0 -19 -2q-8 -2 -16 -2q-45 -14 -124 -50t-157 -77q-45 -25 -98 -60t-92 -69.5t-43 -61.5q-6 -16 4 -18q10 -4 8 -21q0 -4 -6 -6t-10 -2q-18 0 -34.5 17.5t-27 39t-8.5 31.5 q6 33 51 72t105.5 77t120.5 66q72 37 147 66q145 55 252 55q53 0 85 -23.5t30 -70.5q-4 -6 -4 -10l-2 -11q-10 -51 -62 -120q-53 -72 -130 -153t-167 -163q-92 -82 -180 -153q-90 -72 -167 -127.5t-122 -79.5q74 29 159 56.5t168 44.5t148 15q39 -4 64.5 -17t21.5 -54 q0 -12 -16 -42t-27 -34q-6 0 -6 12.5t-5 24.5t-26 12q-33 2 -94 -10t-128.5 -30.5t-119.5 -35.5q-86 -29 -156.5 -53t-119.5 -45l-8 -2l-4 -2q-20 2 -39 27.5t-23 35.5z" />
<glyph unicode="3" horiz-adv-x="884" d="M86 164q0 45 12 96q8 27 18.5 44.5t26.5 17.5q12 0 10.5 -18.5t-1.5 -10.5q-4 -16 -13 -35q-8 -20 -14 -43q-6 -25 -6 -45q0 -57 42 -86t97 -29q49 0 116.5 20.5t114.5 53.5q45 31 101.5 78t102.5 103.5t63 113.5q4 16 4 25q0 47 -45 64t-99 17q-59 0 -104 -8t-94 -30 q-2 -2 -6 -3q-14 0 -22.5 18.5t-13.5 42t-16 36.5q82 10 167 53t163 90q23 10 70 40t88 64.5t49 65.5q0 4 1 6t1 4q0 18 -29 29q-37 10 -86 10q-29 0 -55.5 -1t-36.5 -3q-25 -4 -65.5 -14t-83.5 -25.5t-75 -39t-40 -54.5q-4 -10 0 -20q2 -10 -2 -19q0 -12 -14 -12 q-8 0 -15.5 19.5t-10.5 43t-1 33.5l2 21q16 59 76.5 90.5t124.5 44.5q23 4 61.5 8t67 6t22.5 2q53 0 106.5 -10t89.5 -37t36 -76q0 -18 -6 -28q-16 -57 -65.5 -109.5t-111 -93.5t-110.5 -64q61 -18 101 -80.5t40 -134.5q0 -27 -6 -51q-18 -80 -79.5 -151.5t-142.5 -128 t-165 -89t-147 -32.5q-88 0 -140.5 61.5t-52.5 159.5z" />
<glyph unicode="4" horiz-adv-x="806" d="M20 373q0 39 62 110q49 59 120.5 128t157.5 139q84 68 162 127q78 57 138.5 96t87.5 45l20 4q8 2 16 2q25 0 29 -14q-2 -4 -4 -4l-8 -5q-20 -6 -56 -34.5t-78 -67.5t-82 -76t-69 -61q-96 -80 -190 -164q-94 -86 -193 -166q90 27 184.5 43.5t186.5 16.5l53 -3l281 549 q12 27 26 27q16 0 27.5 -27.5t17.5 -58.5t2 -45q-8 -20 -39.5 -80.5t-71.5 -135.5t-77 -142.5t-55 -104.5q25 -4 62.5 -20.5t66 -42t22.5 -54.5q-8 -25 -36.5 -59.5t-57.5 -34.5q-6 0 -6 14q4 20 27.5 48t27.5 51q2 12 -23.5 18t-55 8t-42.5 2l-16 -2q-16 -31 -46 -87 t-60.5 -122.5t-55 -125t-33.5 -93.5q-2 -6 -3 -11t-1 -9q0 -12 8 -19q10 -12 9 -24q-2 -4 -10.5 -7t-10.5 -3q-27 0 -37 34.5t-10 79.5q0 43 6 82t11.5 57.5t5.5 -4.5q16 63 41.5 121t56.5 123q-10 4 -16 4h-13q-78 0 -159.5 -21.5t-159.5 -43.5q-6 0 -32 -8.5t-50.5 -17.5 t-26.5 -9q-14 0 -22.5 28.5t-8.5 49.5z" />
<glyph unicode="5" horiz-adv-x="755" d="M-45 20q0 8 1 15.5t3 15.5q2 6 11.5 32t22.5 49.5t23 23.5v-6l-4 -15q-2 -6 -2 -14q-6 -33 -6 -62q0 -113 94 -112q41 0 93.5 21.5t107.5 68.5q39 33 91 85t103.5 117.5t91.5 135t56 135.5q6 31 6 53q0 47 -22.5 67.5t-59.5 20.5q-49 0 -109.5 -28.5t-114.5 -75.5 t-83 -98q-8 0 -20.5 30.5t-8.5 48.5l105 215q14 31 39.5 84.5t49 99.5t30.5 56q4 10 10 19.5t16 9.5q29 0 62.5 -12.5t72.5 -12.5q82 0 149.5 3t141.5 26q20 4 29 4h6q4 0 4 -4q-4 -8 -12 -17l-10 -14q-70 -72 -160 -102.5t-162 -30.5q-14 0 -42 4t-54.5 11t-34.5 16 l-107 -226q90 47 185 48q78 0 134 -58.5t56 -154.5v-18.5t-2 -20.5q-23 -98 -82 -199.5t-144 -186.5t-185.5 -137.5t-206.5 -52.5q-35 0 -73 18.5t-63.5 50t-25.5 74.5z" />
<glyph unicode="6" horiz-adv-x="798" d="M25 152q0 16 1 31.5t3 31.5q8 70 49 160q41 88 100.5 183t132.5 187q72 90 148 162q76 70 146.5 114t125.5 44q18 0 43 -14.5t42.5 -37t14.5 -44.5q0 -4 -1 -10.5t-5 -6.5q-12 6 -14 21q-4 14 -29 14q-31 0 -73.5 -23.5t-84.5 -57.5t-73 -62q-33 -31 -80 -78 q-92 -96 -199 -236q-51 -68 -92 -135q-49 -78 -79.5 -152.5t-30.5 -131.5q0 -43 17 -64.5t60 -21.5q33 0 82.5 24.5t100.5 61t94 73.5q47 41 92 91.5t75 100.5t30 87q0 27 -13.5 38t-34.5 11q-27 0 -80 -26.5t-112 -67.5t-105.5 -86t-60.5 -82q0 -4 -5 -15.5t-9 -11.5 q-6 0 -6 17l2 18q8 57 43.5 111.5t88 98.5t109 69.5t105.5 25.5q72 0 122 -51t37 -137q-12 -80 -67 -156t-133 -135t-159.5 -94t-147.5 -35q-84 0 -127 52t-43 145z" />
<glyph unicode="7" horiz-adv-x="702" d="M119 4q0 29 6 55q10 49 35.5 109.5t55.5 117t52 91.5q45 78 104.5 161t123 158.5t123 136t106.5 93.5h-23q-6 2 -14 2h-18q-41 0 -99.5 -10.5t-121 -28t-118 -42t-87.5 -54.5q-12 -8 -23.5 -35t-19.5 -50.5t-11 -23.5q-23 0 -16 43l16 102l11 37q4 16 8 25 q61 37 147 68.5t172 52t152 20.5q43 0 90 -20.5t80 -54t31 -74.5l-2 -11q-125 -86 -238 -194q-23 -20 -67 -67.5t-93 -104.5t-86 -103q-51 -63 -94 -127q-45 -63 -76.5 -123.5t-42.5 -107.5q-2 -6 -2 -16q0 -29 11.5 -53.5t11.5 -41.5q-5 -16 -23 -16q-33 0 -47 25.5 t-14 60.5z" />
<glyph unicode="8" horiz-adv-x="813" d="M41 131q10 70 67.5 133.5t131 121.5t133.5 112q-35 41 -58.5 91t-23.5 103v16.5t2 16.5q10 66 69.5 123t141.5 101t161.5 68.5t131.5 24.5q29 0 63.5 -13t38.5 -40l33 64q6 25 14 24q8 0 10 -22.5t0 -38.5q-12 -76 -69.5 -145.5t-130.5 -133.5q-43 -37 -97.5 -79 t-105.5 -80.5t-84 -67.5q47 -53 94 -120.5t47 -147.5q0 -86 -53 -147.5t-134 -95.5t-167 -34q-49 0 -102.5 17.5t-87 54.5t-25.5 94zM119 82q-4 -23 16 -32t55 -9t73 6t56 16q63 31 122 83.5t71 113.5q6 27 -11.5 74t-43 85t-45.5 38q-33 -18 -80 -63.5t-93 -103t-80 -112.5 t-40 -96zM399 643q0 -51 33 -92q31 29 76 63.5t90 69.5t76 61q59 47 113.5 99.5t95.5 116.5q-4 0 -11 4l-8 2q-49 0 -123.5 -26t-149.5 -70t-128 -97t-62 -106q-2 -6 -2 -12.5v-12.5z" />
<glyph unicode="9" horiz-adv-x="714" d="M123 504q0 16 3 32.5t7 36.5q16 63 70.5 137t128.5 143t149.5 122t136.5 76q16 4 25 4q45 0 79 -42t26 -81q-6 -16 -18.5 -32.5t-29.5 -22.5q-10 20 -11 42.5t-5 38t-29 15.5q-27 0 -69.5 -29t-89.5 -71t-86 -80q-41 -43 -85 -97.5t-77 -109t-43 -97.5q-2 -8 -3 -15 t-1 -13q0 -23 16 -23q20 0 63.5 23.5t90.5 56.5t84 64q31 25 71.5 59.5t75.5 65t47 43.5q16 20 41 50.5t48.5 54.5t37.5 24q18 0 41 -8.5t23 -18.5q-2 -8 -27 -53l-151 -277q-47 -88 -91 -176q-43 -88 -77.5 -169t-49.5 -138q-4 -14 -6 -27.5t-2 -23.5q0 -41 29 -41l20 4 q8 0 9 -4q-2 -14 -28 -23.5t-42 -9.5q-37 0 -51.5 28.5t-14.5 69.5q0 23 4.5 48.5t10.5 48.5q16 63 48 142t71.5 161t81.5 155.5t77 126.5q-39 -41 -95 -92t-117.5 -98t-120 -78t-101.5 -31q-41 0 -67.5 28t-26.5 81z" />
<glyph unicode=":" horiz-adv-x="532" d="M145 43q0 12 7.5 23.5t15.5 17.5l31 22q14 10 32 19l29 14q10 4 27 15q6 4 11 -1.5t1 -9.5q-18 -29 -25.5 -66.5t-19.5 -64t-47 -26.5q-23 0 -35 11t-20 28q-6 10 -7 18zM367 412q0 12 7 23t15 18q25 20 64 41l28 14q12 4 29 14q4 4 9 -1t1 -9q-18 -29 -25.5 -66.5 t-19.5 -64.5t-47 -27q-23 0 -35 11.5t-20 27.5q-6 10 -6 19z" />
<glyph unicode=";" horiz-adv-x="575" d="M152 -221q-2 6 2 10l67 78q39 39 71 85t50 93q6 16 6 37q0 14 -6 22q-8 14 0 15q18 0 39 -15q37 -27 37 -75q0 -10 -2 -21.5t-6 -23.5q-18 -57 -84 -98.5t-131 -75.5q-10 -4 -15 -15q-4 -10 -10 -14q-16 -8 -18 -2zM420 410q0 14 7 25t13 18q14 12 31 22l33 19l28 14 l31 14q4 4 9.5 -1t0.5 -9q-20 -33 -27 -72t-22.5 -65.5t-54.5 -20.5q-16 4 -26.5 14.5t-18.5 24.5q-4 6 -4 17z" />
<glyph unicode="&#x3c;" horiz-adv-x="655" d="M137 434q10 16 53 50t101.5 75t122 81t117 72.5t83.5 47.5q10 4 24.5 9t27.5 5q27 0 12 -26q0 -2 -39 -31t-96.5 -71t-113.5 -84t-95 -70l-39 -29q25 -23 63.5 -69t69.5 -97t31 -92q0 -33 -27 -47q-23 39 -78 91t-115.5 100t-97.5 75q-2 2 -2 6z" />
<glyph unicode="=" horiz-adv-x="813" d="M98 250q-6 0 0 10q10 12 29.5 35.5t39 42t32.5 18.5h4q16 -12 63 -17t107 -5q35 0 92 3t110.5 6t71.5 7q-2 0 -2 -4q-4 -8 -21.5 -30.5t-21.5 -26.5q-25 -10 -84 -18.5t-130 -13.5t-136.5 -7t-104.5 -2q-41 0 -45 2h-4zM240 489q-4 0 2 11q10 12 28.5 35.5t38 43 t33.5 19.5h4q16 -14 63.5 -19.5t106.5 -5.5q31 0 90.5 3.5t112.5 6.5t69 7q2 0 3 -4q-6 -8 -23.5 -31t-24.5 -27q-23 -10 -81 -18t-129.5 -13t-137 -7.5t-102.5 -2.5h-31q-14 0 -18 2h-4z" />
<glyph unicode="&#x3e;" horiz-adv-x="774" d="M160 190q0 8 6 17q4 6 38 31.5t73.5 53t64.5 46.5q35 23 78 53.5t80 58t51 42.5q-23 20 -62.5 66t-70.5 99.5t-31 92.5q0 31 25 45q23 -37 75 -85t111 -96.5t104 -85.5q4 -4 5 -10q-12 -18 -67.5 -60t-115.5 -83q-72 -49 -151.5 -99.5t-143.5 -80.5q-24 -15 -53 -15 q-16 0 -16 10z" />
<glyph unicode="?" horiz-adv-x="636" d="M197 43q0 12 7 23.5t15 17.5q14 10 30.5 21.5t35.5 19.5l28 14q10 4 27 15q6 4 10 -1.5t2 -9.5q-18 -29 -26.5 -66.5t-20.5 -64t-45 -26.5q-23 0 -35 11t-22 28q-6 10 -6 18zM342 307v23q0 12 2 24q18 80 115 185q49 53 103 122.5t102 139.5q47 76 59 127q4 12 4 23.5 v19.5q0 45 -21.5 72.5t-64.5 27.5q-57 0 -110.5 -43t-94.5 -100.5t-59 -100.5q-12 -29 -19 -28q-6 0 -6 14q0 16 8 39q47 131 143.5 199.5t219.5 68.5q84 0 117.5 -34.5t33.5 -94.5q0 -74 -36.5 -141.5t-90 -124.5t-106.5 -100l-119 -93q-59 -47 -102 -120q-10 -16 -14 -33 l-11 -27q-2 -6 -2 -12v-10q0 -33 25 -45q6 -4 6 -11q-4 -14 -18 -16q-5 -2 -13 -2q-18 0 -33.5 14.5t-17.5 36.5z" />
<glyph unicode="@" horiz-adv-x="1163" d="M197 303q0 80 28 176q39 125 119 234q78 106 189.5 178t242.5 72q135 0 211 -56q61 -47 90 -112.5t29 -143.5v-33.5t-4 -31.5q-14 -98 -58 -183q-45 -84 -115.5 -140t-152.5 -56q-47 0 -67.5 25.5t-20.5 64.5q0 33 12.5 68.5t30.5 66.5q-31 -45 -70.5 -92t-85 -79 t-90.5 -32t-64.5 27t-19.5 66q0 43 18.5 95t45.5 97q37 61 92 115.5t115.5 89.5t118.5 35q31 0 64.5 -9.5t51.5 -33.5q10 -14 13.5 -27.5t3.5 -24.5q0 -33 -17 -32q-10 0 -20 24q-20 55 -68 56q-37 0 -82 -30t-90 -77q-53 -53 -94 -117.5t-61 -115.5q-8 -23 -14.5 -41.5 t-6.5 -30.5q0 -27 23 -27q29 0 75 39q33 27 74 67t76 81t51 67l25 41q18 18 51 19q18 0 29.5 -7.5t5.5 -21.5l-11 -21q-12 -20 -27.5 -48.5t-28.5 -52t-15 -30.5q-14 -33 -26.5 -68.5t-12.5 -60.5q0 -33 26 -32q59 0 109 51q49 49 81 125t42 164q2 16 3 32.5t1 30.5 q0 49 -10 100q-18 76 -67.5 126.5t-135.5 50.5q-109 0 -205 -66t-167.5 -164t-110.5 -211q-20 -57 -30.5 -108.5t-10.5 -100.5q0 -100 48 -166.5t159 -66.5q80 0 139 33.5t112 68.5q-12 -57 -76.5 -100t-166.5 -43q-143 0 -215 72q-88 88 -88 235z" />
<glyph unicode="A" horiz-adv-x="1447" d="M-35 244q0 133 76 262q41 72 106.5 151.5t146.5 151.5t168 116t167 44q12 0 29.5 -3t17.5 -10l-29 -4q-57 -8 -125 -49q-139 -84 -270 -244q-66 -78 -115 -159q-51 -82 -80.5 -165t-29.5 -153t32.5 -101.5t79.5 -31.5q53 0 117 35q84 49 138.5 98t99.5 102.5t104 112.5 l-80 -16q-47 -10 -92 -10q-59 0 -88 18.5t-29 42.5q0 39 58 68q41 16 86 24q45 6 77 15q4 0 5 -2q0 -4 -5 -5q-16 -2 -36.5 -14t-22.5 -18q10 2 41 5t70 8t73.5 10t51.5 9q92 88 185 213t178 258.5t149 243.5q6 12 28.5 54t49 93.5t49 94.5t30.5 59q6 12 10 13q4 0 5.5 -7.5 t-2.5 -13.5q-102 -240 -229.5 -492.5t-297.5 -502.5q16 2 57.5 3t86.5 3t79.5 4t42.5 4q33 78 71 183.5t72 217.5q34 110 53 212q16 84 16 148q0 13 -1 26q16 10 35 24q16 14 35 14q47 0 66.5 -49t19.5 -102q0 -51 -18.5 -123t-46 -149.5t-58.5 -151.5q-35 -78 -69.5 -150.5 t-47.5 -99.5q55 0 117 -12t104 -41t42 -80v-15.5t-5 -17.5q-6 -20 -14 -20q-4 0 -4 10q0 4 2 9t2 11q0 8 -6 17q-18 25 -66.5 35t-105.5 11t-102 1q-16 -31 -49 -102.5t-69 -157.5t-65.5 -165t-42.5 -124q-8 -27 -22.5 -75t-26.5 -100t-12 -93q0 -53 26 -60q9 -2 17 -2 q33 0 67 24q43 30 87.5 74t84.5 74q20 10 7 -8q-14 -10 -32 -38.5t-32 -58.5t-22 -44q-18 -39 -50 -58.5t-69 -19.5q-53 0 -98 39q-27 23 -37.5 58.5t-10.5 78.5q0 63 16.5 137t38 143.5t38.5 123.5q14 43 38.5 110.5t51 135t45.5 112.5q-12 0 -60.5 -4t-108 -11 t-106.5 -14.5t-57 -11.5q-33 -31 -78 -80t-93 -101t-89 -89q-76 -70 -157 -118t-167 -48q-111 0 -164 72.5t-53 177.5z" />
<glyph unicode="B" horiz-adv-x="1771" d="M8 584q0 39 12 69q20 47 64.5 100.5t95.5 98.5t96 70q10 4 11 0q0 -6 -6 -13q-27 -27 -59 -76t-61.5 -108t-47.5 -113q-16 -53 -17 -94q0 -39 16.5 -65.5t55.5 -26.5q80 0 170 61q88 61 181 157.5t183 215.5t172 236q43 63 92.5 136t94.5 137.5t74 100.5q33 41 50 61.5 t50 20.5q35 0 47 -21.5t12 -51.5q0 -33 -11 -72t-23 -68q-74 -158 -158 -313.5t-168 -310.5q-86 -156 -164 -314.5t-139 -320.5q14 -4 46 -10.5t52 -8.5q35 96 70 185.5t78 189.5q43 98 99 217t136 279q33 66 77 148.5t97 159.5t117.5 126t138.5 49q82 0 124 -49t42 -113 q0 -23 -6 -47q-16 -80 -70.5 -157.5t-131.5 -143t-161 -108.5q193 -29 313 -114t120 -202q0 -86 -43 -155q-43 -72 -116 -126.5t-169 -93.5t-205 -61q-76 -16 -155.5 -25.5t-157.5 -9.5q-63 0 -125 6q-16 -59 -46 -135t-74 -144.5t-99 -103.5q-16 -8 -36 -15t-40 -7 q-12 0 -19 2q-20 8 -29 44t-9 87q0 57 8 121.5t20 122t23 92.5q-27 14 -60.5 48t-46.5 65q-4 16 -4 26t4 23q4 6 9.5 4t5.5 -6q6 -29 28 -52q23 -23 47.5 -40t30.5 -21q12 43 59 139q45 94 110 219t140 269l146 280q70 137 129 256t92 199q-18 -23 -51 -74t-68 -107.5 t-61 -99.5q-57 -92 -113 -188q-57 -98 -118.5 -190.5t-127.5 -172.5q-68 -82 -143 -141q-78 -59 -164 -93q-77 -30 -165 -30h-21q-70 4 -110 63.5t-40 127.5zM526 -311q1 -33 11 -33q14 0 34.5 32.5t43 83t44 103.5t38 95t22.5 57q-23 2 -56.5 7t-46.5 11q-8 -12 -22 -49 t-27.5 -78t-17.5 -65q-6 -29 -14.5 -79t-8.5 -85zM811 57q14 0 27.5 -1t27.5 -1q53 0 115 6q182 16 342 86q78 33 137 82q59 47 95 107.5t36 134.5q0 117 -87 193.5t-218 89.5q-8 -8 -30.5 -40t-32.5 -42q-14 -20 -30.5 4t-16.5 57t18 53q8 10 35.5 15.5t62.5 1.5l62 71 q49 59 100 127t87 143t36 154q0 31 -10.5 50.5t-38.5 19.5q-43 0 -92 -39t-98.5 -100.5t-94.5 -134.5q-47 -74 -86 -144t-66.5 -127t-39.5 -84q-109 -256 -164 -436z" />
<glyph unicode="C" horiz-adv-x="1355" d="M-12 1376q0 41 28.5 65.5t69.5 36t82 11.5q68 0 158 -22.5t177 -56.5t142 -71q8 -6 18.5 -15t10.5 -21q0 -8 -8.5 -11.5t-12.5 0.5q-106 55 -241.5 86t-255.5 31q-29 0 -57.5 -9t-28.5 -38q0 -25 17 -48.5t34 -39.5q84 -80 211 -128t250 -69q147 129 315 205 q121 53 251 78.5t284 25.5q51 -4 111.5 -17t103.5 -45t43 -89q0 -53 -38 -92t-97.5 -63.5t-124.5 -37.5q-61 -14 -132 -21t-136.5 -10t-108.5 -3q-80 0 -159 2t-157 10q-135 -119 -237 -272q-61 -98 -107.5 -206t-66.5 -225q-8 -37 -11.5 -74.5t-3.5 -74.5q0 -125 55.5 -208 t182.5 -83q74 0 160 33q84 31 169 86t162 127q78 72 138 151q59 80 95 163t36 159q0 45 -22.5 61.5t-63.5 16.5q-53 0 -117 -31q-63 -33 -129 -85t-127 -118q-63 -66 -111 -133q-49 -70 -77.5 -134t-28.5 -114q0 -10 -5 -24.5t-18 -14.5q-12 0 -14 12.5t-2 18.5 q0 57 22.5 121t45.5 115q41 76 99 155.5t132 148t158 110.5t172 42q80 0 126 -32.5t46 -116.5q0 -154 -78 -292t-201 -243q-125 -104 -279.5 -166.5t-308.5 -62.5q-182 0 -275 113.5t-93 292.5q0 43 4 83q23 207 126 393.5t259 334.5q-82 14 -179.5 40.5t-184.5 67.5 t-142 95.5t-55 125.5zM782 1059h78q92 0 198.5 8t212 26.5t191.5 47.5q23 6 47.5 14t44.5 21q18 8 46 27.5t28 41.5q0 27 -33.5 38t-76.5 13t-70 2q-188 0 -356 -63.5t-310 -175.5z" />
<glyph unicode="D" horiz-adv-x="1945" d="M29 659v17q0 23 10 29l1 1t3 1q8 0 8 -19q0 -23 9.5 -49.5t37.5 -26.5q29 0 94.5 17.5t145.5 62.5q98 55 231 172t295 328q39 51 70 114.5t58.5 112.5t60.5 64q18 8 39 8q33 0 52 -25.5t19 -79.5q0 -27 -6 -61q-6 -33 -33 -100q-29 -68 -67.5 -153t-83.5 -179 q-47 -96 -92 -186q-27 -49 -55.5 -105.5t-55.5 -107t-41 -80.5q-20 -41 -51 -107.5t-62.5 -135.5t-52.5 -118q-16 -39 -37.5 -89t-39 -92t-21.5 -54q-2 -6 -2 -19q0 -12 6 -12q8 0 18 18q6 8 31 62q12 31 37 85t53.5 117.5t55.5 118.5q47 104 104 220q55 113 116.5 227.5 t127.5 216.5q98 154 180 268.5t158 190.5q76 74 151.5 111.5t159.5 37.5q117 0 204 -67.5t134 -185t47 -265.5q0 -137 -51 -276t-138.5 -268.5t-203.5 -241.5q-117 -115 -248 -197q-133 -84 -273.5 -132t-273.5 -48q-92 0 -153 26q-63 25 -80 41q-18 18 -19 31q0 6 4 6 t21 -10q23 -16 83 -22.5t120 -6.5q104 0 219.5 51.5t227.5 133.5t206 179t158 187q121 178 193.5 352.5t72.5 319.5q0 84 -22.5 156.5t-76 116.5t-145.5 44q-51 0 -107.5 -29.5t-109.5 -74.5t-99 -95t-79 -91q-176 -236 -342 -491t-281 -540q-12 -33 -30.5 -87t-43 -109 t-53 -93t-57.5 -38q-49 0 -49 71q0 16 2 36t6 40q12 57 43 149.5t72 195t82 197.5t73 157q27 53 63 131t72.5 168t69.5 177t53.5 159.5t22.5 115.5q-57 -143 -130 -251.5t-159 -202.5q-43 -45 -103.5 -103.5t-127 -114t-132 -91t-116.5 -35.5q-92 0 -132 36.5t-46 87.5z" />
<glyph unicode="E" horiz-adv-x="1425" d="M-25 43q0 16 2.5 33.5t6.5 36.5q20 70 84.5 143.5t156.5 142t196.5 122.5t205.5 85q-127 0 -191.5 54.5t-64.5 134.5q0 72 23.5 134t64.5 120q-129 16 -226.5 43.5t-144.5 56.5q-25 18 -25 27q0 6 11 6q8 0 32 -11q66 -33 165.5 -53t220.5 -31q70 78 170 139.5 t212.5 104.5t221 65.5t196.5 22.5q51 0 112.5 -14t105.5 -46t44 -85q0 -63 -49 -107.5t-123.5 -72t-156.5 -43t-148 -21.5q-53 -4 -108.5 -7t-110.5 -3q-68 0 -135.5 4t-134.5 10q-59 -55 -102.5 -119.5t-43.5 -132.5q0 -57 62.5 -104t165.5 -47q51 0 108.5 14t81.5 14 q23 4 41.5 -22.5t18.5 -48.5q0 -23 -21 -23q-63 -6 -137 -28q-150 -45 -305 -142q-76 -47 -142 -100q-68 -55 -120 -114.5t-82 -119.5q-8 -16 -12.5 -31.5t-4.5 -27.5q0 -84 203 -84q70 0 163 16.5t192.5 45t187.5 67.5q51 23 118.5 67t133 98t108.5 111.5t43 106.5 q0 39 -51 39q-37 0 -92 -19.5t-117.5 -50t-120 -69.5t-96.5 -76q-18 -16 -35 -16q-12 0 -12 14q0 10 6 21.5t21 23.5q25 20 73.5 59t109 78t122 66.5t108.5 27.5q61 0 106.5 -28.5t45.5 -106.5q0 -66 -39 -130t-99.5 -122.5t-129 -105.5t-127.5 -78q-119 -61 -272.5 -105.5 t-315.5 -44.5q-33 0 -65 2.5t-64 6.5q-98 16 -162 74.5t-64 152.5zM647 1081h49q200 0 383 29q43 6 109.5 19.5t131 34t109 47t44.5 61.5q0 23 -35 32t-81 11t-81 2q-119 0 -231.5 -34t-194.5 -75q-39 -23 -93.5 -54.5t-109.5 -72.5z" />
<glyph unicode="F" horiz-adv-x="1267" d="M49 928q0 92 82 166q76 70 191.5 121t252.5 85q137 35 261 58q68 10 134 19t119.5 14.5t77.5 7.5q33 2 83 4t96.5 4t64.5 2h2q33 18 58.5 26.5t44.5 8.5q41 0 40 -33q0 -20 -17 -49t-56 -64q-68 -66 -149 -171t-161.5 -228t-150.5 -240h27q49 0 102 -7t90 -28.5t37 -64.5 q0 -12 -6 -31q-10 -23 -15 -18q-6 2 -2 12q6 12 0 29q-16 25 -55 36t-85 13q-23 1 -44 1t-41 -1l-43 -4q-72 -125 -137.5 -258t-115.5 -260t-77 -232q-22 -80 -22 -133q0 -39 12 -57q4 -4 4 -8t-4 -4q-8 0 -16 8q-53 63 -53 198q0 37 4 76t12 78q23 125 84 273.5t139 300.5 q-82 -12 -180 -26.5t-184 -25t-129 -10.5q-27 2 -39.5 16.5t-12.5 30.5q0 31 27 51q31 16 72 23q39 4 67 10q4 2 3 0t-3 -2q-14 -4 -30.5 -14t-20.5 -19q100 12 223 24.5t250 20.5q66 121 136.5 234t133.5 207q63 92 116.5 157.5t84.5 94.5q10 10 21 18l20 14 q-92 0 -211 -16q-121 -16 -247 -46t-248 -73q-125 -43 -222 -98q-98 -57 -159.5 -126t-65.5 -146q0 -23 8.5 -49.5t55.5 -41.5q16 -4 12 -9t-14 -5q-20 0 -59.5 9.5t-78.5 27.5t-66.5 48t-27.5 71z" />
<glyph unicode="G" horiz-adv-x="1318" d="M-82 -618q0 51 32 118.5t97 143.5q72 86 188.5 178t251.5 174q133 80 271.5 141.5t253.5 85.5q43 88 68.5 181.5t25.5 168.5q0 74 -29 113l-24 -51q-6 -10 -13.5 -24.5t-17.5 -30.5q-43 -76 -106.5 -162t-145.5 -162t-179 -123t-210 -47q-16 0 -32.5 1t-33.5 3 q-123 14 -180 90t-57 180q0 14 1 28.5t3 29.5q16 137 86 279.5t170 268.5t211 214q121 98 263 160.5t282 62.5h36.5t36.5 -4q53 -8 99.5 -44t46.5 -98q0 -23 -10 -53q-23 -74 -79.5 -158.5t-133.5 -160.5q-33 -33 -98.5 -84t-143.5 -100.5t-152 -80.5q-61 -27 -108 -27 q-9 0 -17 1q-4 2 -4 8t4 6q150 55 266.5 144.5t221.5 205.5q14 16 37.5 49t48 70t41.5 68q33 63 33 115q0 25 -8.5 45t-30.5 34q-27 16 -62 17q-68 0 -157 -45t-177 -110.5t-157 -129.5q-35 -33 -86 -92t-105.5 -134t-105.5 -159q-53 -86 -90 -168q-27 -59 -42.5 -115.5 t-15.5 -103.5q0 -31 11 -66q20 -57 59 -81.5t86 -24.5q35 0 71.5 11.5t77.5 29.5q51 25 109.5 61.5t108 74.5t75.5 63q123 115 186.5 197.5t98.5 129.5q-6 6 -18 11q-18 2 -19 14q0 14 21 20q23 0 55.5 -5t54.5 -32q47 -53 47 -172q0 -121 -71 -292q53 0 101 -13.5t77 -42.5 q10 -14 6 -23t-14 1t-35 14t-56 4q-27 0 -56.5 -2t-51.5 -4q-98 -213 -213 -366.5t-231 -258.5q-117 -104 -227.5 -166.5t-201.5 -93.5q-93 -30 -163 -30q-76 0 -114 33.5t-38 91.5zM-39 -614q0 -82 92 -82q80 0 195 69q100 61 207.5 158.5t206.5 206.5q98 109 180 217 t129 188q-96 -27 -213 -79t-237 -119.5t-226.5 -144t-181.5 -154.5q-80 -82 -116 -148.5t-36 -111.5z" />
<glyph unicode="H" horiz-adv-x="1787" d="M113 627v16q0 27 10 31h6q8 0 8 -17q0 -23 7.5 -50t39.5 -27q27 0 92.5 17t145.5 62q98 55 231 172t295 328q35 47 68 111.5t61.5 119t52.5 70.5q20 10 33 10q23 0 23 -22q0 -27 -33 -51q-18 -12 -50 -45t-44 -60q-59 -143 -135 -274t-164 -223q-57 -63 -136 -137 t-168.5 -125.5t-183.5 -51.5h-13q-79 0 -111 45q-36 49 -35 101zM350 -352q0 78 19.5 162t48 157.5t55.5 120.5q41 74 91 151.5t100 151.5q41 59 90 130t75 112l45 72q33 53 72 118.5t80 141.5q39 74 66 141q16 39 24 71.5t8 59.5q0 43 -24 61q-10 6 -10 11q0 10 24 4 q35 -10 48.5 -37t13.5 -59q0 -27 -6.5 -55.5t-16.5 -51.5q-33 -113 -138.5 -311.5t-248.5 -466.5q-96 -176 -153.5 -313.5t-88.5 -237.5q-20 -72 -32.5 -136.5t-12.5 -103.5q0 -78 33 -96q25 -16 41 -20q8 -2 8 -7q0 -8 -16 -8q-49 0 -95.5 17.5t-78.5 99.5q-20 49 -21 121z M860 336q0 29 16.5 38t41.5 8q16 0 33.5 -1.5t35.5 -1.5q84 -2 155.5 -5t135.5 -3q41 0 79 1t75 3q41 90 92 195.5t108 209.5q43 82 101.5 177.5t121 186.5t122 164.5t108.5 116.5q29 27 79 64t101 65q42 23 72 22q6 0 12 -1q8 -2 11 -10.5t-7 -5.5q-16 2 -38.5 -13.5 t-45 -37t-39.5 -35.5q-113 -117 -196.5 -241t-155.5 -257t-147 -281q-37 -74 -73 -153.5t-71 -158.5q20 1 43.5 1.5t49.5 -1.5q52 -2 89 -11t33 -31q-6 -20 -28 -16l-35 6q-33 10 -48.5 17t-41.5 7q-8 0 -17.5 -1t-19.5 -3l-43 -6q-49 -117 -84 -216t-45 -153 q-23 -96 -62 -96q-31 0 -49 72q-31 35 -86 88t-122.5 111.5t-135.5 101.5q-51 4 -88 24.5t-37 59.5zM1098 256q35 -31 75.5 -75t78.5 -88t65 -79q0 25 3 53.5t11 57.5q6 27 24.5 74t45.5 112q-72 -14 -152 -29.5t-151 -25.5z" />
<glyph unicode="I" horiz-adv-x="1196" d="M78 -94q0 29 16.5 63.5t34.5 46.5q23 14 49 14q7 0 15 -1q33 -8 61 -13q12 -4 52 -8t91.5 -9t98.5 -9t71 -6q10 -1 24 -1q27 0 67 3q60 4 118 10q10 96 51 223q41 125 99.5 260t128.5 271q70 133 135 245q63 113 116.5 194t82.5 111q35 35 61 52q-63 -4 -141 -23 q-78 -20 -160 -54t-158 -83q-78 -49 -137 -111q-59 -63 -96 -137t-37 -160q0 -20 6 -47.5t39 -42.5q10 -4 7 -9t-7 -5q-27 0 -67 17.5t-70.5 54t-30.5 96.5q0 96 53 172q51 76 131 132t176 95q94 39 181 66q70 20 137 34.5t94 16.5q18 2 34.5 4t33.5 6l49 6q14 0 20 -8 q31 6 54 6q61 0 61 -41q0 -33 -45 -75q-29 -27 -69 -79.5t-84 -120t-87 -137t-80 -130.5q-63 -113 -132.5 -243t-133 -269.5t-106.5 -276.5l18 6l10 4q25 6 42.5 8.5t27.5 2.5q18 0 18 -7q0 -4 -21.5 -14t-66.5 -18l-36 -6q-20 -76 -33 -148t-13 -137q0 -47 17 -64l4 -6 q0 -6 -8 -5t-13 7q-27 27 -40 89t-16 128q-2 40 -2 72q0 21 1 39q-43 -10 -98 -23.5t-112.5 -26.5t-101.5 -22.5t-63 -11.5q-47 -4 -105 -10t-108 -6q-63 0 -88 12q-20 6 -20 37z" />
<glyph unicode="J" horiz-adv-x="1435" d="M-117 -305q0 66 35 148.5t109 174.5q86 106 226 216t302 202q160 90 324.5 153.5t300.5 80.5q45 102 69.5 216.5t24.5 209.5q0 59 -11.5 105t-33.5 69q-102 -10 -209 -37t-200 -72t-157.5 -110.5t-80.5 -153.5q0 -8 -1 -16.5t-1 -18.5q0 -16 7 -34.5t29 -30.5 q12 -8 8.5 -12.5t-12.5 -2.5q-27 6 -66.5 31t-67.5 67q-22 31 -22 70q0 14 3 29q18 94 92 155.5t179.5 95.5t222 49t221.5 19q-10 6 -11 17q0 12 13 14q16 10 43 10q23 0 46 -9t44 -32q16 0 31.5 -1t31.5 -1l37 -4q23 -2 43.5 -3t36.5 -1q31 0 51 -4q25 -6 25 -16 q0 -14 -45 -8q-41 10 -89.5 12t-101.5 2q45 -76 45 -203q0 -88 -21.5 -190.5t-60.5 -208.5q63 -8 120.5 -31t88.5 -63q10 -12 10 -27q0 -20 -16 0q-18 18 -58 26.5t-89 10.5q-24 1 -46 1t-42 -1q-109 -268 -240 -455.5t-264 -310.5q-135 -123 -264.5 -190.5t-235.5 -98.5 q-88 -25 -160 -25q-76 0 -126 28t-70 77q-16 31 -17 82zM-63 -305q0 -57 35 -91t94 -34q43 0 95 17.5t111 56.5q162 104 298.5 226t244.5 247q109 123 188.5 240.5t129.5 213.5q-117 -25 -256.5 -76t-278.5 -124q-139 -74 -267 -165t-222 -194q-90 -96 -131 -177t-41 -140z " />
<glyph unicode="K" horiz-adv-x="1339" d="M35 623v10q0 29 12 35h4q8 0 8 -19q0 -20 8.5 -44.5t38.5 -24.5q27 0 89.5 15t138.5 58q96 53 225 165t285 312q41 53 68.5 113t52 106t59.5 62q16 6 27 6q39 0 60.5 -47t21.5 -108v-27.5t-5 -28.5q-6 -39 -39.5 -115.5t-83 -171t-98.5 -185.5t-86 -159q59 -35 109 -77 q29 37 55 75q27 37 55 74q90 121 206 259t249 270q131 129 274.5 237.5t288.5 169.5q31 12 61.5 23.5t61.5 17.5q6 2 11.5 3t7.5 1q10 0 14 -8q4 -14 -4 -12t-16 2q-27 0 -66 -18q-51 -24 -108.5 -65.5t-104.5 -80.5q-45 -37 -101.5 -88t-103.5 -95t-68 -65q-29 -27 -81 -80 t-116.5 -121.5t-133 -143.5t-131 -144.5t-109.5 -124.5q-29 -33 -54.5 -62.5t-47.5 -60.5q63 -63 134 -158.5t142.5 -199t139 -194.5t128.5 -149q59 -51 117 -97t107 -46q33 0 59 27q27 27 39 69.5t18.5 89.5t16.5 86q2 4 6 5q2 0 2 -21q0 -39 6 -71.5t6 -63.5 q0 -27 -9 -54.5t-38 -56.5q-45 -45 -98.5 -67.5t-108.5 -22.5q-96 0 -172 60q-76 57 -141.5 162.5t-127.5 229.5t-124.5 240.5t-130.5 200.5q-100 -125 -185 -253t-161 -275q-35 -63 -70 -113.5t-65 -50.5q-47 0 -47 72q0 14 2 31.5t6 37.5q10 53 39.5 142.5t68.5 188.5 t79 190.5t71 150.5l16 31q-12 1 -24 1q-46 -1 -94 -13q-62 -16 -121 -54q-25 -14 -25 -4q0 25 51 51q29 14 76 31.5t109 17.5h21t22 -2q33 66 72.5 158t76.5 190.5t62.5 180.5t27.5 129q-53 -137 -122.5 -239.5t-153.5 -194.5q-41 -43 -99.5 -99.5t-124 -109t-128 -87 t-113.5 -34.5q-86 0 -126 34.5t-46 84.5zM457 -187.5v-9.5q0 -16 6 -16t18 20q8 16 47 80t84 133q57 90 133 206t164 239q-25 27 -49 47t-53 35l-72 -139q-10 -20 -33.5 -68.5t-51 -105t-51.5 -106.5l-36 -75q-16 -35 -39.5 -85t-42 -92t-22.5 -54q-2 -4 -2 -9.5z" />
<glyph unicode="L" horiz-adv-x="1740" d="M-137 -152.5q0 7.5 2 13.5q16 72 81.5 140.5t177.5 112.5t261 44q39 0 80 -4t80 -15q49 57 97 129t97 152h-39q-18 0 -38 2q-141 10 -231.5 76.5t-90.5 197.5q0 18 3 37t5 39q16 102 81 180t152 133.5t175 86t151 38.5h11q10 0 10 -6q0 -8 -21 -10q-59 -10 -133 -46 t-146.5 -93.5t-127 -134t-70.5 -170.5q-6 -33 -6 -62q0 -109 72.5 -161t193.5 -68q16 -2 35 -2h39l131 227q68 119 140.5 232.5t152.5 216.5q78 102 166 180q86 78 183 123t206 45q70 0 100.5 -43t30.5 -103q0 -10 -1 -22.5t-3 -24.5q-29 -150 -118 -293t-220 -260 q-133 -117 -300 -197.5t-347 -107.5q-66 -98 -125.5 -178t-106.5 -139q61 -18 122 -40t118 -44q39 -14 94 -42t112.5 -58.5t104.5 -51.5q61 -29 121.5 -48t116.5 -19q41 0 78 12q35 14 51 84.5t16 154.5q0 57 -8 117t-23 111q-2 6 3 6q4 -2 16 -25q39 -76 79 -138t40 -134 q0 -14 -3 -30.5t-8 -33.5q-14 -49 -65 -89t-92 -52q-55 -16 -113 -16q-94 0 -199.5 28.5t-200.5 67.5t-163 68q-53 23 -128 44t-153 38q-72 -72 -168 -146t-198.5 -124t-192.5 -50q-78 0 -112.5 41t-34.5 88v15.5zM-94 -164q0 -31 22 -60.5t92 -29.5q76 0 156 49t152.5 119 t130.5 131q-43 2 -80 6q-17 1 -34 1q-95 0 -181 -20q-102 -22 -171 -67t-85 -106q-2 -6 -2 -23zM913 473q145 33 296 114t278 191q127 111 217 242t115 264q2 6 2 13.5v13.5q0 35 -19.5 59.5t-68.5 24.5q-43 0 -99 -35q-61 -39 -129.5 -106.5t-142.5 -159.5 q-76 -92 -152 -195q-76 -104 -151.5 -214t-145.5 -212z" />
<glyph unicode="M" horiz-adv-x="2181" d="M-33 582q0 41 15 71q20 47 63 100.5t94 98.5t97 70q10 4 11 -1.5t-7 -11.5q-25 -25 -57.5 -75t-61.5 -109t-47 -113q-16 -53 -17 -96q0 -39 16.5 -64.5t53.5 -25.5q80 0 170 61q90 59 182 154.5t185 214.5q90 117 172 234q43 63 93 136.5t95 139.5t72 104 q14 23 38.5 52.5t59.5 29.5t47 -22.5t12 -54.5q0 -33 -10 -71t-22 -65q-61 -129 -126 -248.5t-128 -236.5q-66 -119 -129.5 -238.5t-124.5 -250.5q-16 -35 -47 -106t-65 -150.5t-60.5 -150.5t-34.5 -105q-8 -37 -11 -67t-3 -52q0 -82 34 -82q27 0 67 51t81 156 q45 111 75.5 192.5t57.5 155.5q23 61 52.5 142t61 168t63.5 170t58 149q66 158 144 312.5t176 293.5q178 258 367 258q84 0 132 -45t48 -125v-24.5t-4 -26.5q-16 -94 -51 -211t-82.5 -242t-98.5 -244.5t-98 -218.5q53 82 127 174t153.5 177t155.5 152t135 97q45 27 90 27 q35 0 64 -16.5t41 -45.5q16 -35 16 -84q0 -51 -18.5 -108t-46.5 -123q-25 -51 -61 -125t-71.5 -152.5t-58.5 -142.5q-16 -43 -39 -117q-25 -76 -43 -162.5t-26 -174.5q-2 -18 -3 -36t-1 -34q0 -25 3 -48.5t5 -43.5q12 -74 51 -120t117 -46q29 0 59.5 7t54.5 28q16 8 27 8 q8 0 8 -6q0 -10 -20 -25q-35 -33 -85.5 -48t-107.5 -15q-90 0 -141 55t-72.5 139t-21.5 170q0 57 6 107q8 76 31.5 166t54.5 180t61.5 170t55.5 135q45 113 84 212t51 177q0 4 1 8t1 6q0 33 -25 33q-33 0 -96 -49t-125 -115q-98 -98 -187 -211.5t-157 -230.5t-107.5 -232.5 t-39.5 -220.5q-66 0 -92.5 37t-26.5 92q0 37 8 72q14 72 45 154t51 127q10 29 38 98.5t52 136.5q29 84 63 181.5t62 195.5q35 117 59.5 225.5t24.5 177.5q0 43 -10 71t-37 28q-55 0 -121.5 -48t-130 -123t-112.5 -153q-102 -164 -171 -310.5t-122 -295.5q-23 -59 -50.5 -143 t-57 -179.5t-57.5 -187.5t-52 -166q-39 -115 -87.5 -216t-112 -163.5t-149.5 -62.5q-51 0 -71.5 44t-20.5 109q0 47 9.5 100.5t23.5 104.5q55 186 149.5 384t198.5 394q41 82 93.5 180.5t105.5 201t98 196.5t74 168q-12 -23 -45 -74t-70 -107.5t-63 -99.5q-57 -92 -115 -188 q-57 -98 -118.5 -190.5t-127.5 -172.5q-68 -82 -143 -141q-78 -59 -164 -93q-77 -30 -165 -30h-21q-70 4 -110 63.5t-40 125.5z" />
<glyph unicode="N" horiz-adv-x="1619" d="M47 -283q0 51 20.5 111.5t52.5 122t64.5 115t57.5 90.5q43 72 110.5 170t138 198.5t123.5 180.5q96 145 176 289.5t119 279.5q14 8 37 17t39 7q31 -12 35 -38l29 2q43 -2 43 -43q0 -12 -4.5 -27.5t-10.5 -32.5q-18 -39 -43.5 -117.5t-53.5 -179t-52.5 -205t-38.5 -192.5 q-14 -78 -23.5 -158t-9.5 -151q0 -111 27.5 -186.5t99.5 -75.5q45 0 109 57q66 57 138.5 155.5t147.5 229.5q74 129 138 270q61 141 106 283.5t59 267.5q2 25 4.5 57.5t2.5 67.5q0 29 -2.5 55.5t-6.5 48.5q-18 84 -75 84q-33 0 -84 -34q-16 -12 -17 -2q0 10 10 26 q25 16 59 37t70 21q102 0 148.5 -68t46.5 -166q0 -113 -41 -261.5t-106 -309.5q-57 -141 -129 -281.5t-152 -261.5q-55 -84 -128 -156.5t-150.5 -116.5t-145.5 -44q-76 0 -115 53q-43 53 -61 142t-18 204q0 49 3 101.5t9 105.5q10 117 30.5 234.5t43.5 219.5 q-31 -47 -83.5 -116.5t-108.5 -145.5t-101 -135q-86 -119 -178.5 -256t-182.5 -297q-10 -18 -31.5 -54t-44 -78t-38 -83t-15.5 -67q0 -25 17 -31q14 -8 34 -8q37 0 82 22.5t91.5 50t84.5 43.5q2 2 7 2q-6 0 -33 -27.5t-53.5 -58t-36.5 -45.5q-48 -53 -107 -53q-66 0 -112 66 q-20 29 -21 75zM66 870q0 55 21.5 102.5t59.5 88.5q74 74 181.5 125t234.5 80q125 29 238 45q92 14 182 19t123 7h6q23 0 23 -8q0 -14 -37 -14q-39 0 -82 -1t-92 -7q-92 -14 -189.5 -43t-189.5 -72q-94 -43 -168 -98q-76 -57 -124 -127t-54 -150q-2 -6 -2 -22q0 -20 11 -42 t38 -30q10 -8 6 -12t-12 -2q-23 0 -65 18t-75.5 55t-33.5 88z" />
<glyph unicode="O" horiz-adv-x="1384" d="M49 240v44t4 42q8 111 37 214t70 181q70 129 171 247.5t222 211.5q119 92 247 146t249 54q160 0 225 -81.5t65 -202.5q0 -53 -10 -110.5t-29 -117.5q35 -51 51.5 -115.5t16.5 -131.5q0 -59 -11 -117t-32 -107q-70 -158 -175.5 -281.5t-225.5 -207.5q-123 -86 -251 -130 t-243 -44q-117 0 -192 51q-78 51 -122 135t-59 191q-4 31 -6 63.5t-2 65.5zM180 160q0 -43 5 -82t16 -74q33 -109 109.5 -166t178.5 -57q92 0 188.5 39t190.5 119q92 80 179.5 202.5t160.5 292.5q29 61 58.5 152.5t29.5 171.5q0 39 -8 65q-23 -61 -47 -115.5t-47 -91.5 q-104 -174 -185 -278.5t-153 -169.5q-61 -55 -141 -104.5t-152 -92.5q-16 -10 -6 6t23 27q109 82 213 197.5t196 252t160 281.5l4 15q10 23 24.5 73.5t22.5 116.5l-37 16q-27 12 -57 13q-8 0 -16.5 -1t-16.5 -1l-65 -11q-18 -4 -7 13q12 14 31 18q6 0 16.5 1t22.5 1 q23 0 49.5 -4t55.5 -16l28 -13q4 29 6 58.5t2 58.5q0 70 -14 129.5t-47 97t-92 37.5q-125 0 -236.5 -59t-208.5 -158q-98 -100 -177 -228t-140 -265t-89 -254t-28 -213z" />
<glyph unicode="P" horiz-adv-x="1726" d="M-31 483q0 63 31 131q23 51 82 123t141 141.5t174 114.5q14 8 6 -4q-10 -12 -20 -20q-129 -123 -196.5 -229.5t-94.5 -186.5q-26 -71 -26 -121q0 -72 53 -72q37 0 89 25t102 57.5t81 57.5q66 55 135 131q68 74 133.5 155.5t126.5 167.5l117 164q53 78 99.5 141.5 t78.5 104.5q16 23 37 43t53 20q41 0 56.5 -22.5t15.5 -52.5q0 -41 -20 -78q-49 -94 -115 -209q-68 -117 -139.5 -243t-143.5 -257q-74 -133 -137 -260t-109.5 -244.5t-66.5 -214.5q-16 -72 -20 -125v-24q0 -31 8 -31t28 39q20 37 49 100.5t66 147.5l74 178q39 92 80 187.5 t80 181.5q25 55 61.5 131t81.5 157.5t94 159.5t94 137q135 182 257 279.5t274 112.5q10 2 18 2h17q123 0 201.5 -80t78.5 -217q0 -100 -57.5 -207t-149.5 -204t-198 -175q-125 -86 -264.5 -145.5t-272.5 -71.5q-16 -2 -32.5 -3t-30.5 -1q-33 0 -62 6q-49 12 -63 22 q-18 10 -19 17q0 10 23 0q20 -10 65 -10q23 0 48.5 3t52.5 5q80 8 169 52t176 106.5t158 123.5q27 20 67 66.5t85 106t86 123t68 118.5q51 102 51 170q0 72 -41 105.5t-113 33.5q-59 0 -119 -18q-74 -25 -149.5 -74t-136.5 -119q-137 -156 -252 -323.5t-203 -351.5 q-23 -47 -49 -125q-14 -45 -35.5 -108.5t-45.5 -129t-42 -117.5q-35 -96 -72 -178q-37 -84 -75.5 -147.5t-79.5 -87.5q-12 -8 -32 -14.5t-38 -6.5h-10t-10 2q-20 8 -28.5 38t-8.5 73q0 18 1 37.5t3 40.5q10 113 53 241q43 127 106.5 261.5t139.5 273.5t151 274 q76 133 144.5 261t115.5 241q2 4 6.5 16.5t-4.5 12.5q-16 -25 -41.5 -72t-56.5 -102.5t-59.5 -105.5t-50.5 -83q-113 -176 -230 -338t-272 -272q-61 -39 -148.5 -71t-156.5 -32q-70 0 -108 46.5t-38 117.5z" />
<glyph unicode="Q" horiz-adv-x="1540" d="M-123 -18q0 35 50 93t151 87q-2 16 -3 33.5t-1 33.5q0 111 31.5 228.5t82 225.5t105.5 187q61 92 147 180.5t188.5 163t213 122.5t221.5 59q18 2 35.5 2h34.5q139 0 208.5 -54.5t69.5 -185.5q0 -35 -12 -35q-10 0 -10 31q0 76 -61.5 119t-133.5 43q-143 0 -273 -65.5 t-243 -166.5q-113 -100 -202 -222t-150 -234q-66 -117 -104 -230.5t-48 -218.5q12 2 25.5 3t27.5 1q53 0 113.5 -12t130.5 -41q88 -35 173 -91t163 -122q66 39 135.5 98.5t134.5 147.5q63 86 118.5 202.5t94.5 268.5q16 70 29.5 145.5t13.5 145.5q0 78 -21.5 142t-74.5 103 t-150 39q-51 0 -104 -15t-94 -30q-4 -2 -8 -2q-6 0 -7 6q0 6 12.5 18.5t26.5 18.5q23 8 77 21.5t112 13.5q117 0 194.5 -61.5t117.5 -160.5t40 -212q0 -127 -52 -263t-138 -263t-193.5 -233.5t-218.5 -172.5l47 -41q35 -29 79 -75t91 -96t86 -87q70 -68 141 -115 q69 -45 134 -45h6q35 0 63.5 48.5t50.5 123.5q16 66 28 138q9 62 9 116v19q0 6 4 6t11 -31q16 -68 33.5 -130t17.5 -120q0 -66 -33 -119q-29 -45 -84 -66q-46 -18 -85 -18q-8 0 -15 1q-72 2 -156 44t-167 102t-155.5 123.5t-119.5 106.5l-82 68q-139 -61 -269 -62 q-141 0 -249.5 77t-147.5 249q-66 -8 -113 -31.5t-65 -58.5q-14 -27 -29 -27q-6 0 -6 9zM172 92q12 -143 99 -208.5t210 -65.5q113 0 224 47q-72 53 -147 99t-134 69q-66 29 -130.5 42t-121.5 17z" />
<glyph unicode="R" horiz-adv-x="1736" d="M-12 481q0 57 28 121q23 49 77 115.5t130 131t166 105.5q6 4 7 3t-3 -5l-18 -20q-121 -111 -183.5 -210t-91.5 -177q-24 -71 -24 -112q0 -67 50 -67q5 0 11 1q31 2 80 25.5t94 52t68 49.5q94 78 188.5 192.5t180.5 233.5q47 66 99 140.5t98 140t77 99.5l39 43 q16 18 45 19q39 0 54.5 -22.5t15.5 -51.5q0 -18 -5.5 -35.5t-13.5 -33.5q-45 -88 -106 -195q-63 -109 -131 -226.5t-136 -240.5q-70 -125 -127 -242q-59 -119 -103 -228.5t-62 -199.5q-14 -68 -17 -118q-2 -6 -2 -19q0 -33 10 -33q8 0 31 44t50.5 105.5t51.5 119.5 q29 66 68 158t79 185t71 165q33 72 82 176t107 209.5t118 183.5q86 117 162.5 188.5t155.5 108.5t175 49q8 2 16.5 2h16.5q115 0 188.5 -74.5t73.5 -195.5v-8q0 -89 -43 -175q-45 -90 -122.5 -166.5t-174.5 -134.5q-106 -66 -222 -106.5t-226 -52.5q29 -43 58.5 -95.5 t53.5 -99.5q35 -63 66 -126.5t80 -145.5q29 -47 63.5 -98.5t71.5 -86t70 -34.5q29 0 49 59q16 51 19 109.5t3 93.5q0 10 7.5 13t9.5 -13q4 -23 22 -64t19 -102q0 -68 -40 -108t-94 -48q-12 -2 -23 -3t-24 -1q-92 0 -154.5 53.5t-111.5 153.5t-102 240q-35 98 -74 177 t-76 120q-66 0 -88 8q-6 4 -11 9t1 15q8 23 33.5 39.5t50.5 16.5q49 0 94 -56q104 10 201.5 65.5t202.5 143.5q84 72 150.5 146.5t121.5 187.5q47 96 47 160q0 66 -38 98.5t-103 32.5q-27 0 -55.5 -5t-57.5 -16q-70 -23 -139.5 -67.5t-126.5 -108.5q-129 -145 -234.5 -311 t-187.5 -336q-20 -45 -45 -117q-14 -39 -34.5 -96t-42 -117.5t-38.5 -107.5q-33 -88 -67 -164q-35 -76 -72 -133.5t-74 -79.5q-12 -8 -28.5 -14.5t-34.5 -6.5q-6 0 -23 5q-25 8 -30 59q-4 10 -4.5 22.5t-0.5 26.5q0 16 1 32.5t4 33.5q10 104 51 223q39 119 97 245t130 255 l141 256q70 125 134.5 243.5t109.5 223.5q2 4 4 15t-2 11q-6 -10 -32.5 -56t-59.5 -104.5t-62.5 -108.5t-42.5 -69q-102 -162 -211.5 -312.5t-254.5 -254.5q-39 -29 -92.5 -50.5t-107.5 -33.5t-95 -12q-59 4 -92 47t-33 106z" />
<glyph unicode="S" horiz-adv-x="1118" d="M-2 1219q0 8 10 8q18 0 51 -21q57 -41 160 -62.5t227 -31.5l48 53q66 76 160 129.5t199 87t207.5 50t186.5 16.5q53 0 113.5 -16.5t104.5 -49t44 -84.5q0 -8 -2 -18t-6 -20q-27 -76 -123 -120t-231 -65q-148 -24 -315 -24h-13q-141 0 -270 12q-57 -57 -85 -121.5 t-28 -132.5q0 -147 119 -295q57 -68 116.5 -129t123.5 -127q66 -63 96.5 -125.5t30.5 -118.5q0 -86 -71 -140t-200 -54q-25 0 -51.5 2t-54.5 6q-106 16 -200.5 70.5t-168.5 136.5t-117 176q-8 10 -2 14t11 -6q16 -31 42.5 -61.5t59.5 -61.5q78 -70 163 -107.5t191 -37.5 q135 0 208 39t73 106q0 74 -78 160q-39 41 -88 102l-100 123q-88 109 -144.5 196t-56.5 177q0 49 19.5 102.5t64.5 116.5q-137 20 -238.5 46t-138.5 55q-25 14 -36 26t-11 19zM596 1102q106 0 222 8t226.5 26.5t201.5 48t149 70.5q39 33 39 48q0 20 -80 32q-31 4 -61.5 6 t-59.5 2q-127 0 -235.5 -31.5t-194.5 -76.5q-41 -20 -95.5 -53t-111.5 -80z" />
<glyph unicode="T" horiz-adv-x="1386" d="M43 977q0 86 53 156q47 66 124 114.5t177 83.5q100 33 207 53q106 20 214 29.5t202 9.5q156 0 295 -20q33 23 66.5 34t60.5 11q29 0 47 -10.5t18 -32.5q0 -18 -10 -35q70 -14 151 -34.5t157.5 -39t138.5 -28.5q18 -4 58 -11.5t88 -13.5t87 -6q29 0 49 5q22 6 21 22 q-1 26 -23 56q-24 32 -61 54.5t-70 22.5q-6 0 -6 2t6 4q10 2 35.5 -3t51.5 -12.5t38 -9.5q68 -27 68 -84q0 -31 -25 -59q-12 -16 -26.5 -31.5t-30.5 -23.5q-33 -12 -71 -17.5t-79 -5.5q-98 0 -211.5 23.5t-221.5 57.5t-187 62q-41 -51 -73 -91t-62.5 -82t-67.5 -101 q-78 -123 -156 -261t-145 -284q-70 -147 -123 -298.5t-78 -299.5q-12 -70 -12 -119t16 -65q6 -8 2 -8q-8 0 -18 6q-57 16 -78 76q-16 53 -16 110q0 94 30 211q25 98 60 195q33 94 68.5 179t62.5 142q59 125 120.5 243t116.5 216q113 199 179 281q-78 14 -160 23t-174 9 q-184 0 -342 -48t-267 -130q-68 -51 -98.5 -99t-30.5 -87q0 -47 44 -73.5t122 -26.5q162 0 297 45t267 127q4 4 12 4q6 0 7 -4.5t-9 -12.5q-78 -59 -188.5 -113.5t-233.5 -87t-242 -32.5h-28.5t-28.5 2q-57 4 -110.5 41t-53.5 90z" />
<glyph unicode="U" d="M113 627v16q0 27 10 31h6q8 0 8 -17q0 -23 7.5 -50t39.5 -27q27 0 92.5 17t145.5 62q98 55 231 172t295 328q39 53 71 113.5t60.5 110t57.5 67.5q35 23 47 6q27 -14 37 -46t10 -73q0 -61 -21.5 -141t-57.5 -164t-79 -158q-39 -74 -88 -160.5t-97 -170.5t-86 -151.5 t-54 -102.5q-20 -41 -43 -92.5t-38.5 -97.5t-15.5 -76q0 -45 39 -46q18 0 58 17q53 25 114.5 75t123 112.5t114.5 125t88 107.5q84 104 169 222t161 236q74 119 132 235t91 216q23 8 48.5 14t49.5 6q35 0 55 -14q47 -33 48 -96q0 -33 -25 -111q-23 -66 -55.5 -146.5 t-71.5 -170.5l-78 -180q-23 -47 -47.5 -103.5t-46 -106.5t-33.5 -83q-18 -49 -46 -118t-55.5 -143.5t-50 -141t-34.5 -111.5q-6 -29 -19.5 -78t-25 -103.5t-11.5 -95.5q0 -63 39 -63q45 0 89.5 38t89.5 88t92 83q8 8 11 5t-5 -11q-12 -12 -30.5 -43t-35 -63t-24.5 -48 q-20 -45 -64.5 -70.5t-93.5 -25.5q-51 0 -96 26q-39 27 -54.5 75t-15.5 108q0 90 24.5 188t49.5 162q27 76 70 187.5t91 237.5t92 245.5t77 209.5q25 74 53.5 173.5t40.5 177.5q-37 -104 -96.5 -223t-133.5 -238q-74 -121 -154.5 -234.5t-160.5 -208.5q-55 -66 -129 -138.5 t-157 -133.5t-162 -96q-33 -14 -64 -21.5t-55 -7.5q-61 0 -93 38t-32 99t35 142q18 37 59 112.5t94 169.5l215 393q88 160 159 298.5t85 224.5q-25 -41 -57.5 -99.5t-67.5 -118t-61 -102.5q-49 -80 -100.5 -152.5t-106.5 -129.5q-59 -63 -137 -137t-167 -125.5t-184 -51.5 h-13q-75 0 -109 44q-36 48 -37 102z" />
<glyph unicode="V" horiz-adv-x="1236" d="M61 877q0 90 54 161q51 70 130 122t175 89q94 37 180 62q70 18 137.5 30.5t93.5 14.5q45 6 91 11q26 3 54 3q22 0 46 -2q65 -4 65 -36q0 -28 -47 -70q-35 -31 -82 -97t-101 -151.5t-109 -182.5q-55 -96 -105 -188q-49 -92 -89 -170t-60 -127q-31 -74 -55.5 -163 t-40 -166.5t-15.5 -122.5q0 -92 29 -93q18 0 39 43q49 92 132 216t187 264q102 139 219 284.5t232 280.5q260 309 513 481t507 234q35 8 64.5 11t53.5 3q41 0 65.5 -7t24.5 -16q0 -14 -67 -14q-72 0 -162 -33q-90 -35 -188.5 -93t-198.5 -136q-102 -78 -199 -164 q-98 -86 -186 -175t-158 -173q-121 -145 -240.5 -290.5t-222.5 -274.5q-104 -131 -185 -237.5t-122 -172.5q-27 -43 -55.5 -66.5t-71.5 -23.5q-41 0 -65.5 43t-34.5 99.5t-10 97.5q0 106 32 235q31 129 81 262t114 264q63 129 127 240q63 111 119.5 194t93.5 123 q14 16 31 27l32 21q-63 -2 -141 -21q-162 -37 -319 -129q-78 -45 -138 -102q-59 -59 -96 -128t-37 -147q0 -20 6.5 -46.5t40.5 -39.5q10 -6 6 -10t-10 -4q-23 0 -61.5 16.5t-70.5 51t-32 88.5z" />
<glyph unicode="W" horiz-adv-x="2447" d="M-51 598q0 35 16 68q18 43 65.5 94t102.5 94t100 64q10 6 11.5 0.5t-8.5 -11.5q-25 -25 -60 -70.5t-66.5 -101t-50.5 -106.5q-14 -45 -14 -90q0 -37 15.5 -60.5t54.5 -23.5q82 0 178 57q94 57 191.5 148.5t193.5 203.5q94 113 180 221q47 59 99.5 127t99.5 128.5t76 93.5 q12 12 24 28q4 6 10 6t17 -10q53 -59 53 -153q0 -92 -43 -202t-104 -222q-41 -74 -92.5 -161t-102.5 -172t-90 -153.5t-57 -105.5q-20 -41 -43 -92.5t-38.5 -97.5t-15.5 -76q0 -45 39 -46q18 0 58 17q53 25 114.5 75t123 112.5t114.5 125t88 107.5q90 113 182 236.5 t170 250.5q2 70 9 121t12 80q8 35 30.5 51t48.5 16q27 0 47.5 -18t20.5 -55v-12.5t-2 -12.5q-8 -43 -17.5 -121t-18.5 -175t-14 -201.5t-5 -202.5q0 -25 1 -48.5t1 -46.5q4 -102 15 -200.5t34.5 -178t61.5 -126.5t94 -47q23 0 43 6q57 16 116 80q123 131 213 376 q45 121 76 256q41 186 41 375q0 45 -3 88t-7 86q-8 51 -22.5 114.5t-45.5 119.5q-35 61 -84 61q-57 0 -123 -78q-12 -14 -14 -14t-2 4q0 14 8 33q4 14 28.5 37.5t54.5 44t52 26.5q23 6 42.5 8.5t37.5 2.5q82 0 128 -46.5t66.5 -126t20.5 -180.5q0 -27 -1 -55.5t-3 -56.5 q-10 -96 -29.5 -199.5t-44 -201t-49 -177.5t-43.5 -129q-45 -113 -107.5 -216t-137 -176t-158.5 -99q-16 -4 -32 -7.5t-32 -3.5q-45 0 -82 25q-61 39 -104 123t-70 203q-27 117 -41 247q-10 94 -14 188.5t-4 182.5v73t2 68q-76 -127 -164 -246.5t-172 -222.5 q-55 -66 -129 -138.5t-157 -133.5t-162 -96q-33 -14 -64 -21.5t-55 -7.5q-61 0 -93 38t-32 99t35 142q18 37 59 112.5t94 169.5l215 393q39 70 82 150t81 158t60 142q21 59 21 97v6q-29 -49 -69 -110.5t-83 -126.5q-51 -76 -115.5 -171t-132 -188.5t-128.5 -158.5 q-107 -114 -233 -184q-120 -67 -266 -66h-17q-74 4 -117 59.5t-43 116.5z" />
<glyph unicode="X" horiz-adv-x="1566" d="M18 94q0 29 10.5 62.5t30.5 66.5q29 47 95.5 92t124.5 68q70 33 129 37q12 0 18 -4q4 -4 -6 -6q-47 -2 -97.5 -38t-95.5 -82t-73 -83q-27 -31 -42.5 -69t-15.5 -72q0 -31 14.5 -51.5t45.5 -20.5q59 0 164.5 57.5t220.5 145.5q111 84 219 181t188 183l-96 391 q-16 59 -38.5 131t-49.5 125q-16 -82 -42 -153.5t-58 -141.5q-25 -49 -62 -115.5t-83 -132t-94 -112.5t-95 -59q-20 -4 -39 -7.5t-35 -3.5q-51 0 -86 22.5t-47 55.5q-18 35 -6 43q2 2 6 2q6 0 12 -12q6 -18 20.5 -37.5t37.5 -19.5q16 0 77.5 29.5t130.5 99.5q74 72 160 208 t166 361l8 18q-14 23 -35 31q10 25 34 58.5t50.5 62.5t46.5 39q25 10 39 10q33 0 54 -31q14 -20 27.5 -80.5t27.5 -145.5t28.5 -178t28 -181t23.5 -156q117 133 217 264t180 246q78 115 133.5 208t81.5 148q10 16 25 23h4q8 0 -2 -17q-68 -141 -135.5 -265t-141.5 -240 q-76 -117 -160.5 -228.5t-187.5 -224.5q10 -45 25.5 -122t35 -162t38 -157.5t32.5 -109.5q14 -43 33.5 -100.5t42.5 -100.5t45 -43q12 0 25 15q39 49 55 116.5t26.5 142.5t30.5 144q4 8 7.5 10t3.5 -2q0 -10 -3.5 -22t-3.5 -27q0 -35 5.5 -76t5.5 -65q1 -12 1 -24 q0 -39 -14 -81q-18 -56 -53 -102.5t-82 -71.5q-22 -14 -47 -14q-39 0 -70.5 33t-54.5 80q-29 51 -50.5 120.5t-37.5 122.5q-23 74 -47 172l-53 203q-70 -82 -158 -175t-186.5 -176t-203 -135t-208.5 -52q-94 0 -144.5 45t-50.5 112z" />
<glyph unicode="Y" d="M-33 584q0 61 34 117.5t84 103.5t97 80l54 37q10 4 11 -1.5t-7 -11.5q-25 -25 -57.5 -75t-61.5 -109t-47 -113q-16 -53 -17 -96q0 -39 16.5 -64.5t53.5 -25.5q80 0 170 61t182 157.5t185 217.5q92 119 174 236q43 63 92 136t93 136.5t73 99.5q18 25 32 39q12 14 25 4 q76 -57 76 -165q0 -45 -13.5 -102.5t-41.5 -129.5q-18 -45 -50 -110.5t-70 -139t-74 -142.5t-60.5 -119t-30.5 -68q-23 -57 -43.5 -121t-20.5 -103q0 -41 29 -41q37 0 85 37t99.5 92.5t96.5 111.5t73 95q43 57 94.5 125t97.5 134.5t70 121.5q12 27 22.5 45.5t18.5 30.5 q-6 12 -12 19.5t-12 13.5q-23 10 -23 24q0 16 17.5 28.5t40.5 12.5q18 0 38.5 -10t36.5 -39q18 -27 26.5 -83t8.5 -128q0 -90 -11 -195.5t-32.5 -208t-52.5 -186.5q63 -6 118.5 -28.5t88.5 -65.5q12 -14 12 -26q0 -18 -14 0q-16 20 -57.5 28t-90.5 10t-90 2 q-111 -268 -240.5 -455.5t-263.5 -309.5q-135 -123 -264 -191t-235 -98q-88 -25 -160 -25q-76 0 -125 27.5t-72 77.5q-16 37 -16 79q0 66 36 149t107 173q86 109 226.5 218.5t302.5 201.5q162 90 325.5 153.5t298.5 79.5q37 86 62.5 186.5t39 201t13.5 184.5q0 35 -3 65.5 t-7 57.5l-12 -29l-15 -33q-61 -111 -134 -219.5t-140 -196.5q-61 -78 -152.5 -157.5t-181.5 -122.5q-45 -23 -82 -23q-45 0 -68.5 32t-23.5 83q0 47 22 111q12 31 42 98t59 131q33 78 69.5 164t67.5 166q33 84 69.5 177t60.5 173q21 71 21 115v10l-10 -23l-69 -121 q-20 -35 -40 -67.5t-40 -67.5l-92 -153q-51 -88 -110.5 -178.5t-127.5 -176.5q-68 -88 -143 -155q-78 -68 -164 -110t-180 -42q-92 0 -139.5 52.5t-47.5 138.5zM186 -666q0 -33 13 -59q16 -43 57 -59q18 -9 49 -9q41 0 94.5 18.5t116.5 61.5q162 104 298 226t245 247 t189.5 243t129.5 214q-119 -25 -258 -77t-276 -126q-139 -74 -268.5 -166t-225.5 -192q-70 -76 -108 -148q-55 -102 -56 -174z" />
<glyph unicode="Z" horiz-adv-x="1648" d="M18 121q0 66 51.5 115t149.5 67q23 4 45.5 6t48.5 2q74 0 156 -17.5t158 -45.5q98 98 192 208.5t182 215.5q61 72 141.5 146.5t166.5 145t169 128t150 96.5q-35 4 -63 10q-37 10 -86 23.5t-98.5 28t-84.5 22.5q-59 14 -119.5 23.5t-125.5 9.5q-119 0 -242 -28t-207 -110 q-41 -39 -60.5 -75.5t-19.5 -69.5q0 -39 29 -65.5t78 -26.5q78 0 171 31.5t185 86t164 117.5q4 4 10 4q10 0 18.5 -8t-1.5 -18q-35 -35 -95.5 -75t-129 -78t-133 -67.5t-109.5 -45.5q-45 -14 -82 -21.5t-70 -7.5q-78 0 -119 36t-41 91q0 43 27 94t80 102q55 51 135 87 t168 58.5t170 33t139 10.5q82 0 159 -6t140 -17q57 -8 118.5 -18t88.5 -14q29 -4 66.5 -9.5t72.5 -5.5q37 0 68 7.5t45 25.5q12 -12 12 -31q0 -33 -22 -55q-23 -25 -71 -37t-101 -16q-61 -41 -134 -110.5t-149 -151.5q-41 -47 -97.5 -109.5t-111.5 -124t-98 -106.5 q-98 -102 -189 -199q-90 -98 -180 -182q43 -20 106.5 -52t132 -66t126.5 -60q100 -49 192 -89t158 -59q47 -12 80 -12q82 0 107.5 63.5t25.5 169.5q-2 66 -12.5 133.5t-28.5 120.5q-2 4 2 6q4 0 14 -20q49 -82 86 -151.5t37 -164.5q0 -109 -66.5 -152.5t-164.5 -43.5 q-14 0 -29.5 1t-32.5 3q-80 8 -185 43t-218 82q-63 25 -140 58.5t-150 65.5t-124 54q-94 -72 -195.5 -114t-224.5 -42q-115 0 -163 35t-48 111zM88 90q0 -25 31 -49q28 -27 104 -27q78 0 159 43t165 115q-45 14 -106.5 22.5t-123.5 8.5q-49 0 -101 -15.5t-88 -41t-40 -56.5z " />
<glyph unicode="[" horiz-adv-x="512" d="M-158 -248q4 20 9.5 42t13.5 48q25 80 74 197q47 115 109.5 243t133.5 257q72 129 140 239q68 109 126 185.5t97 101.5q20 12 66 17t73 5q8 0 39 -1t57.5 -6t26.5 -15l-2 -16q-10 -2 -21 -2q-23 0 -43 2t-43 2q-16 0 -35.5 -1t-33.5 -8q-35 -33 -88 -110 q-55 -78 -120 -181.5t-132 -222.5q-70 -121 -129 -235q-61 -117 -108.5 -219.5t-67.5 -171.5q-20 -70 -21 -113q0 -61 53 -61q23 0 45 4q20 2 43 2h2q8 0 19.5 -2t9.5 -17q-6 -12 -27.5 -18t-46 -7t-36.5 -1q-29 0 -75 3t-80 16t-28 44z" />
<glyph unicode="\" horiz-adv-x="774" d="M295 993v11q4 10 19.5 31.5t33 41t25.5 19.5h2q-2 -2 0 -2q61 -166 107 -345.5t73 -342.5q35 -205 35 -351q0 -88 -17 -143q-4 -14 -21.5 -35.5t-31.5 -21.5q-18 0 -10 18l8 25q4 14 6 33.5t2 41.5v27.5t-2 32.5q-8 88 -28.5 197.5t-49.5 230.5q-31 121 -59 227 q-29 106 -54.5 188t-37.5 117z" />
<glyph unicode="]" horiz-adv-x="645" d="M-160 -293l2 19q8 2 19 2q23 0 43 -2q20 -4 43 -5q16 0 34.5 1.5t34.5 7.5q33 33 88 110q55 78 120 181.5t134 224.5q68 119 127 235q59 117 106.5 219.5t67.5 171.5q23 78 23 113q0 61 -53 62q-23 0 -45 -5q-23 -4 -45 -4h-4q-8 0 -17.5 3t-9.5 16q0 14 23.5 19t50 7 t39.5 2q27 0 71.5 -3t80.5 -17t30 -45q-8 -41 -21 -90q-25 -80 -73 -195q-51 -117 -114 -245t-134 -257q-72 -129 -139 -237q-68 -111 -127.5 -188.5t-96.5 -100.5q-20 -12 -66 -17t-73 -5q-6 0 -34.5 1t-56.5 6t-28 15z" />
<glyph unicode="^" horiz-adv-x="653" d="M102 797q0 6 7 18q14 29 34 53q6 8 42 40l81 72t85 71.5t57 38.5q6 -41 29.5 -97.5t51.5 -113t48 -97.5q-16 2 -46 29t-62 63.5t-55.5 71.5t-25.5 53q-4 -4 -38 -36.5t-77 -73.5t-76.5 -72t-39.5 -31q-14 0 -15 11z" />
<glyph unicode="_" horiz-adv-x="933" d="M-29 -66q2 10 13.5 23.5t21.5 13.5h940q10 0 10 -12q-4 -10 -12 -18l-16 -17h-953q-10 0 -4 10z" />
<glyph unicode="`" horiz-adv-x="268" d="M0 1077q0 8 14.5 20.5t42.5 12.5q14 0 27.5 -9t21.5 -20q14 -12 41 -39.5t59 -57.5t56 -54q6 -6 6 -15q0 -18 -14 -14q-4 2 -26.5 14.5t-47 29t-37.5 24.5q-18 12 -52 35.5t-61.5 46t-29.5 26.5z" />
<glyph unicode="a" horiz-adv-x="733" d="M72 266q0 55 24.5 121t55.5 117q53 84 128.5 164t161.5 132t164 52q41 0 80 -13.5t78 -43.5q31 -25 31 -54t-25 -28q-18 0 -27 24q-27 70 -86 70q-53 0 -118.5 -47t-128.5 -113q-72 -72 -127.5 -158t-83.5 -155q-27 -63 -27 -94q0 -39 31 -39q35 0 102 53q45 35 98.5 91 t100.5 111.5t74 86.5q23 35 36 55q8 12 26.5 18.5t39.5 6.5q25 0 41 -9.5t8 -27.5t-35.5 -70.5t-61.5 -118t-63.5 -125t-44.5 -92.5q-28 -61 -28 -92q0 -29 20 -29q14 0 43 17q45 23 90 64.5t86 88.5q23 23 41.5 43.5t34.5 42.5q6 6 10 7q12 0 13 -19q0 -10 -9 -18 q-23 -29 -45 -55.5t-47 -53.5q-23 -27 -46 -52.5t-48 -47.5q-45 -43 -85 -63.5t-71 -20.5q-82 0 -82 106q0 37 13 82q4 14 18 47t32.5 73t35 76t22.5 56q-43 -66 -95 -130t-111.5 -107t-127.5 -43q-63 2 -89.5 34.5t-26.5 79.5z" />
<glyph unicode="b" horiz-adv-x="624" d="M-51 625q0 14 39 8q8 -2 15 -2h15q51 0 111.5 16.5t130.5 42.5q111 201 245 382t288 323q53 53 122.5 82.5t126.5 29.5q45 0 77 -21.5t36 -68.5q2 -8 2 -26q0 -45 -22 -97q-31 -63 -86.5 -128.5t-130.5 -131.5q-39 -33 -79 -64.5t-83 -60.5q-88 -59 -181.5 -111.5 t-181.5 -90.5q-43 -78 -80 -156t-65 -150q-25 -57 -51.5 -124.5t-40.5 -102.5q-18 -43 -31.5 -98.5t-13.5 -102.5q0 -41 14 -69.5t51 -28.5q33 0 68 29.5t67.5 75t59.5 90.5t50 99t39.5 105.5t18.5 83.5l2 27q-55 16 -55 94q0 47 18.5 82t44.5 35q33 0 44.5 -30.5 t11.5 -76.5q0 -51 -10 -108q10 -6 43.5 -11t54.5 -5q72 0 122 45t95 104q6 6 10 6q12 0 12 -22q0 -8 -4 -21q-47 -70 -104 -111.5t-133 -41.5q-45 0 -99 18l-12 -43l-12 -39q-18 -49 -53 -119.5t-81 -141.5t-100.5 -118t-109.5 -47q-84 0 -117 50t-33 122q0 66 18.5 138.5 t39.5 131.5q27 76 72.5 176.5t93.5 190.5q-59 -20 -114.5 -31.5t-96.5 -11.5q-29 0 -47 6q-31 6 -31 19zM403 752q141 74 280.5 159.5t250 193t166.5 241.5q12 31 12 53q0 57 -59 57q-41 0 -101 -35q-45 -27 -116.5 -100.5t-152.5 -173.5t-155 -204.5t-125 -190.5z" />
<glyph unicode="c" horiz-adv-x="612" d="M43 127q0 59 15.5 130t39 136.5t45.5 110.5q41 84 98.5 171t123 158.5t136 115.5t138.5 44q59 0 89 -42t30 -97q0 -59 -33 -106q-68 -98 -98 -99q-10 0 -11 15q0 14 17 57q8 18 20.5 54t21.5 74q7 31 7 55v11q-6 2 -18 3q-43 0 -93.5 -35t-101.5 -90.5t-94 -116 t-72 -111.5q-23 -41 -49.5 -99t-50 -122.5t-35.5 -118.5q-8 -29 -12 -57.5t-4 -54.5q0 -45 17 -76t60 -31q72 0 140.5 33t130 84t112.5 104q43 43 76 88q6 6 10 7q12 0 13 -19q0 -10 -9 -18l-90 -107q-43 -51 -110.5 -107.5t-145 -94t-151.5 -37.5q-88 0 -125 53t-37 135z " />
<glyph unicode="d" horiz-adv-x="841" d="M12 104q0 31 13.5 78t32 92t34.5 70q51 84 128 164t162 132t165 52q51 0 104 -24q47 98 95.5 186t89.5 154q68 115 124 176t110 87.5t114 35.5q-137 -174 -245 -343t-208 -364q4 -12 4 -18q0 -14 -9 -22.5t-19 -8.5q-23 -41 -56 -110.5t-69.5 -152.5t-71.5 -169t-57 -162 q-31 -94 -31 -133q0 -20 12 -21q27 0 94 74l97 103l65 71l152 176q20 23 40.5 47.5t39.5 47.5q6 6 12 6q12 0 12 -15q0 -8 -10 -22q-20 -29 -46 -59.5t-48 -57.5q-6 -6 -34 -41l-68 -85t-81 -103.5t-75.5 -99.5t-53.5 -70q-27 -35 -61.5 -54.5t-67.5 -19.5q-37 0 -62.5 24.5 t-25.5 75.5q0 76 53.5 212.5t127.5 305.5q-41 -68 -99.5 -144.5t-126 -129.5t-139.5 -53q-63 0 -90 31.5t-27 80.5zM113 80q-1 -39 30 -39q35 0 103 53q43 33 97 90.5t103.5 113.5t71.5 87q25 59 54.5 122.5t62.5 129.5q-16 8 -37 8q-55 0 -123.5 -49t-124.5 -109 q-72 -74 -128 -158.5t-85 -154.5q-25 -57 -24 -94z" />
<glyph unicode="e" horiz-adv-x="747" d="M-20 -47q0 20 1 40.5t3 43.5q12 100 62 219t155 254q70 90 151.5 135t157.5 45q53 0 94 -20q49 -27 49 -97q0 -51 -36.5 -113.5t-124.5 -119.5q-117 -74 -195 -98.5t-125 -26.5q-16 -23 -32.5 -71t-28 -100t-15.5 -93q0 -8 -1 -17.5t-1 -19.5q0 -61 21.5 -105.5 t77.5 -44.5q49 0 110.5 36t121.5 86.5t106.5 96.5t64.5 68l152 176l81 95q6 6 11 6q12 0 12 -17q0 -6 -10 -20q-20 -29 -46 -59.5t-48 -57.5q-29 -33 -71 -84t-88 -106.5t-89 -96.5q-78 -76 -167.5 -129t-187.5 -53q-80 0 -122.5 64.5t-42.5 183.5zM190 248q29 2 72 22.5 t90 49t87 58.5t65 50q47 37 69.5 82t22.5 78q0 23 -11.5 39t-33.5 16q-43 0 -93 -42t-100.5 -106.5t-94.5 -131t-73 -115.5z" />
<glyph unicode="f" horiz-adv-x="526" d="M-147 -563q0 41 7 89t19 97q27 115 69 227.5t91 223.5q27 59 64.5 140t76.5 162t68 140h-39q-23 0 -23 12q0 8 11.5 15.5t31.5 7.5h31q25 53 75 144t111.5 200t123 212t110.5 183q33 57 82 108.5t102 79.5q42 23 79 23q10 0 20 -2q-49 -72 -126 -185.5t-159 -244.5 t-161 -266t-134 -252h250q10 0 10 -10q0 -8 -7 -16.5t-18 -8.5h-253l-37 -76q14 -41 19 -97t5 -118q0 -94 -10 -189t-23 -159q-20 -109 -53 -214t-77 -190t-102 -136.5t-132 -51.5q-57 0 -79.5 43t-22.5 109zM-66 -608q0 -31 10.5 -50.5t30.5 -21.5q37 0 75 43t71 105.5 t58.5 124t39.5 98.5q23 63 43.5 156.5t33.5 198t13 198.5q0 37 -2 71.5t-8 63.5q-39 -80 -88 -189q-49 -111 -98.5 -228.5t-89.5 -229.5q-43 -115 -66 -205q-10 -39 -16.5 -73t-6.5 -62z" />
<glyph unicode="g" horiz-adv-x="817" d="M-342 -803q0 98 66.5 213t191.5 232q70 66 163 137t190.5 134.5t172.5 106.5q59 131 114.5 263.5t96.5 253.5q-37 -68 -89 -156t-113.5 -172t-130 -138.5t-138.5 -54.5q-76 0 -106.5 47.5t-30.5 116.5q0 74 24.5 158t53.5 147q39 86 98.5 169t129 151.5t141 109.5 t139.5 41q53 0 106.5 -24.5t90 -88t36.5 -177.5q0 -35 -8 -54.5t-16 -19.5q-14 0 -15 55q0 51 -16 104.5t-49 89.5t-82 38h-13q-51 0 -103 -28q-58 -32 -109.5 -85t-92.5 -113q-45 -66 -81 -133q-37 -68 -64 -129t-39 -104q-22 -69 -22 -115q0 -90 55 -90q45 0 110 65 q37 39 82 92.5t89.5 110t80 104.5t56.5 74q6 12 22 33q14 18 31 70q12 43 35 43t22 -39q-4 -35 -20.5 -97.5t-41 -141.5t-51 -158.5t-51.5 -147.5q39 20 70 33l51 20q4 0 5 1t3 1q23 0 23 -20q0 -12 -14 -14q-25 -10 -66 -27.5t-92 -46.5q-53 -147 -116.5 -288.5 t-125.5 -246.5q-111 -188 -203 -290.5t-167 -143.5q-59 -33 -125 -33q-63 0 -110.5 40t-47.5 122zM-297 -801q0 -55 29.5 -86t70.5 -31q43 0 84 29q47 33 101.5 96.5t108 144.5t100.5 163t79 149l138 293q-74 -47 -154 -102.5t-158 -118.5q-68 -57 -138 -126t-129.5 -141.5 t-95.5 -142t-36 -127.5z" />
<glyph unicode="h" horiz-adv-x="811" d="M-23 68q0 14 7 28q20 57 59 150.5t84 200t89 205t75 165.5q-43 -12 -78 -20.5t-61 -8.5q-16 0 -23 3q-23 6 -23 12t27 8q31 0 76 11.5t98 29.5q33 72 78 162t102.5 182t124.5 180q68 88 148 156t170 109.5t190 41.5q53 0 84 -33.5t31 -95.5q0 -57 -37 -120 q-37 -66 -100.5 -130.5t-145.5 -127.5q-84 -63 -174 -121q-90 -57 -184 -106.5t-178 -84.5q-70 -139 -133.5 -281.5t-114.5 -271.5q14 20 51 63.5t82 92.5t82 86q41 39 93 81t102.5 69.5t89.5 27.5q41 0 58 -16.5t17 -44.5q0 -43 -27.5 -100.5t-56.5 -106.5q-14 -27 -50 -82 t-74.5 -114.5t-61.5 -96.5q-31 -45 -64.5 -102.5t-59 -109.5t-30.5 -81q-2 -12 -3 -21.5t-1 -19.5q0 -49 37 -49q18 0 37 8q20 6 58 38t79 74t78 82t55 62l152 176q10 12 21.5 23.5t21.5 23.5q18 25 39 48q6 6 12 6q12 0 13 -15q0 -8 -11 -22q-23 -29 -48 -59.5t-48 -57.5 q-16 -20 -50 -63t-73 -92.5t-74 -88.5q-41 -45 -92 -94t-102 -82t-92 -33q-59 0 -82 32t-23 91q0 66 35 149t82 164t86 142q8 12 28.5 46t47 77t49 81t33.5 60q28 55 28 82q0 18 -12 19q-31 0 -127 -84q-37 -35 -92 -92.5t-115.5 -126t-113 -142.5t-82.5 -141 q-12 -27 -27.5 -38t-30.5 -11q-35 0 -35 39zM440 909q80 37 166 86q84 47 166 101.5t156 113.5q72 57 127 119q57 61 88 119.5t31 114.5q0 18 -8.5 36.5t-49.5 18.5q-63 0 -128.5 -34t-128 -88t-116 -114.5t-92.5 -113.5q-102 -140 -211 -359z" />
<glyph unicode="i" horiz-adv-x="415" d="M41 133q0 29 6 66q8 43 31.5 103t53.5 120.5t54 103.5q20 33 47 78t51.5 84t30.5 51q12 27 49 42.5t66 15.5q33 0 33 -19q0 -12 -8 -22q-39 -63 -91.5 -147.5t-101.5 -172.5t-82 -168t-33 -137q0 -31 11.5 -49.5t42.5 -18.5q33 0 74.5 32t81.5 72t61 62l41 43 q10 10 18 21.5t17 21.5q6 6 10 7q12 0 12 -19q0 -10 -8 -18q-23 -29 -45.5 -55.5t-46.5 -53.5q-51 -61 -119 -118.5t-150 -57.5q-106 0 -106 133zM426 946q0 31 22.5 52.5t49.5 21.5t42 -18.5t11 -45.5q-6 -27 -25.5 -44t-46.5 -17q-53 0 -53 51z" />
<glyph unicode="j" horiz-adv-x="395" d="M-717 -803q2 98 68.5 213t189.5 232q70 66 163 137t190.5 134.5t173.5 106.5q72 158 137 317t102 294q4 23 14.5 33t18.5 10q20 0 14 -37q-6 -53 -29.5 -145.5t-57.5 -198t-68 -203.5q39 20 69 33l51 20q4 0 6.5 1t4.5 1q20 0 20 -18q0 -14 -14 -16q-25 -10 -65 -27.5 t-91 -46.5q-55 -147 -118.5 -288.5t-124.5 -246.5q-111 -188 -202 -290.5t-169 -143.5q-66 -33 -125 -33q-63 0 -110.5 39t-47.5 123zM-670 -801q0 -55 29 -86t70 -31q43 0 84 29q47 33 101 96.5t108.5 144.5t101.5 163t78 149q33 66 68.5 140.5t70.5 152.5 q-74 -47 -155 -102.5t-158 -118.5q-70 -57 -139.5 -127t-128 -141.5t-94.5 -140t-36 -128.5zM315 862q0 31 22.5 51.5t49.5 20.5q51 0 51 -51q0 -29 -21 -51.5t-50 -22.5q-25 0 -38.5 15.5t-13.5 37.5z" />
<glyph unicode="k" horiz-adv-x="684" d="M-18 45q0 12 6 27q14 37 34.5 87t40 99t35.5 82q27 63 59.5 133t75.5 156q47 92 113 208.5t140.5 234.5t150.5 217.5t145 158.5q66 57 116 69.5t87 16.5q-63 -68 -123.5 -135.5t-122.5 -151.5q-98 -133 -192 -275.5t-166 -289.5q-49 -111 -106.5 -217.5t-94.5 -206.5 q41 49 94.5 115.5t112.5 131t119.5 112t116.5 59.5q14 4 26.5 4h22.5q53 0 75.5 -22.5t22.5 -57.5q0 -57 -51 -125q-35 -43 -95.5 -79t-126 -57.5t-116.5 -23.5q-2 -16 -3 -37.5t-1 -44.5q0 -63 13 -119.5t56 -56.5q10 0 25.5 4.5t36.5 14.5q45 23 90 64.5t86 88.5 q23 23 41 43.5t35 42.5q4 6 8 7q12 0 12 -19q0 -10 -8 -18l-90 -109q-20 -27 -44 -52.5t-50 -47.5q-86 -82 -164 -82q-74 0 -113 55t-39 125q0 12 1 24.5t3 24.5q10 43 45 81t56 38q0 2 8 2q51 0 106.5 27.5t100.5 66.5t65 74q12 23 13 37q0 27 -35 26q-12 0 -25.5 -4 t-29.5 -8q-47 -16 -106.5 -54t-113.5 -97q-35 -37 -87 -101.5t-104 -136.5t-87 -129q-10 -18 -26.5 -27.5t-32.5 -9.5t-28.5 9.5t-12.5 27.5z" />
<glyph unicode="l" horiz-adv-x="616" d="M-63 -225q0 39 8 80q35 193 108.5 405.5t184.5 421.5q-129 -43 -213 -43q-39 0 -57.5 7t-18.5 16q0 12 39 10q8 -2 15 -2h15q49 0 110.5 15t131.5 42q111 203 245 384t288 323q53 47 109 74.5t104 27.5q41 0 69.5 -22.5t38.5 -75.5q2 -8 3 -18.5t1 -20.5q0 -39 -16 -84 q-51 -129 -207 -260q-76 -66 -162 -123t-180 -108.5t-182 -88.5q-68 -117 -125.5 -237.5t-98.5 -237.5q-43 -119 -67.5 -228.5t-26.5 -205.5q0 -90 45 -90q27 0 68 20q63 37 108 76t93 92q23 27 64.5 79t90.5 112.5t94 111.5q41 49 82 95q6 6 11 6q12 0 12 -17q0 -10 -8 -20 q-23 -29 -48.5 -59.5t-48.5 -57.5q-12 -12 -44.5 -52t-77.5 -94.5t-92.5 -110.5t-87.5 -103t-64 -72q-45 -43 -97 -72.5t-120 -29.5q-39 0 -67.5 32.5t-28.5 102.5zM403 791q100 49 205 117.5t199 147.5t161.5 160.5t94.5 159.5q8 25 8 49q0 63 -51 64q-33 0 -68 -29 q-137 -109 -280.5 -284.5t-268.5 -384.5z" />
<glyph unicode="m" horiz-adv-x="1185" d="M-37 49q57 109 92 197t67 174t85 190q16 31 60 58.5t75 27.5q33 0 33 -20q0 -16 -21 -49q-25 -39 -61.5 -106.5t-73.5 -140.5t-63 -128l53 78q37 53 85 119.5t105 138.5q57 70 115 125q56 55 108 88q43 27 78 27q8 0 15 -1q45 -8 61.5 -32.5t16.5 -59.5q0 -23 -26 -67.5 t-62.5 -98t-71.5 -102.5t-53 -80q-14 -25 -44 -71t-56.5 -89t-33.5 -55q-4 -10 0.5 -12t12.5 10q20 33 57 85t81 108.5t85 103.5q35 41 80 83t90 70.5t80 28.5q43 0 57.5 -21.5t14.5 -49.5q0 -25 -25 -78.5t-66 -124.5q-14 -27 -43.5 -84.5t-61.5 -123t-54 -114.5 q-27 -55 -54.5 -122.5t-48 -129t-24.5 -98.5v-6q0 -14 16 -14q0 -2 2 -2q16 0 43 16q23 12 71 59t103.5 106.5t103.5 112t68 76.5l96 113q39 47 56 63l82 95q6 6 10 6q12 0 12 -17q0 -10 -8 -20q-23 -29 -48.5 -59.5t-47.5 -57.5q-2 -2 -33 -41t-78 -96t-94 -115.5 t-82 -101.5t-41 -51q-41 -47 -99 -88t-126 -41q-43 0 -70.5 39.5t-27.5 95.5q0 14 3 28.5t5 28.5q10 41 31.5 99.5t51 124t59.5 125t56 102.5q10 14 33 52t47.5 82t42.5 77q37 66 37 92q0 13 -10 13q-17 0 -62 -38q-51 -45 -115.5 -114.5t-128 -149.5t-114.5 -156 q-10 -18 -29.5 -36.5t-52.5 -18.5q-12 0 -28.5 7t-16.5 38q0 39 33 101.5t81 136t96 149.5t79 141q16 35 23.5 57.5t7.5 35.5q0 14 -11 14q-25 0 -84 -53q-41 -37 -90 -90q-51 -55 -102 -120t-101 -132q-49 -70 -92 -133q-45 -66 -79.5 -121.5t-53.5 -91.5q-14 -31 -49 -31 q-16 0 -29.5 14.5t-9.5 40.5z" />
<glyph unicode="n" horiz-adv-x="753" d="M6 154q0 14 6 32q72 137 136.5 293t127.5 283q18 35 61.5 60.5t76.5 25.5q31 0 30 -23q0 -12 -18 -47q-23 -35 -55.5 -90t-67.5 -116.5t-64.5 -117t-43.5 -89.5q23 31 62.5 92t109.5 143l65 78q66 78 121 106.5t102 28.5q37 0 63.5 -18.5t26.5 -63.5q0 -53 -22.5 -105.5 t-36.5 -82.5q-14 -33 -41 -90.5t-53.5 -123t-45 -122.5t-18.5 -88q0 -27 17 -27q20 0 54 21.5t67.5 48t52.5 43.5q68 61 137 143q10 12 16 12t7 -12q0 -6 -5.5 -16t-11.5 -23q-12 -20 -38.5 -54t-55.5 -65q-43 -47 -95 -90t-116 -77q-16 -8 -29.5 -13.5t-21.5 -7.5t-16.5 -3 t-16.5 -1q-35 0 -49 26.5t-14 63.5q0 66 35.5 150t82.5 172t83 166.5t36 134.5q0 27 -9 43t-28 16q-25 0 -59 -27q-39 -27 -88 -88l-76 -94q-59 -74 -119.5 -156.5t-108.5 -154.5t-71 -115q-18 -33 -43 -33q-14 0 -26.5 14.5t-12.5 37.5z" />
<glyph unicode="o" horiz-adv-x="681" d="M57 203q0 74 25 145q25 70 66.5 133.5t95.5 118.5q70 72 159 125t162 53q57 0 89 -27.5t32 -66.5q0 -25 -16 -53q53 -6 104 -6q39 0 78 4t78 12h8q16 0 16 -8t-18 -15q-20 -8 -67.5 -16t-98.5 -13t-92 -5h-24.5t-18.5 2l-21 -11q25 -35 25 -96q0 -82 -40 -167 t-104.5 -157.5t-137 -117.5t-138.5 -45q-70 0 -116 59.5t-46 151.5zM164 168q0 -51 17.5 -89t56.5 -38q55 0 108 40t97 104.5t74 139t40 144.5q2 12 2 23.5v21.5q0 18 -2 33.5t-8 23.5q-4 0 -6 2q-25 4 -36 12.5t-26 18.5q-8 10 -8 25q0 14 11.5 22t25.5 4q51 -10 111 -18 q20 35 20 63q0 49 -74 50q-45 0 -93 -34t-95 -88.5t-90 -119t-74 -125.5q-20 -41 -35.5 -100.5t-15.5 -114.5z" />
<glyph unicode="p" horiz-adv-x="622" d="M-336 -725q0 18 2 38.5t6 41.5q23 96 68 219q43 123 100.5 258t124.5 277q66 139 131 270q66 129 126.5 241.5t107.5 192.5q72 121 131 181.5t115.5 86t119.5 39.5q-59 -59 -127 -149q-137 -186 -278 -432q-70 -123 -133 -244q-66 -121 -122 -235.5t-97 -209.5l-15 -38 l-18 -54q41 90 93 192.5t109.5 203t112.5 187.5t98 146q66 86 132.5 141.5t113.5 55.5q57 0 80 -34t23 -83q0 -74 -30 -157.5t-82 -165.5t-121.5 -149.5t-148.5 -108.5t-163 -41q-43 0 -60 35q-61 -115 -124.5 -251.5t-139.5 -308.5q-20 -76 -38.5 -145.5t-30.5 -122.5 q-7 -20 -17 -20q-14 0 -31.5 41t-17.5 102zM76 4q12 -22 47 -22q68 0 138.5 56t133 142t99.5 176q12 29 25 71t23.5 85t10.5 72q0 39 -21 39q-35 0 -78.5 -44t-91.5 -110q-74 -104 -143 -215t-143 -250z" />
<glyph unicode="q" horiz-adv-x="751" d="M59 215q0 57 26 122.5t56 117.5q51 84 128 163.5t162 132t165 52.5q39 0 81 -12.5t77 -40.5q45 76 76.5 98t68.5 22q31 0 70 -6q-41 -51 -74 -99t-66.5 -103.5t-80.5 -131.5q-8 -14 -37 -73.5t-60 -120.5q-39 -82 -87 -185.5t-97 -213.5h4q45 -47 64 -130q8 -33 11 -67.5 t3 -71.5q0 -57 -8.5 -116.5t-24.5 -118.5q-27 -98 -70 -178q-45 -80 -102 -129.5t-127 -49.5q-57 0 -79.5 43t-22.5 109q0 41 7 89t19 97q27 117 86.5 259.5t128.5 287.5q37 80 86.5 177.5t94.5 188.5t73 152q-49 -59 -102 -125.5t-108.5 -124t-111 -93.5t-110.5 -36 q-66 2 -92.5 35t-26.5 80zM193 150q37 0 102 53q129 104 238.5 229t191.5 273q-25 53 -74 53q-53 0 -122.5 -48t-129.5 -112q-72 -74 -128 -159t-85 -154q-24 -55 -24 -92q0 -43 31 -43zM203 -829q0 -60 35 -60q43 0 84 51q41 49 73.5 127t57.5 172t34 185q2 29 4.5 56.5 t2.5 51.5q0 53 -8.5 95t-26.5 65q-63 -143 -121.5 -286.5t-93.5 -258.5q-16 -57 -28.5 -109.5t-12.5 -88.5z" />
<glyph unicode="r" horiz-adv-x="782" d="M-23.5 184.5q-5.5 10.5 3.5 18.5q80 90 154.5 185t135.5 200l25 41l24 43q-16 10 -30.5 37.5t-14.5 52.5q0 35 29 41h2q20 0 41 -25q19 -28 19 -97v-7q49 -37 96 -49.5t76.5 -29.5t29.5 -67q0 -8 -1 -18t-3 -21q-10 -49 -52 -120.5t-93 -146.5t-88 -130q-37 -59 -78 -130 q-40 -70 -66 -134q-19 -48 -20 -81q0 -10 2 -19q6 -20 29 -21q33 0 79 27q63 37 116.5 79t111.5 99q31 31 79 85t101 116.5t98 113.5q18 25 41 49l41 46q6 6 10 6q12 0 13 -17q0 -6 -10 -20q-20 -29 -46 -59.5t-49 -57.5q-53 -61 -117.5 -138t-129 -150.5t-123.5 -127.5 q-47 -41 -98 -71.5t-119 -30.5q-63 0 -91 31.5t-28 83.5q0 33 12 77q16 70 56 151t71 128q25 37 49.5 76t50.5 80l101 159q28 44 28 87q0 52 -38 79l-29 19q-16 10 -25 18l-28 -47l-29 -45q-43 -59 -98.5 -131t-106.5 -137.5t-86 -104.5q-6 -6 -12 -6q-10 0 -15.5 10.5z" />
<glyph unicode="s" horiz-adv-x="524" d="M-295 -221q0 29 21.5 60.5t66.5 58.5q86 51 194.5 72.5t219.5 56.5l39 82q25 53 49 138t42.5 175t24.5 151q-59 -59 -113 -117.5t-113.5 -126t-135.5 -155.5q-12 -14 -18 -14t-7 10q0 25 25 55l147 176q35 41 76 84t84 88l51 54q6 35 18.5 73.5t36 65.5t62.5 27 q41 0 55.5 -22.5t8.5 -45.5q-16 -6 -57.5 -42t-80.5 -71q2 -18 2 -39.5v-46.5q0 -49 -3 -109.5t-13 -133.5q-16 -109 -45 -201q51 27 98 60.5t95 82.5q16 18 32.5 37t32.5 39q4 4 8 4q6 0 11.5 -10t-1.5 -19q-37 -51 -83 -98q-43 -43 -96.5 -79t-112.5 -66 q-59 -152 -170 -249.5t-285 -109.5h-17q-64 0 -104 28q-45 32 -45 77zM-246 -229q0 -50 72 -50q23 0 49 7q72 16 149.5 72.5t151.5 174.5q-90 -27 -178 -47q-90 -20 -176 -69q-68 -39 -68 -88z" />
<glyph unicode="t" horiz-adv-x="698" d="M-29 -225q0 39 9 80q4 20 16 79.5t29 120.5q18 76 51 173.5t80 205.5q35 86 71.5 162t73.5 147h-283q-23 0 -22 11q0 23 45 22h278q51 92 106.5 174t123.5 154q35 41 64.5 57.5t61.5 23.5t70 15q-94 -115 -164.5 -216t-131.5 -208h303q25 0 24 -12q0 -6 -11 -13.5 t-34 -7.5h-301q-49 -86 -94 -181t-96 -208q-43 -94 -77 -201.5t-54.5 -197.5t-20.5 -129q0 -94 51 -94q25 0 62 24q80 49 143.5 101.5t120.5 109.5q31 29 73 74t85 92t75 84l35 39q6 6 10 6q12 0 13 -16q0 -10 -8 -21q-10 -16 -23 -30q-14 -14 -27 -31 q-88 -109 -194.5 -219.5t-218.5 -202.5q-47 -37 -98 -69.5t-119 -32.5q-39 0 -68 32.5t-29 102.5z" />
<glyph unicode="u" horiz-adv-x="710" d="M33 195q0 33 5 64.5t13 55.5q37 104 96.5 220t130 222.5t144.5 184.5q49 49 74 49q12 0 12 -14t-13.5 -41t-41.5 -62q-23 -27 -62 -97t-84 -159.5t-85 -177.5t-66 -153q-16 -39 -23.5 -70t-7.5 -51q0 -49 33 -49q43 0 110 80q16 20 47 62t67 92t68.5 97.5t53.5 77.5 l47 86q10 20 42 33.5t58 13.5q18 0 19 -18q0 -23 -9.5 -46.5t-25.5 -49.5q-31 -49 -59.5 -117t-50 -131.5t-27.5 -99.5q-8 -35 -9 -70q0 -8 1.5 -16.5t3.5 -14.5q4 -27 20 -26q8 0 21 6q45 23 90 64.5t86 88.5q20 23 38.5 43.5t34.5 42.5q6 6 11 7q12 0 12 -17q0 -12 -8 -20 l-90 -109q-23 -27 -47.5 -52.5t-47.5 -47.5q-41 -39 -85.5 -60.5t-79.5 -21.5q-41 0 -59.5 26.5t-18.5 71.5q0 53 21.5 128t51.5 153q-29 -45 -67.5 -98.5t-81.5 -100.5t-85 -77.5t-77 -30.5q-57 0 -78.5 38.5t-21.5 90.5z" />
<glyph unicode="v" horiz-adv-x="698" d="M-18 -53q0 70 28.5 162t75.5 190t105.5 186t115.5 148q18 18 43 26.5t47 8.5q20 0 33.5 -6.5t13.5 -20.5t-18 -33q-16 -16 -46 -58t-65.5 -95.5t-68.5 -107.5t-56 -95q-29 -53 -59.5 -122t-50 -131t-19.5 -103q0 -45 29 -46q66 0 135 54q51 41 107.5 118.5t110 176 t96.5 205t67.5 206t24.5 174.5q0 47 -2 85t-13 73q10 6 21 6q35 0 65.5 -52t30.5 -114q0 -131 -46 -269t-116 -263q-72 -127 -156.5 -227.5t-164.5 -155.5q-35 -23 -75 -37t-83 -14q-57 0 -83.5 35.5t-26.5 95.5z" />
<glyph unicode="w" horiz-adv-x="882" d="M20 125q0 33 6.5 65.5t14.5 59.5q33 90 76 175t90 173q16 33 60 57.5t77 24.5t33 -21q0 -16 -21 -45q-12 -20 -37.5 -62t-56.5 -95.5t-58.5 -107.5t-45.5 -95q-20 -45 -29.5 -81t-9.5 -62q0 -55 37 -56q18 0 43.5 17.5t52.5 56.5q10 12 32.5 43t47 67.5t47 70.5t33.5 50 q12 33 32.5 78t41 84t30.5 53q27 33 64 33q18 0 31.5 -10t13.5 -29q0 -16 -15 -37q-39 -66 -75.5 -144.5t-77.5 -188.5q-12 -35 -31.5 -88.5t-37.5 -110.5q-18 -58 -28 -104q-8 -34 -7 -53q0 -8 1 -13q10 -29 43 -25q33 0 74 48q39 47 81 118.5t85 159.5q41 88 78 172 q31 68 61.5 144.5t46.5 111.5q51 117 110.5 220.5t122 168t118.5 64.5q49 0 83 -49q41 -57 55.5 -116t33.5 -134v-11q0 -25 -13 -24q-12 0 -20 24q-16 57 -53 108.5t-60 68.5q-39 39 -74 39q-43 0 -80.5 -50.5t-68.5 -126t-55 -151.5q-16 -51 -48 -133q-33 -84 -73.5 -177.5 t-89.5 -187.5q-51 -94 -105 -170q-53 -76 -109.5 -124t-109.5 -48q-25 0 -47.5 13.5t-36.5 52.5q-12 31 -12 71q0 53 16.5 114.5t35.5 120t26 103.5q-35 -51 -77 -103t-86 -87t-85 -35q-57 0 -79 38t-22 87z" />
<glyph unicode="x" horiz-adv-x="444" d="M-234 -57.5q5 18.5 29 47.5q72 84 146.5 174t148.5 182q8 47 25.5 109.5t42 120t53.5 86.5q-33 -10 -79 -39t-81 -29q-43 0 -67.5 35t-24.5 57q0 16 12 16q8 0 19 -8q20 -12 53 -17t72 -5q47 0 91 5t66 9q6 2 11.5 2h7.5q18 0 18 -14q0 -6 -4 -15.5t-10 -21.5 q-16 -25 -30.5 -54.5t-24.5 -58.5q-20 -55 -29 -112q41 39 94 96q51 57 105.5 122.5t107.5 133.5t96 129q43 59 73 104t38 66q14 33 23 33q8 0 8 -23q0 -16 -6.5 -42.5t-22.5 -57.5q-102 -193 -243.5 -341.5t-280.5 -273.5q-6 -31 -8 -58.5t-2 -55.5q0 -176 53 -176 q41 0 127 86q18 16 37.5 35.5t35.5 39.5q20 23 39 43.5t35 42.5q6 6 10 7q12 0 13 -19q0 -10 -8 -18l-46 -56l-45 -53l-47 -51l-47 -49q-90 -88 -155 -88q-111 0 -111 244v26l-47 -49l-37 -39q-51 -57 -96 -111l-90 -104q-31 -31 -43 -31q-10 0 -5 18.5z" />
<glyph unicode="y" horiz-adv-x="690" d="M-219 -541q0 88 54 169t139 150.5t182.5 125t185.5 92.5q31 63 73 161.5t86 206t76.5 206t43.5 161.5q-29 -61 -75 -141t-100.5 -156t-108.5 -125t-101 -49q-66 0 -90.5 41t-24.5 98q0 78 30.5 165t74.5 169t83 144q-31 -8 -67 -9q-53 0 -101.5 20.5t-72.5 59.5 q-16 29 -17 39q-2 4 2 4l15 -10q33 -35 82 -57.5t110 -22.5q16 0 35.5 2t38.5 6q16 25 43 70q25 43 61 76q16 16 31 16q12 0 19.5 -13.5t7.5 -33.5q0 -35 -20.5 -81t-67.5 -75q-66 -94 -115 -200.5t-72 -233.5q-6 -31 -6 -53q0 -68 43 -68q49 0 117 80q23 27 65.5 92.5 t92 146.5t88 160.5t53.5 137.5q4 25 19.5 36t31.5 11t28.5 -8t12.5 -23q0 -49 -12 -117q-14 -70 -37 -149.5t-51 -165.5q-29 -86 -60 -166q-31 -82 -61.5 -152.5t-52.5 -121.5q57 33 109 71.5t91 83.5q23 23 41.5 43.5t34.5 42.5q6 6 10 7q12 0 13 -19q0 -10 -9 -18 q-45 -59 -92 -109q-43 -49 -103.5 -91t-125.5 -75q-47 -98 -107.5 -210.5t-134.5 -214t-162 -166t-192 -64.5q-33 0 -58.5 25.5t-25.5 78.5zM-166 -539q0 -59 37 -59q23 0 51.5 18.5t63.5 49.5q29 27 65.5 65.5t67.5 74.5t41 52q35 53 74.5 125t80.5 158 q-82 -37 -165.5 -90.5t-155.5 -118t-116 -134t-44 -141.5z" />
<glyph unicode="z" horiz-adv-x="663" d="M-483 -594q8 78 63 146.5t130 123t138 88.5q98 53 215 101q115 45 232 102q31 86 31 152q0 45 -17.5 70.5t-58.5 25.5q-20 0 -55 -10q-10 -4 -18.5 -2t-0.5 12q55 47 115 104q59 55 125 115q53 47 95 89l85 85q-6 0 -42 1t-71 1q-98 0 -160.5 -46t-113.5 -111 q-25 -33 -54.5 -77t-61.5 -87t-60 -72q-8 -8 -17 -8q-8 0 -12 8t4 19q57 68 100.5 148.5t86.5 152t95 115.5q46 39 110 39q9 0 18 -1q53 -4 100 -7t86 -3q41 0 77 3t67 5l-297 -272l-107 -97l-78 -71q10 2 20.5 2h18.5q66 0 105 -33t39 -100q0 -16 -3.5 -35t-7.5 -39l56 37 q55 37 104 79t74 70q23 23 41 43.5t35 42.5q4 6 8 7q12 0 12 -19q0 -10 -8 -18q-23 -29 -44.5 -55.5t-45.5 -53.5q-12 -16 -59.5 -57t-102.5 -78q-41 -29 -84 -51q-27 -82 -69 -170t-107 -174q-129 -168 -286.5 -270.5t-319.5 -104.5q-72 0 -100 41q-25 36 -25 81v13z M-436 -610q0 -27 19.5 -49.5t58.5 -22.5q86 0 181 58.5t184 149.5t157 185q70 98 115 207q-111 -49 -224 -96q-115 -47 -207 -101q-55 -33 -121.5 -85t-114.5 -114.5t-48 -131.5z" />
<glyph unicode="{" horiz-adv-x="694" d="M49 -88q0 12 2 27.5t8 33.5q27 88 76 179q47 88 74 176q6 23 6 39q0 35 -21.5 52t-50.5 17l-16 -2l6 25q92 27 143.5 75t100.5 152q16 35 37.5 85t43 98.5t42.5 82.5q35 59 87 105.5t136 68.5q8 0 35.5 4.5t36.5 6.5h4q16 0 12 -13q-2 -4 -8 -10t-17 -6 q-84 -16 -131 -77.5t-81.5 -148.5t-84.5 -182q-23 -43 -72.5 -93t-105 -91t-96.5 -57q39 0 73 -26.5t34 -67.5q0 -6 -1.5 -12.5t-3.5 -12.5q-29 -92 -73 -178q-47 -88 -74 -178q-16 -51 -24.5 -83t-10.5 -48h-16q-31 0 -50.5 12t-19.5 47zM133 -160q0 4 2 13q6 0 15 2 q16 29 44.5 91t61.5 136t62.5 139.5t49 100t19.5 18.5q0 -18 -30.5 -122.5t-108.5 -336.5q-6 -14 -39 -19t-59 -7q-17 -29 -17 -15z" />
<glyph unicode="|" horiz-adv-x="430" d="M14 -27q6 51 37 171t84 278q51 158 122 338t157 354l6 6q8 0 31.5 -23.5t27.5 -45.5q0 -6 -2 -11q-16 -35 -51 -116q-35 -84 -79 -191.5t-91 -226.5l-88 -225q-43 -109 -75 -192t-44 -120q-12 -30 -24 -30q-16 0 -11 34z" />
<glyph unicode="}" horiz-adv-x="645" d="M-39 -141q0 14 25 20q86 16 132 75.5t80.5 146.5t84.5 186q25 45 72.5 94t102 90t97.5 57q-37 0 -70.5 28t-33.5 67q0 6 1 12t3 12q29 92 73 180q45 86 72 177q27 86 27 102t-17.5 -10.5t-43 -73.5t-52.5 -92t-44 -68.5t-17 -3.5q0 18 16 75.5t53 170.5q2 14 31 20 t60.5 8.5t39.5 2.5q29 0 49.5 -13.5t20.5 -48.5q0 -12 -2 -27.5t-8 -31.5q-27 -88 -74 -176q-49 -90 -76 -179q-2 -12 -5 -22t-3 -21q0 -33 21.5 -49t52.5 -16h14l-6 -23q-90 -25 -142.5 -73.5t-101.5 -153.5q-16 -35 -37.5 -85t-43 -98t-40.5 -81q-37 -61 -89 -107.5 t-134 -68.5q-8 0 -35.5 -4t-33.5 -7h-7q-12 0 -12 9z" />
<glyph unicode="~" horiz-adv-x="585" d="M66 870q0 51 50 88t136 37q43 0 98.5 -12t106.5 -25.5t88 -13.5q33 0 56.5 10.5t35.5 38.5q12 0 12 -14q0 -49 -48 -82t-128 -33q-57 0 -97 17.5t-76 34t-85 16.5q-61 0 -89 -19.5t-44 -48.5q-12 -2 -14 2z" />
<glyph unicode="&#xa1;" horiz-adv-x="456" d="M-227 -489q51 53 115.5 137t131 183t127 202.5t103.5 193.5q12 27 36.5 79t41.5 79q18 27 24 27q8 0 8 -23q0 -10 -2 -26.5t-6 -36.5q-8 -45 -36.5 -124t-67.5 -168t-81 -170t-79 -132q-63 -86 -112.5 -132t-97.5 -64.5t-105 -24.5zM381 600q0 12 6 23.5t12 17.5l33 23 q14 10 33 18l29 14q10 4 26 15q6 4 11.5 -1t0.5 -10q-18 -29 -26 -66.5t-20.5 -64t-45.5 -26.5q-23 0 -35 11t-20 28q-4 6 -4 18z" />
<glyph unicode="&#xa2;" horiz-adv-x="819" d="M125 78q0 18 8 33q10 23 32.5 61.5t45.5 67.5q-45 23 -65.5 74t-20.5 110q0 76 26.5 149.5t53.5 128.5q49 90 117.5 168t146.5 128.5t152 56.5q12 14 33.5 44.5t47 66.5t46 66t28.5 42q23 0 23 -39q0 -33 -33 -92l-66 -103q43 -8 63.5 -37.5t20.5 -64.5q0 -51 -36 -94 q-68 -84 -101 -84q-8 0 -8 10q0 18 16 51q6 16 22.5 51t30 69t13.5 46q-14 10 -41 10q-49 0 -113.5 -42t-124 -108.5t-100.5 -139.5q-35 -57 -67.5 -141.5t-47.5 -155.5q-2 -14 -3 -25.5t-1 -22.5q0 -90 72 -90q39 0 92 27q43 20 96.5 55t99.5 71t72 60q6 -14 7 -28 q0 -37 -33 -75t-76 -73q-45 -33 -104.5 -62.5t-120.5 -29.5q-10 0 -21.5 1t-21.5 3q-16 -20 -42 -55t-49.5 -69t-33.5 -50q-5 -10 -13 -10t-15 12t-7 29z" />
<glyph unicode="&#xa3;" horiz-adv-x="1329" d="M45 111q0 55 45 102t133 47q70 0 153 -27.5t177 -66.5q39 39 72.5 81t64.5 87q-70 -4 -119 -4q-55 0 -68.5 27.5t-13.5 62.5q35 -6 91 -6q80 0 168 6l18 26q31 49 70 117q37 68 79.5 140.5t92.5 144.5q49 72 104 129q53 57 112.5 93t123.5 38q72 0 105.5 -45t33.5 -109 q0 -57 -27.5 -119.5t-77.5 -109.5q-39 -33 -69.5 -47t-46.5 -14t-17 10q0 14 41 43q84 66 114 137.5t30 130.5q-4 80 -82 80q-35 0 -74 -27.5t-75 -69.5t-65.5 -84t-45.5 -69q-53 -84 -103 -176q-49 -94 -102 -186q-6 -6 -8 -13l-9 -14l54 2h14q72 0 90.5 -28.5t18.5 -75.5 q-8 12 -60 24q-27 6 -65 6q-39 0 -93 -6h-8q-39 -59 -82 -114.5t-96 -102.5q70 -29 140.5 -54.5t144.5 -43.5q47 -10 102 -18.5t107 -8.5q47 0 86 8.5t57 26.5q12 6 18 6q16 0 -3 -29.5t-64 -59.5t-111 -30q-63 0 -131.5 13.5t-138.5 33.5q-39 12 -89 30t-100.5 37t-87.5 32 q-70 -49 -151.5 -77t-181.5 -28q-104 0 -149.5 42t-45.5 100zM98 106q0 -35 41 -65.5t109 -30.5t127 25.5t112 68.5q-80 29 -152.5 48.5t-131.5 19.5q-53 0 -79 -18.5t-26 -47.5z" />
<glyph unicode="&#xa4;" horiz-adv-x="1353" d="M98.5 106.5q14.5 36.5 63.5 86.5q33 29 77 66.5t101 82.5q-23 63 -23 135q0 61 15 121q16 59 42.5 116.5t63.5 104.5l-133 168q0 51 5 87t26 36q12 0 29 -14q29 -27 67.5 -81t79.5 -116q63 59 135 92t148 33q72 0 127 -28.5t90 -80.5q59 53 112.5 98.5t87.5 67.5 q29 16 39 17q16 0 5 -34t-33 -93l-172 -135q10 -27 13 -54.5t3 -56.5t-3 -60.5t-13 -66.5q-18 -76 -56.5 -142.5t-85.5 -119.5q35 -47 61.5 -84t45.5 -66q25 -45 24 -82q0 -38 -20 -38q-12 0 -29 28q-43 47 -80 92t-69 86q-61 -47 -128 -73.5t-132 -26.5q-70 0 -121 27.5 t-86 76.5l-109 -83q-29 -23 -58.5 -46.5t-62.5 -46.5q-31 -31 -45 -30q-16 0 -1.5 36.5zM416 434q0 -82 39.5 -138t111.5 -56q74 0 142.5 49t128 128t100.5 167q27 78 27 151q0 88 -38 147.5t-110 59.5t-145.5 -51t-134 -133t-91.5 -174q-31 -76 -30 -150z" />
<glyph unicode="&#xa5;" horiz-adv-x="602" d="M84 393q31 -6 84 -6t113 4l36 101q-29 -4 -55 -5.5t-47 -1.5q-53 0 -66.5 28t-13.5 60q16 -4 39 -6t49 -2q29 0 60.5 2t64.5 4l17 41l-35 230q-12 90 -43 151.5t-60 89.5q12 4 33 9.5t37 5.5q49 0 77.5 -32t42 -82t19.5 -105l33 -240q49 49 109.5 112.5t119 128 t105.5 123t74 99.5q49 0 49 -49q0 -59 -41 -114.5t-88 -102.5q-14 -14 -56.5 -51t-92.5 -80t-91 -78t-53 -47q53 4 84 0q59 -4 70.5 -35t11.5 -64q-8 10 -56 23q-14 2 -29.5 3t-37.5 1h-40t-46 -4h-4q-10 -27 -23 -51q-12 -27 -22 -54l71 2q31 0 54 -2q59 -4 70 -34.5 t11 -63.5q-8 12 -57 25q-27 4 -65 4h-40t-46 -4l-29 -4q-20 -53 -38.5 -103.5t-29.5 -91.5q-10 -39 -16 -66.5t-6 -48.5q0 -19 6 -35q-41 10 -63.5 51.5t-22.5 84.5q0 57 12.5 99t28.5 97q-25 -2 -47 -2h-43q-53 0 -65.5 27.5t-12.5 58.5z" />
<glyph unicode="&#xa6;" horiz-adv-x="620" d="M66 -27q6 57 42.5 196.5t100.5 322.5l94 2q-23 -55 -55.5 -138.5t-64 -167.5t-55.5 -145t-28 -74q-12 -30 -22 -30q-16 0 -12 34zM270 659q41 113 91.5 227.5t105.5 227.5q0 -2 4 6q10 0 32.5 -25.5t26.5 -43.5q0 -6 -2 -11q-10 -20 -30.5 -68t-45 -106.5t-47 -115 t-36.5 -91.5h-99z" />
<glyph unicode="&#xa7;" horiz-adv-x="935" d="M51 8q8 27 23.5 41t46.5 14q39 0 66.5 -25.5t68.5 -72.5q57 -63 109.5 -96t128.5 -33q49 0 93 29t44 78q0 39 -29 72.5t-71 63.5t-82 54q-72 43 -128.5 108.5t-56.5 157.5q0 66 19.5 103t52.5 58.5t76 39.5q-8 16 -10.5 33.5t-2.5 38.5q0 74 41 148.5t111 137 t153.5 100.5t167.5 38q78 0 121 -57.5t43 -143.5q0 -37 -22.5 -79t-51 -85t-51 -87t-22.5 -85q-31 0 -50.5 26.5t-19.5 61.5q0 45 21.5 85t50.5 78t50.5 76t21.5 79q0 16 -14.5 38.5t-51.5 22.5q-59 0 -123.5 -32.5t-121 -84t-91.5 -111t-35 -112.5q0 -59 48.5 -101 t103.5 -75q53 -31 102 -71t49 -93q0 -74 -53 -132t-121 -89q35 -27 55.5 -57.5t20.5 -71.5q0 -72 -38 -118t-100 -69.5t-134 -23.5q-61 0 -122 32.5t-116 76t-99 78t-71 36.5zM356 424q0 -45 29 -86t78 -82q33 -25 69 -47l72 -45l41 16q35 16 71 46t36 73q0 41 -37 71.5 t-91.5 59.5t-106.5 60.5t-83 74.5q-78 -72 -78 -141z" />
<glyph unicode="&#xa8;" horiz-adv-x="376" d="M0 956q0 10 6 21.5t12 15.5q31 27 62 41q8 8 41 8q25 0 16 -18q-12 -16 -18 -46t-17.5 -53.5t-42.5 -23.5q-23 0 -35 11.5t-20 25.5q-4 6 -4 18zM238 956q0 10 6 21.5t12 15.5q31 27 61 41q8 8 41 8q25 0 17 -18q-12 -16 -18.5 -46t-17.5 -53.5t-42 -23.5q-23 0 -35 11.5 t-20 25.5q-4 6 -4 18z" />
<glyph unicode="&#xa9;" horiz-adv-x="1171" d="M72 377q0 82 24 174q33 115 97.5 217t153.5 182t191.5 125t209.5 45q111 0 190.5 -52t121.5 -141t42 -202q0 -84 -25 -174q-33 -115 -98.5 -216.5t-153.5 -179t-190.5 -122.5t-206.5 -45q-113 0 -192.5 51t-121.5 139t-42 199zM156 377q0 -139 73.5 -232.5t208.5 -93.5 q119 0 231.5 69.5t200.5 183.5t129 247q14 45 20.5 89t6.5 85q0 139 -73.5 233.5t-209.5 94.5q-88 0 -175 -41t-163.5 -111t-135 -161t-87.5 -189q-27 -88 -26 -174zM344 446q0 72 33 148t88 141.5t123.5 105.5t140.5 40q66 0 94.5 -32t28.5 -75v-17t-4 -20 q-10 -29 -23.5 -61.5t-21.5 -48.5l-6 -11l-2 -2q-35 0 -35 43q0 20 7 44t17 47q12 27 13 51q0 51 -47 51q-66 0 -124.5 -43t-104.5 -109.5t-71.5 -140.5t-25.5 -133q0 -47 14.5 -80t71.5 -33q68 0 129 56.5t96 142.5q4 6 8 4q16 -10 17 -39q0 -53 -41 -97t-99.5 -69.5 t-109.5 -25.5q-90 0 -128 47t-38 116z" />
<glyph unicode="&#xaa;" horiz-adv-x="688" d="M78 659q0 41 18.5 89.5t40.5 87.5q39 61 96.5 121.5t122 99.5t123.5 39q61 0 117 -43q23 -20 22 -39q0 -23 -18 -23q-12 0 -20 19q-20 51 -66 51q-39 0 -86 -34t-98 -85q-53 -55 -94 -118.5t-64 -116.5q-18 -45 -18 -70q0 -29 22 -29q25 0 76 39q57 41 107.5 102.5 t97.5 114.5l26 41q12 18 49 19q18 0 30.5 -7.5t6.5 -21.5l-13 -25q-13 -24 -30.5 -58t-32 -62.5t-18.5 -38.5q-23 -55 -22 -74q0 -14 14 -14t35 10q33 16 66.5 48t64.5 67l31 34l26 31q8 10 15 0q2 -2 2 -8t-7 -17l-67 -79l-35 -39q-18 -20 -37 -37q-70 -63 -119 -64 q-61 0 -61 78q0 27 10 64q8 31 23 69q-31 -47 -70 -96t-84 -82t-94 -33q-49 2 -68.5 28t-19.5 62z" />
<glyph unicode="&#xab;" horiz-adv-x="784" d="M190 479q10 8 39 32t61 51.5t56 47.5q18 14 50 41t61.5 48.5t36.5 21.5l12 -6l6 -13q-6 -18 -32.5 -49.5t-62.5 -67.5t-69 -67t-51 -49l70 -238l-2 -16l-11 -8q-10 0 -16 6q-43 59 -78 131q-35 70 -70 135zM442 492q8 6 38 30.5t64 53t56 47.5q18 14 50 40.5t60.5 48 t34.5 21.5l13 -6l4 -12q-8 -27 -48 -72t-88 -90t-75 -72l70 -237l-5 -19l-10 -4l-16 4q-16 20 -44 71.5t-55.5 107t-48.5 88.5z" />
<glyph unicode="&#xac;" horiz-adv-x="1406" d="M123 422q0 14 18.5 36.5t34.5 22.5h989l-90 -418q-4 -38 -47 -38q-12 0 -24.5 11t-8.5 27l72 336h-909q-10 0 -22.5 4.5t-12.5 18.5z" />
<glyph unicode="&#xad;" horiz-adv-x="718" d="M96 469q37 -6 88 -6q84 0 184.5 8t180.5 4q59 -4 70.5 -34.5t11.5 -63.5q-8 10 -58 22q-27 4 -65 4h-40t-46 -4q-8 0 -41 -3t-75 -6t-79 -6t-53 -3q-49 0 -63.5 25.5t-14.5 62.5z" />
<glyph unicode="&#xae;" horiz-adv-x="1171" d="M72 377q0 82 24 174q33 115 97.5 217t153.5 182t191.5 125t209.5 45q111 0 190.5 -52t121.5 -141t42 -202q0 -84 -25 -174q-33 -115 -98.5 -216.5t-153.5 -179t-190.5 -122.5t-206.5 -45q-113 0 -192.5 51t-121.5 139t-42 199zM156 377q0 -139 73.5 -232.5t208.5 -93.5 q119 0 231.5 69.5t200.5 183.5t129 247q14 45 20.5 89t6.5 85q0 139 -73.5 233.5t-209.5 94.5q-88 0 -175 -41t-163.5 -111t-135 -161t-87.5 -189q-27 -88 -26 -174zM319 362q0 29 15.5 59t32.5 54v-2l12 19q6 6 10 14l35 61l72 117q35 57 57 107q-4 -2 -8 -3h-23 q-51 0 -51 29q0 12 4 19q0 4 6 4q41 4 101 16l8 31q0 4 6 4q25 0 31 -23q35 10 68.5 16.5t64.5 6.5q61 0 87.5 -33t26.5 -80q0 -43 -29.5 -94t-78.5 -96t-105.5 -73t-109.5 -26q29 -35 43 -60.5t31 -63.5q8 -20 8 -54q-1 -37 -19 -37l-2 2q-2 0 -2 3q-14 31 -42.5 74.5 t-59.5 84.5t-49 60l-45 -86q-18 -39 -33.5 -73t-18.5 -48q0 -6 -8 -6q-18 10 -26.5 26.5t-8.5 50.5zM494 561l16 -22q45 6 100.5 29.5t106.5 59.5t84 78t33 85q0 37 -70 36q-27 0 -55 -6q-29 -6 -58 -10l-24 -6q-8 -29 -33 -78t-52.5 -96t-43.5 -74z" />
<glyph unicode="&#xaf;" horiz-adv-x="354" d="M0 987q16 -4 43 -6t57 -2q63 0 126 4t108 4q35 0 39 -28.5t4 -55.5q-12 6 -38 8t-54 2q-63 0 -134 -4t-106 -4q-41 0 -43 29t-2 53z" />
<glyph unicode="&#xb0;" horiz-adv-x="667" d="M193 733q0 61 29.5 112.5t74.5 82t92 30.5q51 0 82 -34.5t31 -87.5q0 -61 -30 -112.5t-76 -83.5t-95 -32q-51 0 -79.5 35t-28.5 90zM252 717q0 -33 15 -53.5t38 -20.5q35 0 69 39t56 96q4 16 6 30.5t2 27.5q0 37 -13 59.5t-36 22.5q-35 0 -71.5 -41t-53.5 -99 q-12 -33 -12 -61z" />
<glyph unicode="&#xb1;" horiz-adv-x="944" d="M111 27q37 -6 88 -7q84 0 184 8.5t180 4.5q55 -4 67.5 -33t12.5 -66q-8 10 -55 23q-27 6 -70 6h-39.5t-44.5 -4q-18 -2 -65 -7t-98.5 -9t-82.5 -4q-49 0 -63 25.5t-14 62.5zM248 436q4 18 17.5 31.5t29.5 13.5q57 0 115 2q57 2 114 2q37 84 78 168q39 82 72 168 q10 0 13 -12t3 -29q0 -27 -5 -58.5t-9 -41.5q-16 -49 -39 -107.5t-41 -87.5q35 0 92 1t108.5 2t65.5 4l-4 -11q-4 -14 -14 -26q-8 -12 -43 -20.5t-81 -14.5t-87 -10t-60 -11q-2 -2 -16 -30.5t-36.5 -70.5t-47 -82t-46.5 -67.5t-32 -27.5q-14 0 -17 16.5t-1 30.5 q4 14 18.5 46t31.5 70t31.5 68.5t18.5 40.5q-10 0 -47 1t-81 5t-74.5 13.5t-26.5 23.5z" />
<glyph unicode="&#xb2;" horiz-adv-x="735" d="M150 436q0 6 4 6q33 12 65.5 33t63.5 43q47 37 110.5 94.5t122.5 125t99 137t40 129.5q0 45 -34 45q-29 0 -57.5 -25t-51.5 -57.5t-37 -57.5q-31 -51 -63 -63q-33 -14 -50 -15q-6 0 -6 7q2 41 31 85t72 80.5t92 60t92 23.5t68.5 -21.5t25.5 -70.5q0 -68 -43 -139.5 t-109.5 -141t-138 -128t-127.5 -97.5l-30 -20q37 10 86 18.5t94 8.5q39 0 59 -4q23 -8 40.5 -24.5t13.5 -43.5q-4 -10 -13.5 -28.5t-19.5 -18.5q-6 2 -6 16q0 2 1 3t1 3q0 8 -15 15q-20 8 -65 8q-33 0 -90.5 -7t-110.5 -15.5t-74 -14.5l-4 -2h-6q-10 4 -20 23.5t-10 29.5z " />
<glyph unicode="&#xb3;" horiz-adv-x="782" d="M190 528q0 53 28 89t91 38q14 0 4 -10q-20 -16 -39.5 -58t-19.5 -67q-2 -41 16.5 -66.5t63.5 -25.5q57 0 109.5 34t84 86t31.5 103q0 31 -13.5 51.5t-47.5 20.5q-14 0 -33 -5t-53 -22q-4 -2 -11 -2q-14 0 -23 15.5t-13 31.5v9q-10 10 2 10q61 2 131.5 34.5t122 85 t51.5 117.5q0 55 -45 56q-45 0 -83 -41t-57 -76q-29 -43 -59 -53q-31 -12 -45 -13q-6 0 -6 7q2 49 46 98t103.5 82t112.5 33q39 0 74 -24t35 -85q0 -53 -37 -95t-87.5 -73t-88.5 -47q68 -10 90 -46t22 -77q0 -76 -50 -134t-123.5 -93t-145.5 -35q-61 0 -99.5 38t-38.5 109z " />
<glyph unicode="&#xb4;" horiz-adv-x="268" d="M0 915q0 8 6 15q39 35 87 83t69 68q10 10 22.5 19.5t26.5 9.5q29 0 43 -12.5t14 -20.5q0 -4 -28.5 -26.5t-62.5 -46t-52 -35.5q-12 -8 -37 -24.5t-46.5 -29t-27.5 -14.5h-2q-12 0 -12 14z" />
<glyph unicode="&#xb5;" horiz-adv-x="710" d="M-172 -492q6 98 40 229.5t87 276.5q51 143 116.5 289t131.5 268q10 20 36.5 40t55.5 32t47 12q33 0 33 -22q0 -18 -21 -47q-45 -70 -98 -159t-94 -173q-27 -49 -38 -86t-11 -64q0 -47 32 -47q45 0 109 74q27 31 76 99.5t103 146.5t95 139q49 94 105.5 127t130.5 33 q-20 -12 -49 -54t-60 -90q-20 -27 -43.5 -72.5t-47 -98t-41 -98.5t-23.5 -73q-12 -45 -13 -75q0 -43 29 -43q4 0 10 2t15 2q16 0 5 -20.5t-40 -41t-66 -20.5t-53 23.5t-16 62.5q0 43 15 98t38 115q-41 -63 -93 -131t-108.5 -114t-107.5 -46q-18 0 -31.5 4t-24.5 10 q-18 -45 -40.5 -103t-44 -113.5t-35.5 -94.5q-23 -57 -45.5 -115.5t-30.5 -85.5q-13 -30 -25 -30q-16 0 -10 34z" />
<glyph unicode="&#xb6;" horiz-adv-x="702" d="M92 801q0 66 36 129t98.5 113.5t140.5 70.5q92 25 178 25h358q6 -8 6 -19q0 -16 -14 -34.5t-41 -28.5v-4q0 -2 2 -2q0 -6 -2 -11q-16 -35 -51 -116q-20 -49 -50 -123t-62 -153t-56 -142l-90 -225q-43 -109 -75 -192t-44 -120q-12 -31 -23 -30q-12 0 -12 24q0 45 30 159 t81 271q49 147 114.5 318.5t143.5 339.5h-107q0 -6 -2 -11q-16 -35 -51 -116q-35 -84 -79 -191.5t-91 -226.5l-88 -225q-43 -109 -74.5 -192t-44.5 -120q-12 -30 -24 -30q-16 0 -11 34q2 35 19.5 109t46.5 169t61.5 194.5t65.5 187.5h-74q-104 0 -159.5 47t-55.5 121z" />
<glyph unicode="&#xb7;" horiz-adv-x="634" d="M336 442q0 12 7 22.5t15 16.5q14 12 31 23.5t35 19.5l29 13q10 4 26 14q6 4 10.5 0t2.5 -10q-20 -27 -27.5 -64t-20 -64.5t-45.5 -27.5q-23 0 -35 10.5t-22 28.5q-6 10 -6 18z" />
<glyph unicode="&#xb8;" horiz-adv-x="313" d="M0 -346q12 -2 30.5 -4t39.5 -2q41 0 82 18.5t53 77.5q6 31 -7.5 51.5t-28.5 43t-15 59.5q0 66 50 94t113 28q18 0 19 -12q-45 -8 -71.5 -23.5t-26.5 -58.5q0 -29 12 -49t23.5 -40.5t11.5 -53.5q0 -55 -34 -95t-81 -61.5t-90 -21.5q-31 0 -53.5 11t-26.5 38z" />
<glyph unicode="&#xb9;" horiz-adv-x="694" d="M311 414q0 31 4 62.5t9 47.5q23 84 70.5 175.5t94.5 172.5v-2l15 25l14 25q-4 -2 -8 -3.5t-8 -1.5q-10 0 -21 7v6q0 6 16.5 28.5t38 48t41 44t23.5 18.5q14 0 46 -14.5t32 -28.5q0 -8 -6 -8q-43 -66 -96.5 -154t-94.5 -160q-66 -127 -94 -210q-29 -86 -29 -125 q0 -13 -18 -13q-16 0 -22.5 17.5t-6.5 42.5z" />
<glyph unicode="&#xba;" horiz-adv-x="614" d="M147 705q0 74 33 141q29 66 78 123t106.5 93t112.5 36q59 0 87 -39t28 -98q0 -66 -31 -134q-23 -51 -73 -110.5t-111.5 -101.5t-120.5 -42q-57 0 -83 38t-26 94zM233 672q1 -68 56 -68q41 0 83 36t75.5 83t50.5 80q51 96 51 174q0 74 -55 74q-33 0 -72 -29t-74 -74 t-59 -96q-27 -51 -41.5 -96t-14.5 -84z" />
<glyph unicode="&#xbb;" horiz-adv-x="813" d="M190 225q8 27 48.5 72t88.5 91t74 73l-69 237l4 17l10 6l16 -4q18 -25 44 -74t53.5 -102.5t50.5 -89.5q-8 -6 -38 -31t-63.5 -53.5t-54.5 -44.5q-20 -16 -52 -43t-60.5 -48.5t-34.5 -21.5l-12 6zM440 238q6 18 33 49.5t61.5 66.5t67.5 67t53 52l-69 238l2 16l10 8 q6 0 16 -6q43 -59 78 -129q35 -72 70 -137q-10 -8 -39 -31.5t-60.5 -51.5t-54.5 -46q-18 -16 -52 -43t-62.5 -48.5t-34.5 -21.5l-13 4z" />
<glyph unicode="&#xbc;" horiz-adv-x="1460" d="M311 414q0 31 4 62.5t9 47.5q23 84 70.5 175.5t94.5 172.5v-2l15 25l14 25q-4 -2 -8 -3.5t-8 -1.5q-10 0 -21 7v6q0 6 16.5 28.5t38 48t41 44t23.5 18.5q14 0 46 -14.5t32 -28.5q0 -8 -6 -8q-43 -66 -96.5 -154t-94.5 -160q-66 -127 -94 -210q-29 -86 -29 -125 q0 -13 -18 -13q-16 0 -22.5 17.5t-6.5 42.5zM346 -180q0 33 60.5 162t158.5 309q84 158 193.5 338t230.5 354q0 -2 4 6q10 2 27.5 -20.5t17.5 -44.5q0 -10 -2 -13q-25 -35 -75 -116q-53 -84 -119 -191.5t-137 -226.5l-136 -225q-66 -109 -114.5 -193t-69.5 -121 q-19 -31 -31 -31q-8 0 -8 13zM805 285q4 25 42 64.5t88 82.5t93 78q41 33 97.5 72t105.5 70.5t74 41.5q2 2 8 2q8 0 16 -6q12 -10 26.5 -36.5t10.5 -37.5q-6 -18 -30.5 -64t-54.5 -97.5t-48 -87.5l-33 -54q35 -8 56.5 -27.5t21.5 -35.5q0 -8 -8 -4q-10 4 -37 6l-64 6 q-55 -106 -75 -172t-21 -100q0 -15 -16 -15t-23.5 18.5t-7.5 43.5q0 29 5 58.5t9 45.5q8 31 18.5 59.5t26.5 63.5q-53 -2 -110 -17.5t-98 -27.5l-31 -8q-8 -4 -17.5 14.5t-16.5 39t-7 24.5zM870 291q53 14 105.5 24.5t109.5 10.5l19 -2l12 -2q29 63 58 118q23 47 48 97.5 t42 78.5q-18 -14 -55.5 -42.5t-73 -56.5t-50.5 -38l-26 -22l-25 -21q-39 -31 -77 -62.5t-87 -82.5z" />
<glyph unicode="&#xbd;" horiz-adv-x="1263" d="M311 414q0 31 4 62.5t9 47.5q23 84 70.5 175.5t94.5 172.5v-2l15 25l14 25q-4 -2 -8 -3.5t-8 -1.5q-10 0 -21 7v6q0 6 16.5 28.5t38 48t41 44t23.5 18.5q14 0 46 -14.5t32 -28.5q0 -8 -6 -8q-43 -66 -96.5 -154t-94.5 -160q-66 -127 -94 -210q-29 -86 -29 -125 q0 -13 -18 -13q-16 0 -22.5 17.5t-6.5 42.5zM346 -180q0 33 60.5 162t158.5 309q84 158 193.5 338t230.5 354q0 -2 4 6q10 2 27.5 -20.5t17.5 -44.5q0 -10 -2 -13q-25 -35 -75 -116q-53 -84 -119 -191.5t-137 -226.5l-136 -225q-66 -109 -114.5 -193t-69.5 -121 q-19 -31 -31 -31q-8 0 -8 13zM760 35q0 4 4 4q33 12 65.5 32.5t63.5 43.5q47 37 110.5 94t123 124.5t99.5 136.5t40 128q0 27 -10.5 36t-24.5 9q-29 0 -57.5 -24.5t-51 -57.5t-37.5 -57q-29 -49 -62.5 -62.5t-49.5 -13.5q-4 0 -4 6q2 41 29.5 85t70.5 82t92 60.5t92 22.5 t69 -20.5t26 -67.5q0 -68 -43 -140.5t-110 -142t-137.5 -129t-127.5 -98.5l-31 -20q37 10 86 18t96 8q35 0 60 -6q23 -6 39 -22.5t12 -45.5q-2 -10 -12.5 -28.5t-20.5 -18.5q-4 4 -4 19v2q0 4 -1 10t-11 8q-12 4 -29.5 5t-38.5 1q-39 0 -94 -6t-104.5 -14t-73.5 -14h-4 l-8 -2q-12 2 -21.5 24.5t-9.5 30.5z" />
<glyph unicode="&#xbe;" horiz-adv-x="1320" d="M190 528q0 53 28 89t91 38q14 0 4 -10q-20 -16 -39.5 -58t-19.5 -67q-2 -41 16.5 -66.5t63.5 -25.5q57 0 109.5 34t84 86t31.5 103q0 31 -13.5 51.5t-47.5 20.5q-14 0 -33 -5t-53 -22q-4 -2 -11 -2q-14 0 -23 15.5t-13 31.5v9q-10 10 2 10q61 2 131.5 34.5t122 85 t51.5 117.5q0 55 -45 56q-45 0 -83 -41t-57 -76q-29 -43 -59 -53q-31 -12 -45 -13q-6 0 -6 7q2 49 46 98t103.5 82t112.5 33q39 0 74 -24t35 -85q0 -53 -37 -95t-87.5 -73t-88.5 -47q68 -10 90 -46t22 -77q0 -76 -50 -134t-123.5 -93t-145.5 -35q-61 0 -99.5 38t-38.5 109z M346 -180q0 33 60.5 162t158.5 309q84 158 193.5 338t230.5 354q0 -2 4 6q10 2 27.5 -20.5t17.5 -44.5q0 -10 -2 -13q-25 -35 -75 -116q-53 -84 -119 -191.5t-137 -226.5l-136 -225q-66 -109 -114.5 -193t-69.5 -121q-19 -31 -31 -31q-8 0 -8 13zM805 285q4 25 42 64.5 t88 82.5t93 78q41 33 97.5 72t105.5 70.5t74 41.5q2 2 8 2q8 0 16 -6q12 -10 26.5 -36.5t10.5 -37.5q-6 -18 -30.5 -64t-54.5 -97.5t-48 -87.5l-33 -54q35 -8 56.5 -27.5t21.5 -35.5q0 -8 -8 -4q-10 4 -37 6l-64 6q-55 -106 -75 -172t-21 -100q0 -15 -16 -15t-23.5 18.5 t-7.5 43.5q0 29 5 58.5t9 45.5q8 31 18.5 59.5t26.5 63.5q-53 -2 -110 -17.5t-98 -27.5l-31 -8q-8 -4 -17.5 14.5t-16.5 39t-7 24.5zM870 291q53 14 105.5 24.5t109.5 10.5l19 -2l12 -2q29 63 58 118q23 47 48 97.5t42 78.5q-18 -14 -55.5 -42.5t-73 -56.5t-50.5 -38 l-26 -22l-25 -21q-39 -31 -77 -62.5t-87 -82.5z" />
<glyph unicode="&#xbf;" horiz-adv-x="835" d="M70 -287q0 74 36.5 141.5t91 125t107.5 98.5l119 94q59 45 102 119q12 16 17 33l10 26q0 6 1 12.5t1 10.5q0 33 -27 45q-6 4 -6 10q4 14 21 16q4 2 12 2q18 0 33.5 -14t17.5 -37v-22q0 -12 -2 -25q-18 -80 -117 -184q-49 -53 -103 -122t-101 -138q-49 -76 -62 -127 q-2 -12 -3 -23.5t-1 -19.5q0 -45 22.5 -73t65.5 -28q57 0 111.5 43t95.5 100.5t59 100.5q10 29 19 29q6 0 6 -15q0 -18 -8 -38q-47 -131 -144.5 -200t-222.5 -69q-82 0 -116.5 35t-34.5 94zM596 559q18 31 26.5 68t20.5 63.5t45 26.5q23 0 36 -11.5t21 -27.5q6 -8 7 -19 q0 -12 -7.5 -23t-15.5 -18q-14 -10 -30.5 -21t-34.5 -19l-29 -13q-10 -6 -27 -16q-6 -4 -10 1t-2 9z" />
<glyph unicode="&#xc0;" horiz-adv-x="1447" d="M-35 244q0 133 76 262q41 72 106.5 151.5t146.5 151.5t168 116t167 44q12 0 29.5 -3t17.5 -10l-29 -4q-57 -8 -125 -49q-139 -84 -270 -244q-66 -78 -115 -159q-51 -82 -80.5 -165t-29.5 -153t32.5 -101.5t79.5 -31.5q53 0 117 35q84 49 138.5 98t99.5 102.5t104 112.5 l-80 -16q-47 -10 -92 -10q-59 0 -88 18.5t-29 42.5q0 39 58 68q41 16 86 24q45 6 77 15q4 0 5 -2q0 -4 -5 -5q-16 -2 -36.5 -14t-22.5 -18q10 2 41 5t70 8t73.5 10t51.5 9q92 88 185 213t178 258.5t149 243.5q6 12 28.5 54t49 93.5t49 94.5t30.5 59q6 12 10 13q4 0 5.5 -7.5 t-2.5 -13.5q-102 -240 -229.5 -492.5t-297.5 -502.5q16 2 57.5 3t86.5 3t79.5 4t42.5 4q33 78 71 183.5t72 217t53 213t15 173.5q16 10 35 24q16 14 35 14q47 0 66.5 -49t19.5 -102q0 -51 -18.5 -123t-46 -149.5t-58.5 -151.5q-35 -78 -69.5 -150.5t-47.5 -99.5 q55 0 117 -12t104 -41t42 -80v-15.5t-5 -17.5q-6 -20 -14 -20q-4 0 -4 10q0 4 2 9t2 11q0 8 -6 17q-18 25 -66.5 35t-105.5 11t-102 1q-16 -31 -49 -102.5t-69 -157.5t-65.5 -165t-42.5 -124q-8 -27 -22.5 -75t-26.5 -100t-12 -93q0 -53 26 -60q41 -8 84 22t87.5 74t84.5 74 q20 10 7 -8q-14 -10 -32 -38.5t-32 -58.5t-22 -44q-18 -39 -50 -58.5t-69 -19.5q-53 0 -98 39q-27 23 -37.5 58.5t-10.5 78.5q0 63 16.5 137t38 143.5t38.5 123.5q14 43 38.5 110.5t51 135t45.5 112.5q-12 0 -60.5 -4t-108 -11t-106.5 -14.5t-57 -11.5q-33 -31 -78 -80 t-93 -101t-89 -89q-76 -70 -157 -118t-167 -48q-111 0 -164 72.5t-53 177.5zM1241 1755q-2 6 10.5 21.5t38.5 21.5h8q12 0 24.5 -5t22.5 -13q16 -10 55.5 -34.5t83.5 -51.5t72 -45q4 -2 6.5 -6t4.5 -6v-5q-1 -14 -13 -14q-4 0 -28.5 8.5t-51 18.5t-40.5 16q-35 16 -79 36.5 t-78 37t-36 20.5z" />
<glyph unicode="&#xc1;" horiz-adv-x="1447" d="M-35 244q0 133 76 262q41 72 106.5 151.5t146.5 151.5t168 116t167 44q12 0 29.5 -3t17.5 -10l-29 -4q-57 -8 -125 -49q-139 -84 -270 -244q-66 -78 -115 -159q-51 -82 -80.5 -165t-29.5 -153t32.5 -101.5t79.5 -31.5q53 0 117 35q84 49 138.5 98t99.5 102.5t104 112.5 l-80 -16q-47 -10 -92 -10q-59 0 -88 18.5t-29 42.5q0 39 58 68q41 16 86 24q45 6 77 15q4 0 5 -2q0 -4 -5 -5q-16 -2 -36.5 -14t-22.5 -18q10 2 41 5t70 8t73.5 10t51.5 9q92 88 185 213t178 258.5t149 243.5q6 12 28.5 54t49 93.5t49 94.5t30.5 59q6 12 10 13q4 0 5.5 -7.5 t-2.5 -13.5q-102 -240 -229.5 -492.5t-297.5 -502.5q16 2 57.5 3t86.5 3t79.5 4t42.5 4q33 78 71 183.5t72 217t53 213t15 173.5q16 10 35 24q16 14 35 14q47 0 66.5 -49t19.5 -102q0 -51 -18.5 -123t-46 -149.5t-58.5 -151.5q-35 -78 -69.5 -150.5t-47.5 -99.5 q55 0 117 -12t104 -41t42 -80v-15.5t-5 -17.5q-6 -20 -14 -20q-4 0 -4 10q0 4 2 9t2 11q0 8 -6 17q-18 25 -66.5 35t-105.5 11t-102 1q-16 -31 -49 -102.5t-69 -157.5t-65.5 -165t-42.5 -124q-8 -27 -22.5 -75t-26.5 -100t-12 -93q0 -53 26 -60q41 -8 84 22t87.5 74t84.5 74 q20 10 7 -8q-14 -10 -32 -38.5t-32 -58.5t-22 -44q-18 -39 -50 -58.5t-69 -19.5q-53 0 -98 39q-27 23 -37.5 58.5t-10.5 78.5q0 63 16.5 137t38 143.5t38.5 123.5q14 43 38.5 110.5t51 135t45.5 112.5q-12 0 -60.5 -4t-108 -11t-106.5 -14.5t-57 -11.5q-33 -31 -78 -80 t-93 -101t-89 -89q-76 -70 -157 -118t-167 -48q-111 0 -164 72.5t-53 177.5zM1382 1637q2 2 4 6t6 6q31 18 74 45t83 51.5t54 34.5q12 10 26.5 16t29.5 2q29 -6 40 -21.5t9 -21.5q-2 -4 -36 -20.5t-78 -36.5t-79 -37q-12 -6 -39.5 -16t-51.5 -18.5t-30 -8.5q-16 0 -12 19z " />
<glyph unicode="&#xc2;" horiz-adv-x="1447" d="M-35 244q0 133 76 262q41 72 106.5 151.5t146.5 151.5t168 116t167 44q12 0 29.5 -3t17.5 -10l-29 -4q-57 -8 -125 -49q-139 -84 -270 -244q-66 -78 -115 -159q-51 -82 -80.5 -165t-29.5 -153t32.5 -101.5t79.5 -31.5q53 0 117 35q84 49 138.5 98t99.5 102.5t104 112.5 l-80 -16q-47 -10 -92 -10q-59 0 -88 18.5t-29 42.5q0 39 58 68q41 16 86 24q45 6 77 15q4 0 5 -2q0 -4 -5 -5q-16 -2 -36.5 -14t-22.5 -18q10 2 41 5t70 8t73.5 10t51.5 9q92 88 185 213t178 258.5t149 243.5q6 12 28.5 54t49 93.5t49 94.5t30.5 59q6 12 10 13q4 0 5.5 -7.5 t-2.5 -13.5q-102 -240 -229.5 -492.5t-297.5 -502.5q16 2 57.5 3t86.5 3t79.5 4t42.5 4q33 78 71 183.5t72 217t53 213t15 173.5q16 10 35 24q16 14 35 14q47 0 66.5 -49t19.5 -102q0 -51 -18.5 -123t-46 -149.5t-58.5 -151.5q-35 -78 -69.5 -150.5t-47.5 -99.5 q55 0 117 -12t104 -41t42 -80v-15.5t-5 -17.5q-6 -20 -14 -20q-4 0 -4 10q0 4 2 9t2 11q0 8 -6 17q-18 25 -66.5 35t-105.5 11t-102 1q-16 -31 -49 -102.5t-69 -157.5t-65.5 -165t-42.5 -124q-8 -27 -22.5 -75t-26.5 -100t-12 -93q0 -53 26 -60q41 -8 84 22t87.5 74t84.5 74 q20 10 7 -8q-14 -10 -32 -38.5t-32 -58.5t-22 -44q-18 -39 -50 -58.5t-69 -19.5q-53 0 -98 39q-27 23 -37.5 58.5t-10.5 78.5q0 63 16.5 137t38 143.5t38.5 123.5q14 43 38.5 110.5t51 135t45.5 112.5q-12 0 -60.5 -4t-108 -11t-106.5 -14.5t-57 -11.5q-33 -31 -78 -80 t-93 -101t-89 -89q-76 -70 -157 -118t-167 -48q-111 0 -164 72.5t-53 177.5zM1274 1624q0 8 10 19q45 35 104.5 71.5t85.5 55.5q23 14 40.5 23t31.5 9t26.5 -9t22.5 -19q23 -20 71 -58t79 -73q6 -6 6 -13q0 -6 -6.5 -11t-10.5 -5q-2 0 -32.5 14.5t-65.5 32.5 q-33 16 -57.5 32.5t-46.5 31.5q-20 -12 -47 -27.5t-66 -32.5q-25 -10 -65.5 -27.5t-67.5 -23.5q-12 -4 -12 10z" />
<glyph unicode="&#xc3;" horiz-adv-x="1447" d="M-35 244q0 133 76 262q41 72 106.5 151.5t146.5 151.5t168 116t167 44q12 0 29.5 -3t17.5 -10l-29 -4q-57 -8 -125 -49q-139 -84 -270 -244q-66 -78 -115 -159q-51 -82 -80.5 -165t-29.5 -153t32.5 -101.5t79.5 -31.5q53 0 117 35q84 49 138.5 98t99.5 102.5t104 112.5 l-80 -16q-47 -10 -92 -10q-59 0 -88 18.5t-29 42.5q0 39 58 68q41 16 86 24q45 6 77 15q4 0 5 -2q0 -4 -5 -5q-16 -2 -36.5 -14t-22.5 -18q10 2 41 5t70 8t73.5 10t51.5 9q92 88 185 213t178 258.5t149 243.5q6 12 28.5 54t49 93.5t49 94.5t30.5 59q6 12 10 13q4 0 5.5 -7.5 t-2.5 -13.5q-102 -240 -229.5 -492.5t-297.5 -502.5q16 2 57.5 3t86.5 3t79.5 4t42.5 4q33 78 71 183.5t72 217t53 213t15 173.5q16 10 35 24q16 14 35 14q47 0 66.5 -49t19.5 -102q0 -51 -18.5 -123t-46 -149.5t-58.5 -151.5q-35 -78 -69.5 -150.5t-47.5 -99.5 q55 0 117 -12t104 -41t42 -80v-15.5t-5 -17.5q-6 -20 -14 -20q-4 0 -4 10q0 4 2 9t2 11q0 8 -6 17q-18 25 -66.5 35t-105.5 11t-102 1q-16 -31 -49 -102.5t-69 -157.5t-65.5 -165t-42.5 -124q-8 -27 -22.5 -75t-26.5 -100t-12 -93q0 -53 26 -60q41 -8 84 22t87.5 74t84.5 74 q20 10 7 -8q-14 -10 -32 -38.5t-32 -58.5t-22 -44q-18 -39 -50 -58.5t-69 -19.5q-53 0 -98 39q-27 23 -37.5 58.5t-10.5 78.5q0 63 16.5 137t38 143.5t38.5 123.5q14 43 38.5 110.5t51 135t45.5 112.5q-12 0 -60.5 -4t-108 -11t-106.5 -14.5t-57 -11.5q-33 -31 -78 -80 t-93 -101t-89 -89q-76 -70 -157 -118t-167 -48q-111 0 -164 72.5t-53 177.5zM1307 1620q0 29 20.5 58.5t52 50t62.5 20.5q59 0 107 -26.5t98 -26.5q23 0 36 12.5t31 38.5q4 0 9 -3t5 -19q0 -31 -22.5 -55.5t-50.5 -40t-51 -15.5q-45 0 -75 17.5t-55.5 34t-60.5 16.5 t-56.5 -26t-35.5 -40q-14 -6 -14 4z" />
<glyph unicode="&#xc4;" horiz-adv-x="1447" d="M-35 244q0 133 76 262q41 72 106.5 151.5t146.5 151.5t168 116t167 44q12 0 29.5 -3t17.5 -10l-29 -4q-57 -8 -125 -49q-139 -84 -270 -244q-66 -78 -115 -159q-51 -82 -80.5 -165t-29.5 -153t32.5 -101.5t79.5 -31.5q53 0 117 35q84 49 138.5 98t99.5 102.5t104 112.5 l-80 -16q-47 -10 -92 -10q-59 0 -88 18.5t-29 42.5q0 39 58 68q41 16 86 24q45 6 77 15q4 0 5 -2q0 -4 -5 -5q-16 -2 -36.5 -14t-22.5 -18q10 2 41 5t70 8t73.5 10t51.5 9q92 88 185 213t178 258.5t149 243.5q6 12 28.5 54t49 93.5t49 94.5t30.5 59q6 12 10 13q4 0 5.5 -7.5 t-2.5 -13.5q-102 -240 -229.5 -492.5t-297.5 -502.5q16 2 57.5 3t86.5 3t79.5 4t42.5 4q33 78 71 183.5t72 217t53 213t15 173.5q16 10 35 24q16 14 35 14q47 0 66.5 -49t19.5 -102q0 -51 -18.5 -123t-46 -149.5t-58.5 -151.5q-35 -78 -69.5 -150.5t-47.5 -99.5 q55 0 117 -12t104 -41t42 -80v-15.5t-5 -17.5q-6 -20 -14 -20q-4 0 -4 10q0 4 2 9t2 11q0 8 -6 17q-18 25 -66.5 35t-105.5 11t-102 1q-16 -31 -49 -102.5t-69 -157.5t-65.5 -165t-42.5 -124q-8 -27 -22.5 -75t-26.5 -100t-12 -93q0 -53 26 -60q41 -8 84 22t87.5 74t84.5 74 q20 10 7 -8q-14 -10 -32 -38.5t-32 -58.5t-22 -44q-18 -39 -50 -58.5t-69 -19.5q-53 0 -98 39q-27 23 -37.5 58.5t-10.5 78.5q0 63 16.5 137t38 143.5t38.5 123.5q14 43 38.5 110.5t51 135t45.5 112.5q-12 0 -60.5 -4t-108 -11t-106.5 -14.5t-57 -11.5q-33 -31 -78 -80 t-93 -101t-89 -89q-76 -70 -157 -118t-167 -48q-111 0 -164 72.5t-53 177.5zM1346 1673q0 10 6 21.5t12 15.5q31 27 62 41q8 8 41 8q25 0 16 -18q-12 -16 -18 -46t-17.5 -53.5t-42.5 -23.5q-23 0 -35 11.5t-20 25.5q-4 6 -4 18zM1584 1673q0 10 6 21.5t12 15.5q31 27 61 41 q8 8 41 8q25 0 17 -18q-12 -16 -18.5 -46t-17.5 -53.5t-42 -23.5q-23 0 -35 11.5t-20 25.5q-4 6 -4 18z" />
<glyph unicode="&#xc5;" horiz-adv-x="1447" d="M-35 244q0 133 76 262q41 72 106.5 151.5t146.5 151.5t168 116t167 44q12 0 29.5 -3t17.5 -10l-29 -4q-57 -8 -125 -49q-139 -84 -270 -244q-66 -78 -115 -159q-51 -82 -80.5 -165t-29.5 -153t32.5 -101.5t79.5 -31.5q53 0 117 35q84 49 138.5 98t99.5 102.5t104 112.5 l-80 -16q-47 -10 -92 -10q-59 0 -88 18.5t-29 42.5q0 39 58 68q41 16 86 24q45 6 77 15q4 0 5 -2q0 -4 -5 -5q-16 -2 -36.5 -14t-22.5 -18q10 2 41 5t70 8t73.5 10t51.5 9q92 88 185 213t178 258.5t149 243.5q6 12 28.5 54t49 93.5t49 94.5t30.5 59q6 12 10 13q4 0 5.5 -7.5 t-2.5 -13.5q-102 -240 -229.5 -492.5t-297.5 -502.5q16 2 57.5 3t86.5 3t79.5 4t42.5 4q33 78 71 183.5t72 217t53 213t15 173.5q16 10 35 24q16 14 35 14q47 0 66.5 -49t19.5 -102q0 -51 -18.5 -123t-46 -149.5t-58.5 -151.5q-35 -78 -69.5 -150.5t-47.5 -99.5 q55 0 117 -12t104 -41t42 -80v-15.5t-5 -17.5q-6 -20 -14 -20q-4 0 -4 10q0 4 2 9t2 11q0 8 -6 17q-18 25 -66.5 35t-105.5 11t-102 1q-16 -31 -49 -102.5t-69 -157.5t-65.5 -165t-42.5 -124q-8 -27 -22.5 -75t-26.5 -100t-12 -93q0 -53 26 -60q41 -8 84 22t87.5 74t84.5 74 q20 10 7 -8q-14 -10 -32 -38.5t-32 -58.5t-22 -44q-18 -39 -50 -58.5t-69 -19.5q-53 0 -98 39q-27 23 -37.5 58.5t-10.5 78.5q0 63 16.5 137t38 143.5t38.5 123.5q14 43 38.5 110.5t51 135t45.5 112.5q-12 0 -60.5 -4t-108 -11t-106.5 -14.5t-57 -11.5q-33 -31 -78 -80 t-93 -101t-89 -89q-76 -70 -157 -118t-167 -48q-111 0 -164 72.5t-53 177.5zM1401 1725q0 59 48 103t112 44q49 0 78.5 -27.5t29.5 -70.5q0 -61 -51.5 -107.5t-112.5 -46.5q-47 0 -75.5 30t-28.5 75zM1464 1725q0 -29 14 -46.5t34 -17.5q39 0 66.5 37t27.5 80q0 51 -45 51 q-41 0 -69 -35t-28 -69z" />
<glyph unicode="&#xc6;" horiz-adv-x="2365" d="M-35 244q0 133 76 262q41 72 106.5 151.5t146.5 151.5t168 116t167 44q12 0 29.5 -3t17.5 -10l-29 -4q-57 -8 -125 -49q-139 -84 -270 -244q-66 -78 -115 -159q-51 -82 -80.5 -165t-29.5 -153t32.5 -101.5t79.5 -31.5q53 0 117 35q84 49 138.5 98t99.5 102.5t104 112.5 l-80 -16q-47 -10 -92 -10q-59 0 -88 18.5t-29 42.5q0 39 58 68q41 16 86 24q45 6 77 15q4 0 5 -2q0 -4 -5 -5q-16 -2 -36.5 -14t-22.5 -18q10 2 41 5t70 8t73.5 10t51.5 9q92 88 185 213t178 258.5t149 243.5q6 12 28.5 54t49 93.5t49 94.5t30.5 59q6 12 10 13q4 0 5.5 -7.5 t-2.5 -13.5q-102 -240 -229.5 -492.5t-297.5 -502.5q16 2 57.5 3t86.5 3t79.5 4t42.5 4q33 78 71 183.5t72 217t53 213t15 173.5q16 10 35 24q16 14 35 14q47 0 66.5 -49t19.5 -102v-27.5t-4 -25.5l-29 -103l11 10q74 74 174 135.5t210.5 105.5t218 67.5t197.5 23.5 q51 0 111.5 -14t104.5 -46t44 -85q0 -63 -49 -107.5t-123.5 -72t-156.5 -43t-148 -21.5q-53 -4 -108.5 -7t-110.5 -3q-68 0 -135.5 4t-132.5 10q-61 -57 -103.5 -122.5t-42.5 -131.5q0 -41 32 -74.5t84 -54t110 -20.5q51 0 108.5 14t81.5 14q23 4 42.5 -22.5t19.5 -48.5 q0 -23 -21 -23q-96 -8 -214 -54t-231.5 -117.5t-204.5 -157.5t-136 -175q-8 -16 -12.5 -31.5t-4.5 -27.5q0 -84 201 -84q70 0 163 16.5t191.5 45t188.5 67.5q49 23 117.5 67t134 98t109.5 111.5t44 106.5q0 39 -53 39q-37 0 -92.5 -19.5t-117.5 -50t-119.5 -69.5t-96.5 -76 q-18 -18 -33 -18q-12 0 -12 14q0 23 24 47q25 20 74 59t109.5 78t122 66.5t108.5 27.5q61 0 106.5 -28.5t45.5 -106.5q0 -66 -39 -130t-99.5 -122.5t-128 -106.5t-127.5 -77q-119 -61 -272 -105.5t-315 -44.5q-33 0 -66 2.5t-65 6.5q-59 10 -107.5 34.5t-79.5 67.5 q-8 -27 -22.5 -76t-26.5 -101t-12 -93q0 -51 26 -58q41 -8 84 22t87.5 74t84.5 74q20 10 7 -8q-14 -10 -32 -38.5t-32 -58.5t-22 -44q-18 -39 -50 -58.5t-69 -19.5q-53 0 -98 39q-27 23 -37.5 58.5t-10.5 78.5q0 63 16.5 137t38 143.5t38.5 123.5q0 10 6 16 q14 43 37.5 106.5t48 127t43.5 108.5q-12 0 -60.5 -4t-108 -11t-106.5 -14.5t-57 -11.5q-33 -31 -78 -80t-93 -101t-89 -89q-76 -70 -157 -118t-167 -48q-111 0 -164 72.5t-53 177.5zM1176 377q90 72 202.5 133t227.5 96q-113 0 -177.5 44t-76.5 114q-43 -104 -86 -196.5 t-90 -190.5zM1628 1081q111 -2 220.5 5.5t209.5 23.5q43 6 108.5 19.5t131 34t109.5 48t44 60.5q0 23 -34.5 32t-80.5 11t-81 2q-119 0 -231.5 -34t-192.5 -75q-41 -23 -95.5 -54.5t-107.5 -72.5z" />
<glyph unicode="&#xc7;" horiz-adv-x="1355" d="M-12 1376q0 41 28.5 65.5t69.5 36t82 11.5q68 0 158 -22.5t177 -56.5t142 -71q8 -6 18.5 -15t10.5 -21q0 -8 -8.5 -11.5t-12.5 0.5q-106 55 -241.5 86t-255.5 31q-29 0 -57.5 -9t-28.5 -38q0 -25 17 -48.5t34 -39.5q84 -80 211 -128t250 -69q147 129 315 205 q121 53 251 78.5t284 25.5q51 -4 111.5 -17t103.5 -45t43 -89q0 -53 -38 -92t-97.5 -63.5t-124.5 -37.5q-61 -14 -132 -21t-136.5 -10t-108.5 -3q-80 0 -159 2t-157 10q-135 -119 -237 -272q-61 -98 -107.5 -206t-66.5 -225q-8 -37 -11.5 -74.5t-3.5 -74.5q0 -125 55.5 -208 t182.5 -83q74 0 160 33q84 31 169 86t162 127q78 72 138 151q59 80 95 163t36 159q0 45 -22.5 61.5t-63.5 16.5q-53 0 -117 -31q-63 -33 -129 -85t-127 -118q-63 -66 -111 -133q-49 -70 -77.5 -134t-28.5 -114q0 -10 -5 -24.5t-18 -14.5q-12 0 -14 12.5t-2 18.5 q0 57 22.5 121t45.5 115q41 76 99 155.5t132 148t158 110.5t172 42q80 0 126 -32.5t46 -116.5q0 -154 -78 -292t-201 -243q-125 -104 -279.5 -166.5t-308.5 -62.5q-182 0 -275 113.5t-93 292.5q0 43 4 83q23 207 126 393.5t259 334.5q-82 14 -179.5 40.5t-184.5 67.5 t-142 95.5t-55 125.5zM295 -510q12 -2 30.5 -4t39.5 -2q41 0 82 18.5t53 77.5q6 31 -7.5 51.5t-28.5 43t-15 59.5q0 66 50 94t113 28q18 0 19 -12q-45 -8 -71.5 -23.5t-26.5 -58.5q0 -29 12 -49t23.5 -40.5t11.5 -53.5q0 -55 -34 -95t-81 -61.5t-90 -21.5q-31 0 -53.5 11 t-26.5 38zM782 1059h78q92 0 198.5 8t212 26.5t191.5 47.5q23 6 47.5 14t44.5 21q18 8 46 27.5t28 41.5q0 27 -33.5 38t-76.5 13t-70 2q-188 0 -356 -63.5t-310 -175.5z" />
<glyph unicode="&#xc8;" horiz-adv-x="1425" d="M-25 43q0 16 2.5 33.5t6.5 36.5q20 70 84.5 143.5t156.5 142t196.5 122.5t205.5 85q-127 0 -191.5 54.5t-64.5 134.5q0 72 23.5 134t64.5 120q-129 16 -226.5 43.5t-144.5 56.5q-25 18 -25 27q0 6 11 6q8 0 32 -11q66 -33 165.5 -53t220.5 -31q70 78 170 139.5 t212.5 104.5t221 65.5t196.5 22.5q51 0 112.5 -14t105.5 -46t44 -85q0 -63 -49 -107.5t-123.5 -72t-156.5 -43t-148 -21.5q-53 -4 -108.5 -7t-110.5 -3q-68 0 -135.5 4t-134.5 10q-59 -55 -102.5 -119.5t-43.5 -132.5q0 -57 62.5 -104t165.5 -47q51 0 108.5 14t81.5 14 q23 4 41.5 -22.5t18.5 -48.5q0 -23 -21 -23q-63 -6 -137 -28q-150 -45 -305 -142q-76 -47 -142 -100q-68 -55 -120 -114.5t-82 -119.5q-8 -16 -12.5 -31.5t-4.5 -27.5q0 -84 203 -84q70 0 163 16.5t192.5 45t187.5 67.5q51 23 118.5 67t133 98t108.5 111.5t43 106.5 q0 39 -51 39q-37 0 -92 -19.5t-117.5 -50t-120 -69.5t-96.5 -76q-18 -16 -35 -16q-12 0 -12 14q0 10 6 21.5t21 23.5q25 20 73.5 59t109 78t122 66.5t108.5 27.5q61 0 106.5 -28.5t45.5 -106.5q0 -66 -39 -130t-99.5 -122.5t-129 -105.5t-127.5 -78q-119 -61 -272.5 -105.5 t-315.5 -44.5q-33 0 -65 2.5t-64 6.5q-98 16 -162 74.5t-64 152.5zM647 1081q227 -4 432 29q43 6 109.5 19.5t131 34t109 47t44.5 61.5q0 23 -35 32t-81 11t-81 2q-119 0 -231.5 -34t-194.5 -75q-39 -23 -93.5 -54.5t-109.5 -72.5zM989 1673q-2 6 10.5 21.5t38.5 21.5h8 q12 0 24.5 -5t22.5 -13q16 -10 55.5 -34.5t83.5 -51.5t72 -45q4 -2 6.5 -6t4.5 -6v-5q-1 -14 -13 -14q-4 0 -28.5 8.5t-51 18.5t-40.5 16q-35 16 -79 36.5t-78 37t-36 20.5z" />
<glyph unicode="&#xc9;" horiz-adv-x="1425" d="M-25 43q0 16 2.5 33.5t6.5 36.5q20 70 84.5 143.5t156.5 142t196.5 122.5t205.5 85q-127 0 -191.5 54.5t-64.5 134.5q0 72 23.5 134t64.5 120q-129 16 -226.5 43.5t-144.5 56.5q-25 18 -25 27q0 6 11 6q8 0 32 -11q66 -33 165.5 -53t220.5 -31q70 78 170 139.5 t212.5 104.5t221 65.5t196.5 22.5q51 0 112.5 -14t105.5 -46t44 -85q0 -63 -49 -107.5t-123.5 -72t-156.5 -43t-148 -21.5q-53 -4 -108.5 -7t-110.5 -3q-68 0 -135.5 4t-134.5 10q-59 -55 -102.5 -119.5t-43.5 -132.5q0 -57 62.5 -104t165.5 -47q51 0 108.5 14t81.5 14 q23 4 41.5 -22.5t18.5 -48.5q0 -23 -21 -23q-63 -6 -137 -28q-150 -45 -305 -142q-76 -47 -142 -100q-68 -55 -120 -114.5t-82 -119.5q-8 -16 -12.5 -31.5t-4.5 -27.5q0 -84 203 -84q70 0 163 16.5t192.5 45t187.5 67.5q51 23 118.5 67t133 98t108.5 111.5t43 106.5 q0 39 -51 39q-37 0 -92 -19.5t-117.5 -50t-120 -69.5t-96.5 -76q-18 -16 -35 -16q-12 0 -12 14q0 10 6 21.5t21 23.5q25 20 73.5 59t109 78t122 66.5t108.5 27.5q61 0 106.5 -28.5t45.5 -106.5q0 -66 -39 -130t-99.5 -122.5t-129 -105.5t-127.5 -78q-119 -61 -272.5 -105.5 t-315.5 -44.5q-33 0 -65 2.5t-64 6.5q-98 16 -162 74.5t-64 152.5zM647 1081q227 -4 432 29q43 6 109.5 19.5t131 34t109 47t44.5 61.5q0 23 -35 32t-81 11t-81 2q-119 0 -231.5 -34t-194.5 -75q-39 -23 -93.5 -54.5t-109.5 -72.5zM1130 1555q2 2 4 6t6 6q31 18 74 45 t83 51.5t54 34.5q12 10 26.5 16t29.5 2q29 -6 40 -21.5t9 -21.5q-2 -4 -36 -20.5t-78 -36.5t-79 -37q-12 -6 -39.5 -16t-51.5 -18.5t-30 -8.5q-16 0 -12 19z" />
<glyph unicode="&#xca;" horiz-adv-x="1425" d="M-25 43q0 16 2.5 33.5t6.5 36.5q20 70 84.5 143.5t156.5 142t196.5 122.5t205.5 85q-127 0 -191.5 54.5t-64.5 134.5q0 72 23.5 134t64.5 120q-129 16 -226.5 43.5t-144.5 56.5q-25 18 -25 27q0 6 11 6q8 0 32 -11q66 -33 165.5 -53t220.5 -31q70 78 170 139.5 t212.5 104.5t221 65.5t196.5 22.5q51 0 112.5 -14t105.5 -46t44 -85q0 -63 -49 -107.5t-123.5 -72t-156.5 -43t-148 -21.5q-53 -4 -108.5 -7t-110.5 -3q-68 0 -135.5 4t-134.5 10q-59 -55 -102.5 -119.5t-43.5 -132.5q0 -57 62.5 -104t165.5 -47q51 0 108.5 14t81.5 14 q23 4 41.5 -22.5t18.5 -48.5q0 -23 -21 -23q-63 -6 -137 -28q-150 -45 -305 -142q-76 -47 -142 -100q-68 -55 -120 -114.5t-82 -119.5q-8 -16 -12.5 -31.5t-4.5 -27.5q0 -84 203 -84q70 0 163 16.5t192.5 45t187.5 67.5q51 23 118.5 67t133 98t108.5 111.5t43 106.5 q0 39 -51 39q-37 0 -92 -19.5t-117.5 -50t-120 -69.5t-96.5 -76q-18 -16 -35 -16q-12 0 -12 14q0 10 6 21.5t21 23.5q25 20 73.5 59t109 78t122 66.5t108.5 27.5q61 0 106.5 -28.5t45.5 -106.5q0 -66 -39 -130t-99.5 -122.5t-129 -105.5t-127.5 -78q-119 -61 -272.5 -105.5 t-315.5 -44.5q-33 0 -65 2.5t-64 6.5q-98 16 -162 74.5t-64 152.5zM647 1081q227 -4 432 29q43 6 109.5 19.5t131 34t109 47t44.5 61.5q0 23 -35 32t-81 11t-81 2q-119 0 -231.5 -34t-194.5 -75q-39 -23 -93.5 -54.5t-109.5 -72.5zM1022 1542q0 8 10 19q45 35 104.5 71.5 t85.5 55.5q23 14 40.5 23t31.5 9t26.5 -9t22.5 -19q23 -20 71 -58t79 -73q6 -6 6 -13q0 -6 -6.5 -11t-10.5 -5q-2 0 -32.5 14.5t-65.5 32.5q-33 16 -57.5 32.5t-46.5 31.5q-20 -12 -47 -27.5t-66 -32.5q-25 -10 -65.5 -27.5t-67.5 -23.5q-12 -4 -12 10z" />
<glyph unicode="&#xcb;" horiz-adv-x="1425" d="M-25 43q0 16 2.5 33.5t6.5 36.5q20 70 84.5 143.5t156.5 142t196.5 122.5t205.5 85q-127 0 -191.5 54.5t-64.5 134.5q0 72 23.5 134t64.5 120q-129 16 -226.5 43.5t-144.5 56.5q-25 18 -25 27q0 6 11 6q8 0 32 -11q66 -33 165.5 -53t220.5 -31q70 78 170 139.5 t212.5 104.5t221 65.5t196.5 22.5q51 0 112.5 -14t105.5 -46t44 -85q0 -63 -49 -107.5t-123.5 -72t-156.5 -43t-148 -21.5q-53 -4 -108.5 -7t-110.5 -3q-68 0 -135.5 4t-134.5 10q-59 -55 -102.5 -119.5t-43.5 -132.5q0 -57 62.5 -104t165.5 -47q51 0 108.5 14t81.5 14 q23 4 41.5 -22.5t18.5 -48.5q0 -23 -21 -23q-63 -6 -137 -28q-150 -45 -305 -142q-76 -47 -142 -100q-68 -55 -120 -114.5t-82 -119.5q-8 -16 -12.5 -31.5t-4.5 -27.5q0 -84 203 -84q70 0 163 16.5t192.5 45t187.5 67.5q51 23 118.5 67t133 98t108.5 111.5t43 106.5 q0 39 -51 39q-37 0 -92 -19.5t-117.5 -50t-120 -69.5t-96.5 -76q-18 -16 -35 -16q-12 0 -12 14q0 10 6 21.5t21 23.5q25 20 73.5 59t109 78t122 66.5t108.5 27.5q61 0 106.5 -28.5t45.5 -106.5q0 -66 -39 -130t-99.5 -122.5t-129 -105.5t-127.5 -78q-119 -61 -272.5 -105.5 t-315.5 -44.5q-33 0 -65 2.5t-64 6.5q-98 16 -162 74.5t-64 152.5zM647 1081q227 -4 432 29q43 6 109.5 19.5t131 34t109 47t44.5 61.5q0 23 -35 32t-81 11t-81 2q-119 0 -231.5 -34t-194.5 -75q-39 -23 -93.5 -54.5t-109.5 -72.5zM1094 1591q0 10 6 21.5t12 15.5 q31 27 62 41q8 8 41 8q25 0 16 -18q-12 -16 -18 -46t-17.5 -53.5t-42.5 -23.5q-23 0 -35 11.5t-20 25.5q-4 6 -4 18zM1332 1591q0 10 6 21.5t12 15.5q31 27 61 41q8 8 41 8q25 0 17 -18q-12 -16 -18.5 -46t-17.5 -53.5t-42 -23.5q-23 0 -35 11.5t-20 25.5q-4 6 -4 18z" />
<glyph unicode="&#xcc;" horiz-adv-x="1196" d="M78 -94q0 29 16.5 63.5t34.5 46.5q29 18 64 13q33 -8 61 -13q12 -4 52 -8t91.5 -9t98.5 -9t71 -6q31 -2 90.5 2t118.5 10q10 96 51 223q41 125 99.5 260t128.5 271q70 133 135 245q63 113 116.5 194t82.5 111q35 35 61 52q-63 -4 -141 -23q-78 -20 -160 -54t-158 -83 q-78 -49 -137 -111q-59 -63 -96 -137t-37 -160q0 -20 6 -47.5t39 -42.5q10 -4 7 -9t-7 -5q-27 0 -67 17.5t-70.5 54t-30.5 96.5q0 96 53 172q51 76 131 132t176 95q94 39 181 66q70 20 137 34.5t94 16.5q18 2 34.5 4t33.5 6l49 6q14 0 20 -8q31 6 54 6q61 0 61 -41 q0 -33 -45 -75q-29 -27 -69 -79.5t-84 -120t-87 -137t-80 -130.5q-63 -113 -132.5 -243t-133 -269.5t-106.5 -276.5l18 6l10 4q25 6 42.5 8.5t27.5 2.5q18 0 18 -7q0 -4 -21.5 -14t-66.5 -18l-36 -6q-20 -76 -33 -148t-13 -137q0 -47 17 -64l4 -6q0 -6 -8 -5t-13 7 q-27 27 -40 88.5t-16 128t-1 111.5q-43 -10 -98 -23.5t-112.5 -26.5t-101.5 -22.5t-63 -11.5q-47 -4 -105 -10t-108 -6q-63 0 -88 12q-20 6 -20 37zM1280 1616q-2 6 10.5 21.5t38.5 21.5h8q12 0 24.5 -5t22.5 -13q16 -10 55.5 -34.5t83.5 -51.5t72 -45q4 -2 6.5 -6t4.5 -6 v-5q-1 -14 -13 -14q-4 0 -28.5 8.5t-51 18.5t-40.5 16q-35 16 -79 36.5t-78 37t-36 20.5z" />
<glyph unicode="&#xcd;" horiz-adv-x="1196" d="M78 -94q0 29 16.5 63.5t34.5 46.5q29 18 64 13q33 -8 61 -13q12 -4 52 -8t91.5 -9t98.5 -9t71 -6q31 -2 90.5 2t118.5 10q10 96 51 223q41 125 99.5 260t128.5 271q70 133 135 245q63 113 116.5 194t82.5 111q35 35 61 52q-63 -4 -141 -23q-78 -20 -160 -54t-158 -83 q-78 -49 -137 -111q-59 -63 -96 -137t-37 -160q0 -20 6 -47.5t39 -42.5q10 -4 7 -9t-7 -5q-27 0 -67 17.5t-70.5 54t-30.5 96.5q0 96 53 172q51 76 131 132t176 95q94 39 181 66q70 20 137 34.5t94 16.5q18 2 34.5 4t33.5 6l49 6q14 0 20 -8q31 6 54 6q61 0 61 -41 q0 -33 -45 -75q-29 -27 -69 -79.5t-84 -120t-87 -137t-80 -130.5q-63 -113 -132.5 -243t-133 -269.5t-106.5 -276.5l18 6l10 4q25 6 42.5 8.5t27.5 2.5q18 0 18 -7q0 -4 -21.5 -14t-66.5 -18l-36 -6q-20 -76 -33 -148t-13 -137q0 -47 17 -64l4 -6q0 -6 -8 -5t-13 7 q-27 27 -40 88.5t-16 128t-1 111.5q-43 -10 -98 -23.5t-112.5 -26.5t-101.5 -22.5t-63 -11.5q-47 -4 -105 -10t-108 -6q-63 0 -88 12q-20 6 -20 37zM1421 1498q2 2 4 6t6 6q31 18 74 45t83 51.5t54 34.5q12 10 26.5 16t29.5 2q29 -6 40 -21.5t9 -21.5q-2 -4 -36 -20.5 t-78 -36.5t-79 -37q-12 -6 -39.5 -16t-51.5 -18.5t-30 -8.5q-16 0 -12 19z" />
<glyph unicode="&#xce;" horiz-adv-x="1196" d="M78 -94q0 29 16.5 63.5t34.5 46.5q29 18 64 13q33 -8 61 -13q12 -4 52 -8t91.5 -9t98.5 -9t71 -6q31 -2 90.5 2t118.5 10q10 96 51 223q41 125 99.5 260t128.5 271q70 133 135 245q63 113 116.5 194t82.5 111q35 35 61 52q-63 -4 -141 -23q-78 -20 -160 -54t-158 -83 q-78 -49 -137 -111q-59 -63 -96 -137t-37 -160q0 -20 6 -47.5t39 -42.5q10 -4 7 -9t-7 -5q-27 0 -67 17.5t-70.5 54t-30.5 96.5q0 96 53 172q51 76 131 132t176 95q94 39 181 66q70 20 137 34.5t94 16.5q18 2 34.5 4t33.5 6l49 6q14 0 20 -8q31 6 54 6q61 0 61 -41 q0 -33 -45 -75q-29 -27 -69 -79.5t-84 -120t-87 -137t-80 -130.5q-63 -113 -132.5 -243t-133 -269.5t-106.5 -276.5l18 6l10 4q25 6 42.5 8.5t27.5 2.5q18 0 18 -7q0 -4 -21.5 -14t-66.5 -18l-36 -6q-20 -76 -33 -148t-13 -137q0 -47 17 -64l4 -6q0 -6 -8 -5t-13 7 q-27 27 -40 88.5t-16 128t-1 111.5q-43 -10 -98 -23.5t-112.5 -26.5t-101.5 -22.5t-63 -11.5q-47 -4 -105 -10t-108 -6q-63 0 -88 12q-20 6 -20 37zM1313 1485q0 8 10 19q45 35 104.5 71.5t85.5 55.5q23 14 40.5 23t31.5 9t26.5 -9t22.5 -19q23 -20 71 -58t79 -73 q6 -6 6 -13q0 -6 -6.5 -11t-10.5 -5q-2 0 -32.5 14.5t-65.5 32.5q-33 16 -57.5 32.5t-46.5 31.5q-20 -12 -47 -27.5t-66 -32.5q-25 -10 -65.5 -27.5t-67.5 -23.5q-12 -4 -12 10z" />
<glyph unicode="&#xcf;" horiz-adv-x="1196" d="M78 -94q0 29 16.5 63.5t34.5 46.5q29 18 64 13q33 -8 61 -13q12 -4 52 -8t91.5 -9t98.5 -9t71 -6q31 -2 90.5 2t118.5 10q10 96 51 223q41 125 99.5 260t128.5 271q70 133 135 245q63 113 116.5 194t82.5 111q35 35 61 52q-63 -4 -141 -23q-78 -20 -160 -54t-158 -83 q-78 -49 -137 -111q-59 -63 -96 -137t-37 -160q0 -20 6 -47.5t39 -42.5q10 -4 7 -9t-7 -5q-27 0 -67 17.5t-70.5 54t-30.5 96.5q0 96 53 172q51 76 131 132t176 95q94 39 181 66q70 20 137 34.5t94 16.5q18 2 34.5 4t33.5 6l49 6q14 0 20 -8q31 6 54 6q61 0 61 -41 q0 -33 -45 -75q-29 -27 -69 -79.5t-84 -120t-87 -137t-80 -130.5q-63 -113 -132.5 -243t-133 -269.5t-106.5 -276.5l18 6l10 4q25 6 42.5 8.5t27.5 2.5q18 0 18 -7q0 -4 -21.5 -14t-66.5 -18l-36 -6q-20 -76 -33 -148t-13 -137q0 -47 17 -64l4 -6q0 -6 -8 -5t-13 7 q-27 27 -40 88.5t-16 128t-1 111.5q-43 -10 -98 -23.5t-112.5 -26.5t-101.5 -22.5t-63 -11.5q-47 -4 -105 -10t-108 -6q-63 0 -88 12q-20 6 -20 37zM1384 1534q0 10 6 21.5t12 15.5q31 27 62 41q8 8 41 8q25 0 16 -18q-12 -16 -18 -46t-17.5 -53.5t-42.5 -23.5 q-23 0 -35 11.5t-20 25.5q-4 6 -4 18zM1622 1534q0 10 6 21.5t12 15.5q31 27 61 41q8 8 41 8q25 0 17 -18q-12 -16 -18.5 -46t-17.5 -53.5t-42 -23.5q-23 0 -35 11.5t-20 25.5q-4 6 -4 18z" />
<glyph unicode="&#xd0;" horiz-adv-x="1945" d="M29 659v17q0 23 10 29l1 1t3 1q8 0 8 -19q0 -23 9.5 -49.5t37.5 -26.5q29 0 94.5 17.5t145.5 62.5q98 55 231 172t295 328q39 51 70 114.5t58.5 112.5t60.5 64q18 8 39 8q33 0 52 -25.5t19 -79.5q0 -27 -6 -61q-6 -33 -33 -100q-29 -68 -67.5 -153t-83.5 -179 q-47 -96 -92 -186q-27 -49 -55.5 -105.5t-55.5 -107t-41 -80.5l-12 -27q10 2 20 2h19q59 117 124.5 236.5t131.5 226.5q98 154 180 268.5t158 190.5q76 74 151.5 111.5t159.5 37.5q117 0 204 -67.5t134 -185t47 -265.5q0 -137 -51 -276t-138.5 -268.5t-203.5 -241.5 q-117 -115 -248 -197q-133 -84 -273.5 -132t-273.5 -48q-92 0 -153 26q-63 25 -80 41q-18 18 -19 31q0 6 4 6t21 -10q23 -16 83 -22.5t120 -6.5q104 0 219.5 51.5t227.5 133.5t206 179t158 187q121 178 193.5 352.5t72.5 319.5q0 84 -22.5 156.5t-76 116.5t-145.5 44 q-51 0 -107.5 -29.5t-109.5 -74.5t-99 -95t-79 -91q-125 -166 -245 -340t-222 -363q12 2 24.5 2h22.5q63 0 90 -17.5t34 -44t7 -55.5q-10 12 -63 27q-29 6 -78 6q-16 0 -38 -1t-44 -3q-29 -59 -57.5 -119.5t-53.5 -122.5q-12 -33 -30.5 -87t-43 -109t-53 -93t-57.5 -38 q-49 0 -49 71q0 16 2 36t6 40q16 72 54 180.5t85 223.5q-57 -4 -104 -4q-59 0 -75.5 31.5t-16.5 66.5q41 -6 102 -6t131 4q25 57 48.5 108.5t45.5 94.5q27 53 63 131t72.5 168t69.5 177t53.5 159.5t22.5 115.5q-57 -143 -130 -251.5t-159 -202.5q-43 -45 -103.5 -103.5 t-127 -114t-132 -91t-116.5 -35.5q-92 0 -132 36.5t-46 87.5zM463 -201q0 -12 6 -12q8 0 18 18q6 12 28 59.5t46 100.5q29 66 68 153t84 183l-39 -4q-35 -74 -72 -155t-65 -150q-25 -55 -46.5 -107.5t-25.5 -66.5q-2 -6 -2 -19z" />
<glyph unicode="&#xd1;" horiz-adv-x="1619" d="M47 -283q0 51 20.5 111.5t52.5 122t64.5 115t57.5 90.5q43 72 110.5 170t138 198.5t123.5 180.5q96 145 176 289.5t119 279.5q14 8 37 17t39 7q31 -12 35 -38l29 2q43 -2 43 -43q0 -12 -4.5 -27.5t-10.5 -32.5q-18 -39 -43.5 -117.5t-53.5 -179t-52.5 -205t-38.5 -192.5 q-14 -78 -23.5 -158t-9.5 -151q0 -111 27.5 -186.5t99.5 -75.5q45 0 109 57q66 57 138.5 155.5t147.5 229.5q74 129 138 270q61 141 106 283.5t59 267.5q2 25 4.5 57.5t2.5 67.5q0 29 -2.5 55.5t-6.5 48.5q-18 84 -75 84q-33 0 -84 -34q-16 -12 -17 -2q0 10 10 26 q25 16 59 37t70 21q102 0 148.5 -68t46.5 -166q0 -113 -41 -261.5t-106 -309.5q-57 -141 -129 -281.5t-152 -261.5q-55 -84 -128 -156.5t-150.5 -116.5t-145.5 -44q-76 0 -115 53q-43 53 -61 142t-18 204q0 49 3 101.5t9 105.5q10 117 30.5 234.5t43.5 219.5 q-31 -47 -83.5 -116.5t-108.5 -145.5t-101 -135q-86 -119 -178.5 -256t-182.5 -297q-10 -18 -31.5 -54t-44 -78t-38 -83t-15.5 -67q0 -25 17 -31q14 -8 34 -8q37 0 82 22.5t91.5 50t84.5 43.5q2 2 7 2q-6 0 -33 -27.5t-53.5 -58t-36.5 -45.5q-48 -53 -107 -53q-66 0 -112 66 q-20 29 -21 75zM66 870q0 55 21.5 102.5t59.5 88.5q74 74 181.5 125t234.5 80q125 29 238 45q92 14 182 19t123 7h6q23 0 23 -8q0 -14 -37 -14q-39 0 -82 -1t-92 -7q-92 -14 -189.5 -43t-189.5 -72q-94 -43 -168 -98q-76 -57 -124 -127t-54 -150q-2 -6 -2 -22q0 -20 11 -42 t38 -30q10 -8 6 -12t-12 -2q-23 0 -65 18t-75.5 55t-33.5 88zM1080 1538q0 29 20.5 58.5t52 50t62.5 20.5q59 0 107 -26.5t98 -26.5q23 0 36 12.5t31 38.5q4 0 9 -3t5 -19q0 -31 -22.5 -55.5t-50.5 -40t-51 -15.5q-45 0 -75 17.5t-55.5 34t-60.5 16.5t-56.5 -26t-35.5 -40 q-14 -6 -14 4z" />
<glyph unicode="&#xd2;" horiz-adv-x="1384" d="M49 240v44t4 42q8 111 37 214t70 181q70 129 171 247.5t222 211.5q119 92 247 146t249 54q160 0 225 -81.5t65 -202.5q0 -53 -10 -110.5t-29 -117.5q35 -51 51.5 -115.5t16.5 -131.5q0 -59 -11 -117t-32 -107q-70 -158 -175.5 -281.5t-225.5 -207.5q-123 -86 -251 -130 t-243 -44q-117 0 -192 51q-78 51 -122 135t-59 191q-4 31 -6 63.5t-2 65.5zM180 160q0 -43 5 -82t16 -74q33 -109 109.5 -166t178.5 -57q92 0 188.5 39t190.5 119q92 80 179.5 202.5t160.5 292.5q29 61 58.5 152.5t29.5 171.5q0 39 -8 65q-23 -61 -47 -115.5t-47 -91.5 q-104 -174 -185 -278.5t-153 -169.5q-61 -55 -141 -104.5t-152 -92.5q-16 -10 -6 6t23 27q109 82 213 197.5t196 252t160 281.5l4 15q10 23 24.5 73.5t22.5 116.5l-37 16q-27 12 -57 13q-8 0 -16.5 -1t-16.5 -1l-65 -11q-18 -4 -7 13q12 14 31 18q6 0 16.5 1t22.5 1 q23 0 49.5 -4t55.5 -16l28 -13q4 29 6 58.5t2 58.5q0 70 -14 129.5t-47 97t-92 37.5q-125 0 -236.5 -59t-208.5 -158q-98 -100 -177 -228t-140 -265t-89 -254t-28 -213zM858 1620q-2 6 10.5 21.5t38.5 21.5h8q12 0 24.5 -5t22.5 -13q16 -10 55.5 -34.5t83.5 -51.5t72 -45 q4 -2 6.5 -6t4.5 -6v-5q-1 -14 -13 -14q-4 0 -28.5 8.5t-51 18.5t-40.5 16q-35 16 -79 36.5t-78 37t-36 20.5z" />
<glyph unicode="&#xd3;" horiz-adv-x="1384" d="M49 240v44t4 42q8 111 37 214t70 181q70 129 171 247.5t222 211.5q119 92 247 146t249 54q160 0 225 -81.5t65 -202.5q0 -53 -10 -110.5t-29 -117.5q35 -51 51.5 -115.5t16.5 -131.5q0 -59 -11 -117t-32 -107q-70 -158 -175.5 -281.5t-225.5 -207.5q-123 -86 -251 -130 t-243 -44q-117 0 -192 51q-78 51 -122 135t-59 191q-4 31 -6 63.5t-2 65.5zM180 160q0 -43 5 -82t16 -74q33 -109 109.5 -166t178.5 -57q92 0 188.5 39t190.5 119q92 80 179.5 202.5t160.5 292.5q29 61 58.5 152.5t29.5 171.5q0 39 -8 65q-23 -61 -47 -115.5t-47 -91.5 q-104 -174 -185 -278.5t-153 -169.5q-61 -55 -141 -104.5t-152 -92.5q-16 -10 -6 6t23 27q109 82 213 197.5t196 252t160 281.5l4 15q10 23 24.5 73.5t22.5 116.5l-37 16q-27 12 -57 13q-8 0 -16.5 -1t-16.5 -1l-65 -11q-18 -4 -7 13q12 14 31 18q6 0 16.5 1t22.5 1 q23 0 49.5 -4t55.5 -16l28 -13q4 29 6 58.5t2 58.5q0 70 -14 129.5t-47 97t-92 37.5q-125 0 -236.5 -59t-208.5 -158q-98 -100 -177 -228t-140 -265t-89 -254t-28 -213zM999 1502q2 2 4 6t6 6q31 18 74 45t83 51.5t54 34.5q12 10 26.5 16t29.5 2q29 -6 40 -21.5t9 -21.5 q-2 -4 -36 -20.5t-78 -36.5t-79 -37q-12 -6 -39.5 -16t-51.5 -18.5t-30 -8.5q-16 0 -12 19z" />
<glyph unicode="&#xd4;" horiz-adv-x="1384" d="M49 240v44t4 42q8 111 37 214t70 181q70 129 171 247.5t222 211.5q119 92 247 146t249 54q160 0 225 -81.5t65 -202.5q0 -53 -10 -110.5t-29 -117.5q35 -51 51.5 -115.5t16.5 -131.5q0 -59 -11 -117t-32 -107q-70 -158 -175.5 -281.5t-225.5 -207.5q-123 -86 -251 -130 t-243 -44q-117 0 -192 51q-78 51 -122 135t-59 191q-4 31 -6 63.5t-2 65.5zM180 160q0 -43 5 -82t16 -74q33 -109 109.5 -166t178.5 -57q92 0 188.5 39t190.5 119q92 80 179.5 202.5t160.5 292.5q29 61 58.5 152.5t29.5 171.5q0 39 -8 65q-23 -61 -47 -115.5t-47 -91.5 q-104 -174 -185 -278.5t-153 -169.5q-61 -55 -141 -104.5t-152 -92.5q-16 -10 -6 6t23 27q109 82 213 197.5t196 252t160 281.5l4 15q10 23 24.5 73.5t22.5 116.5l-37 16q-27 12 -57 13q-8 0 -16.5 -1t-16.5 -1l-65 -11q-18 -4 -7 13q12 14 31 18q6 0 16.5 1t22.5 1 q23 0 49.5 -4t55.5 -16l28 -13q4 29 6 58.5t2 58.5q0 70 -14 129.5t-47 97t-92 37.5q-125 0 -236.5 -59t-208.5 -158q-98 -100 -177 -228t-140 -265t-89 -254t-28 -213zM891 1489q0 8 10 19q45 35 104.5 71.5t85.5 55.5q23 14 40.5 23t31.5 9t26.5 -9t22.5 -19 q23 -20 71 -58t79 -73q6 -6 6 -13q0 -6 -6.5 -11t-10.5 -5q-2 0 -32.5 14.5t-65.5 32.5q-33 16 -57.5 32.5t-46.5 31.5q-20 -12 -47 -27.5t-66 -32.5q-25 -10 -65.5 -27.5t-67.5 -23.5q-12 -4 -12 10z" />
<glyph unicode="&#xd5;" horiz-adv-x="1384" d="M49 240v44t4 42q8 111 37 214t70 181q70 129 171 247.5t222 211.5q119 92 247 146t249 54q160 0 225 -81.5t65 -202.5q0 -53 -10 -110.5t-29 -117.5q35 -51 51.5 -115.5t16.5 -131.5q0 -59 -11 -117t-32 -107q-70 -158 -175.5 -281.5t-225.5 -207.5q-123 -86 -251 -130 t-243 -44q-117 0 -192 51q-78 51 -122 135t-59 191q-4 31 -6 63.5t-2 65.5zM180 160q0 -43 5 -82t16 -74q33 -109 109.5 -166t178.5 -57q92 0 188.5 39t190.5 119q92 80 179.5 202.5t160.5 292.5q29 61 58.5 152.5t29.5 171.5q0 39 -8 65q-23 -61 -47 -115.5t-47 -91.5 q-104 -174 -185 -278.5t-153 -169.5q-61 -55 -141 -104.5t-152 -92.5q-16 -10 -6 6t23 27q109 82 213 197.5t196 252t160 281.5l4 15q10 23 24.5 73.5t22.5 116.5l-37 16q-27 12 -57 13q-8 0 -16.5 -1t-16.5 -1l-65 -11q-18 -4 -7 13q12 14 31 18q6 0 16.5 1t22.5 1 q23 0 49.5 -4t55.5 -16l28 -13q4 29 6 58.5t2 58.5q0 70 -14 129.5t-47 97t-92 37.5q-125 0 -236.5 -59t-208.5 -158q-98 -100 -177 -228t-140 -265t-89 -254t-28 -213zM924 1485q0 29 20.5 58.5t52 50t62.5 20.5q59 0 107 -26.5t98 -26.5q23 0 36 12.5t31 38.5q4 0 9 -3 t5 -19q0 -31 -22.5 -55.5t-50.5 -40t-51 -15.5q-45 0 -75 17.5t-55.5 34t-60.5 16.5t-56.5 -26t-35.5 -40q-14 -6 -14 4z" />
<glyph unicode="&#xd6;" horiz-adv-x="1384" d="M49 240v44t4 42q8 111 37 214t70 181q70 129 171 247.5t222 211.5q119 92 247 146t249 54q160 0 225 -81.5t65 -202.5q0 -53 -10 -110.5t-29 -117.5q35 -51 51.5 -115.5t16.5 -131.5q0 -59 -11 -117t-32 -107q-70 -158 -175.5 -281.5t-225.5 -207.5q-123 -86 -251 -130 t-243 -44q-117 0 -192 51q-78 51 -122 135t-59 191q-4 31 -6 63.5t-2 65.5zM180 160q0 -43 5 -82t16 -74q33 -109 109.5 -166t178.5 -57q92 0 188.5 39t190.5 119q92 80 179.5 202.5t160.5 292.5q29 61 58.5 152.5t29.5 171.5q0 39 -8 65q-23 -61 -47 -115.5t-47 -91.5 q-104 -174 -185 -278.5t-153 -169.5q-61 -55 -141 -104.5t-152 -92.5q-16 -10 -6 6t23 27q109 82 213 197.5t196 252t160 281.5l4 15q10 23 24.5 73.5t22.5 116.5l-37 16q-27 12 -57 13q-8 0 -16.5 -1t-16.5 -1l-65 -11q-18 -4 -7 13q12 14 31 18q6 0 16.5 1t22.5 1 q23 0 49.5 -4t55.5 -16l28 -13q4 29 6 58.5t2 58.5q0 70 -14 129.5t-47 97t-92 37.5q-125 0 -236.5 -59t-208.5 -158q-98 -100 -177 -228t-140 -265t-89 -254t-28 -213zM963 1538q0 10 6 21.5t12 15.5q31 27 62 41q8 8 41 8q25 0 16 -18q-12 -16 -18 -46t-17.5 -53.5 t-42.5 -23.5q-23 0 -35 11.5t-20 25.5q-4 6 -4 18zM1201 1538q0 10 6 21.5t12 15.5q31 27 61 41q8 8 41 8q25 0 17 -18q-12 -16 -18.5 -46t-17.5 -53.5t-42 -23.5q-23 0 -35 11.5t-20 25.5q-4 6 -4 18z" />
<glyph unicode="&#xd7;" horiz-adv-x="821" d="M211 193.5q8 23.5 39 54.5q37 33 96.5 81t140.5 113l-45 70l-36 57q-18 29 -27 45q-12 23 -12 39q0 25 19.5 38.5t49.5 13.5q31 0 48.5 -35t32.5 -82t40 -86q45 35 95 80t96.5 85t78.5 60q16 10 25 10q10 0 3 -21.5t-21 -58.5l-250 -198q23 -43 58.5 -103.5t86.5 -140.5 v-2q0 -10 -10 -15t-23 -5q-16 0 -31.5 7t-15.5 15q-29 27 -63.5 72t-77.5 112l-117 -94q-66 -53 -151 -117q-19 -18 -27 -18q-10 0 -2 23.5z" />
<glyph unicode="&#xd8;" horiz-adv-x="1384" d="M49 240v44t4 42q8 111 37 214t70 181q70 129 171 247.5t222 211.5q119 92 247 146t249 54q160 0 225 -81.5t65 -202.5q0 -53 -10 -110.5t-29 -117.5q35 -51 51.5 -115.5t16.5 -131.5q0 -59 -11 -117t-32 -107q-70 -158 -175.5 -281.5t-225.5 -207.5q-123 -86 -251 -130 t-243 -44q-117 0 -192 51q-78 51 -122 135t-59 191q-4 31 -6 63.5t-2 65.5zM180 160q0 -43 5 -82t16 -74q33 -109 109.5 -166t178.5 -57q92 0 188.5 39t190.5 119q92 80 179.5 202.5t160.5 292.5q29 61 58.5 152.5t29.5 171.5q0 39 -8 65q-23 -61 -47 -115.5t-47 -91.5 q-104 -174 -185 -278.5t-153 -169.5q-61 -55 -141 -104.5t-152 -92.5q-16 -10 -6 6t23 27q109 82 213 197.5t196 252t160 281.5l4 15q10 23 24.5 73.5t22.5 116.5l-37 16q-27 12 -57 13q-8 0 -16.5 -1t-16.5 -1l-65 -11q-18 -4 -7 13q12 14 31 18q6 0 16.5 1t22.5 1 q23 0 49.5 -4t55.5 -16l28 -13q4 29 6 58.5t2 58.5q0 70 -14 129.5t-47 97t-92 37.5q-125 0 -236.5 -59t-208.5 -158q-98 -100 -177 -228t-140 -265t-89 -254t-28 -213zM227 -258q18 106 111.5 306t234.5 441q141 244 319.5 508.5t367.5 503.5q0 2 4 2q8 -2 18 -31.5 t16.5 -66.5t1.5 -57q0 -6 -6 -19q-39 -51 -125 -168q-84 -119 -192.5 -275.5t-224.5 -332.5q-117 -178 -215 -342q-98 -166 -168 -301t-82 -205l-2 -22l-2 -15q-4 -30 -29 -26q-18 2 -24.5 38.5t-2.5 61.5z" />
<glyph unicode="&#xd9;" d="M113 627v16q0 27 10 31h6q8 0 8 -17q0 -23 7.5 -50t39.5 -27q27 0 92.5 17t145.5 62q98 55 231 172t295 328q39 53 71 113.5t60.5 110t57.5 67.5q35 23 47 6q27 -14 37 -46t10 -73q0 -61 -21.5 -141t-57.5 -164t-79 -158q-39 -74 -88 -160.5t-97 -170.5t-86 -151.5 t-54 -102.5q-20 -41 -43 -92.5t-38.5 -97.5t-15.5 -76q0 -45 39 -46q18 0 58 17q53 25 114.5 75t123 112.5t114.5 125t88 107.5q84 104 169 222t161 236q74 119 132 235t91 216q23 8 48.5 14t49.5 6q35 0 55 -14q47 -33 48 -96q0 -33 -25 -111q-23 -66 -55.5 -146.5 t-71.5 -170.5l-78 -180q-23 -47 -47.5 -103.5t-46 -106.5t-33.5 -83q-18 -49 -46 -118t-55.5 -143.5t-50 -141t-34.5 -111.5q-6 -29 -19.5 -78t-25 -103.5t-11.5 -95.5q0 -63 39 -63q45 0 89.5 38t89.5 88t92 83q8 8 11 5t-5 -11q-12 -12 -30.5 -43t-35 -63t-24.5 -48 q-20 -45 -64.5 -70.5t-93.5 -25.5q-51 0 -96 26q-39 27 -54.5 75t-15.5 108q0 90 24.5 188t49.5 162q27 76 70 187.5t91 237.5t92 245.5t77 209.5q25 74 53.5 173.5t40.5 177.5q-37 -104 -96.5 -223t-133.5 -238q-74 -121 -154.5 -234.5t-160.5 -208.5q-55 -66 -129 -138.5 t-157 -133.5t-162 -96q-33 -14 -64 -21.5t-55 -7.5q-61 0 -93 38t-32 99t35 142q18 37 59 112.5t94 169.5l215 393q88 160 159 298.5t85 224.5q-25 -41 -57.5 -99.5t-67.5 -118t-61 -102.5q-49 -80 -100.5 -152.5t-106.5 -129.5q-59 -63 -137 -137t-167 -125.5t-184 -51.5 q-86 -4 -122.5 44t-36.5 102zM1272 1673q-2 6 10.5 21.5t38.5 21.5h8q12 0 24.5 -5t22.5 -13q16 -10 55.5 -34.5t83.5 -51.5t72 -45q4 -2 6.5 -6t4.5 -6v-5q-1 -14 -13 -14q-4 0 -28.5 8.5t-51 18.5t-40.5 16q-35 16 -79 36.5t-78 37t-36 20.5z" />
<glyph unicode="&#xda;" d="M113 627v16q0 27 10 31h6q8 0 8 -17q0 -23 7.5 -50t39.5 -27q27 0 92.5 17t145.5 62q98 55 231 172t295 328q39 53 71 113.5t60.5 110t57.5 67.5q35 23 47 6q27 -14 37 -46t10 -73q0 -61 -21.5 -141t-57.5 -164t-79 -158q-39 -74 -88 -160.5t-97 -170.5t-86 -151.5 t-54 -102.5q-20 -41 -43 -92.5t-38.5 -97.5t-15.5 -76q0 -45 39 -46q18 0 58 17q53 25 114.5 75t123 112.5t114.5 125t88 107.5q84 104 169 222t161 236q74 119 132 235t91 216q23 8 48.5 14t49.5 6q35 0 55 -14q47 -33 48 -96q0 -33 -25 -111q-23 -66 -55.5 -146.5 t-71.5 -170.5l-78 -180q-23 -47 -47.5 -103.5t-46 -106.5t-33.5 -83q-18 -49 -46 -118t-55.5 -143.5t-50 -141t-34.5 -111.5q-6 -29 -19.5 -78t-25 -103.5t-11.5 -95.5q0 -63 39 -63q45 0 89.5 38t89.5 88t92 83q8 8 11 5t-5 -11q-12 -12 -30.5 -43t-35 -63t-24.5 -48 q-20 -45 -64.5 -70.5t-93.5 -25.5q-51 0 -96 26q-39 27 -54.5 75t-15.5 108q0 90 24.5 188t49.5 162q27 76 70 187.5t91 237.5t92 245.5t77 209.5q25 74 53.5 173.5t40.5 177.5q-37 -104 -96.5 -223t-133.5 -238q-74 -121 -154.5 -234.5t-160.5 -208.5q-55 -66 -129 -138.5 t-157 -133.5t-162 -96q-33 -14 -64 -21.5t-55 -7.5q-61 0 -93 38t-32 99t35 142q18 37 59 112.5t94 169.5l215 393q88 160 159 298.5t85 224.5q-25 -41 -57.5 -99.5t-67.5 -118t-61 -102.5q-49 -80 -100.5 -152.5t-106.5 -129.5q-59 -63 -137 -137t-167 -125.5t-184 -51.5 q-86 -4 -122.5 44t-36.5 102zM1413 1555q2 2 4 6t6 6q31 18 74 45t83 51.5t54 34.5q12 10 26.5 16t29.5 2q29 -6 40 -21.5t9 -21.5q-2 -4 -36 -20.5t-78 -36.5t-79 -37q-12 -6 -39.5 -16t-51.5 -18.5t-30 -8.5q-16 0 -12 19z" />
<glyph unicode="&#xdb;" d="M113 627v16q0 27 10 31h6q8 0 8 -17q0 -23 7.5 -50t39.5 -27q27 0 92.5 17t145.5 62q98 55 231 172t295 328q39 53 71 113.5t60.5 110t57.5 67.5q35 23 47 6q27 -14 37 -46t10 -73q0 -61 -21.5 -141t-57.5 -164t-79 -158q-39 -74 -88 -160.5t-97 -170.5t-86 -151.5 t-54 -102.5q-20 -41 -43 -92.5t-38.5 -97.5t-15.5 -76q0 -45 39 -46q18 0 58 17q53 25 114.5 75t123 112.5t114.5 125t88 107.5q84 104 169 222t161 236q74 119 132 235t91 216q23 8 48.5 14t49.5 6q35 0 55 -14q47 -33 48 -96q0 -33 -25 -111q-23 -66 -55.5 -146.5 t-71.5 -170.5l-78 -180q-23 -47 -47.5 -103.5t-46 -106.5t-33.5 -83q-18 -49 -46 -118t-55.5 -143.5t-50 -141t-34.5 -111.5q-6 -29 -19.5 -78t-25 -103.5t-11.5 -95.5q0 -63 39 -63q45 0 89.5 38t89.5 88t92 83q8 8 11 5t-5 -11q-12 -12 -30.5 -43t-35 -63t-24.5 -48 q-20 -45 -64.5 -70.5t-93.5 -25.5q-51 0 -96 26q-39 27 -54.5 75t-15.5 108q0 90 24.5 188t49.5 162q27 76 70 187.5t91 237.5t92 245.5t77 209.5q25 74 53.5 173.5t40.5 177.5q-37 -104 -96.5 -223t-133.5 -238q-74 -121 -154.5 -234.5t-160.5 -208.5q-55 -66 -129 -138.5 t-157 -133.5t-162 -96q-33 -14 -64 -21.5t-55 -7.5q-61 0 -93 38t-32 99t35 142q18 37 59 112.5t94 169.5l215 393q88 160 159 298.5t85 224.5q-25 -41 -57.5 -99.5t-67.5 -118t-61 -102.5q-49 -80 -100.5 -152.5t-106.5 -129.5q-59 -63 -137 -137t-167 -125.5t-184 -51.5 q-86 -4 -122.5 44t-36.5 102zM1305 1542q0 8 10 19q45 35 104.5 71.5t85.5 55.5q23 14 40.5 23t31.5 9t26.5 -9t22.5 -19q23 -20 71 -58t79 -73q6 -6 6 -13q0 -6 -6.5 -11t-10.5 -5q-2 0 -32.5 14.5t-65.5 32.5q-33 16 -57.5 32.5t-46.5 31.5q-20 -12 -47 -27.5t-66 -32.5 q-25 -10 -65.5 -27.5t-67.5 -23.5q-12 -4 -12 10z" />
<glyph unicode="&#xdc;" d="M113 627v16q0 27 10 31h6q8 0 8 -17q0 -23 7.5 -50t39.5 -27q27 0 92.5 17t145.5 62q98 55 231 172t295 328q39 53 71 113.5t60.5 110t57.5 67.5q35 23 47 6q27 -14 37 -46t10 -73q0 -61 -21.5 -141t-57.5 -164t-79 -158q-39 -74 -88 -160.5t-97 -170.5t-86 -151.5 t-54 -102.5q-20 -41 -43 -92.5t-38.5 -97.5t-15.5 -76q0 -45 39 -46q18 0 58 17q53 25 114.5 75t123 112.5t114.5 125t88 107.5q84 104 169 222t161 236q74 119 132 235t91 216q23 8 48.5 14t49.5 6q35 0 55 -14q47 -33 48 -96q0 -33 -25 -111q-23 -66 -55.5 -146.5 t-71.5 -170.5l-78 -180q-23 -47 -47.5 -103.5t-46 -106.5t-33.5 -83q-18 -49 -46 -118t-55.5 -143.5t-50 -141t-34.5 -111.5q-6 -29 -19.5 -78t-25 -103.5t-11.5 -95.5q0 -63 39 -63q45 0 89.5 38t89.5 88t92 83q8 8 11 5t-5 -11q-12 -12 -30.5 -43t-35 -63t-24.5 -48 q-20 -45 -64.5 -70.5t-93.5 -25.5q-51 0 -96 26q-39 27 -54.5 75t-15.5 108q0 90 24.5 188t49.5 162q27 76 70 187.5t91 237.5t92 245.5t77 209.5q25 74 53.5 173.5t40.5 177.5q-37 -104 -96.5 -223t-133.5 -238q-74 -121 -154.5 -234.5t-160.5 -208.5q-55 -66 -129 -138.5 t-157 -133.5t-162 -96q-33 -14 -64 -21.5t-55 -7.5q-61 0 -93 38t-32 99t35 142q18 37 59 112.5t94 169.5l215 393q88 160 159 298.5t85 224.5q-25 -41 -57.5 -99.5t-67.5 -118t-61 -102.5q-49 -80 -100.5 -152.5t-106.5 -129.5q-59 -63 -137 -137t-167 -125.5t-184 -51.5 q-86 -4 -122.5 44t-36.5 102zM1376 1591q0 10 6 21.5t12 15.5q31 27 62 41q8 8 41 8q25 0 16 -18q-12 -16 -18 -46t-17.5 -53.5t-42.5 -23.5q-23 0 -35 11.5t-20 25.5q-4 6 -4 18zM1614 1591q0 10 6 21.5t12 15.5q31 27 61 41q8 8 41 8q25 0 17 -18q-12 -16 -18.5 -46 t-17.5 -53.5t-42 -23.5q-23 0 -35 11.5t-20 25.5q-4 6 -4 18z" />
<glyph unicode="&#xdd;" d="M-33 584q0 61 34 117.5t84 103.5t97 80l54 37q10 4 11 -1.5t-7 -11.5q-25 -25 -57.5 -75t-61.5 -109t-47 -113q-16 -53 -17 -96q0 -39 16.5 -64.5t53.5 -25.5q80 0 170 61t182 157.5t185 217.5q92 119 174 236q43 63 92 136t93 136.5t73 99.5q18 25 32 39q12 14 25 4 q76 -57 76 -165q0 -45 -13.5 -102.5t-41.5 -129.5q-18 -45 -50 -110.5t-70 -139t-74 -142.5t-60.5 -119t-30.5 -68q-23 -57 -43.5 -121t-20.5 -103q0 -41 29 -41q37 0 85 37t99.5 92.5t96.5 111.5t73 95q43 57 94.5 125t97.5 134.5t70 121.5q12 27 22.5 45.5t18.5 30.5 q-6 12 -12 19.5t-12 13.5q-23 10 -23 24q0 16 17.5 28.5t40.5 12.5q18 0 38.5 -10t36.5 -39q18 -27 26.5 -83t8.5 -128q0 -90 -11 -195.5t-32.5 -208t-52.5 -186.5q63 -6 118.5 -28.5t88.5 -65.5q12 -14 12 -26q0 -18 -14 0q-16 20 -57.5 28t-90.5 10t-90 2 q-111 -268 -240.5 -455.5t-263.5 -309.5q-135 -123 -264 -191t-235 -98q-88 -25 -160 -25q-76 0 -125 27.5t-72 77.5q-16 37 -16 79q0 66 36 149t107 173q86 109 226.5 218.5t302.5 201.5q162 90 325.5 153.5t298.5 79.5q37 86 62.5 186.5t39 201t13.5 184.5q0 35 -3 65.5 t-7 57.5l-12 -29l-15 -33q-61 -111 -134 -219.5t-140 -196.5q-61 -78 -152.5 -157.5t-181.5 -122.5q-45 -23 -82 -23q-45 0 -68.5 32t-23.5 83q0 47 22 111q12 31 42 98t59 131q33 78 69.5 164t67.5 166q33 84 69.5 177t60.5 173t21 125l-10 -23l-69 -121q-20 -35 -40 -67.5 t-40 -67.5l-92 -153q-51 -88 -110.5 -178.5t-127.5 -176.5q-68 -88 -143 -155q-78 -68 -164 -110t-180 -42q-92 0 -139.5 52.5t-47.5 138.5zM186 -666q0 -33 13 -59q16 -43 57 -59q18 -9 49 -9q41 0 94.5 18.5t116.5 61.5q162 104 298 226t245 247t189.5 243t129.5 214 q-119 -25 -258 -77t-276 -126q-139 -74 -268.5 -166t-225.5 -192q-70 -76 -108 -148q-55 -102 -56 -174zM1364 1518q2 2 4 6t6 6q31 18 74 45t83 51.5t54 34.5q12 10 26.5 16t29.5 2q29 -6 40 -21.5t9 -21.5q-2 -4 -36 -20.5t-78 -36.5t-79 -37q-12 -6 -39.5 -16 t-51.5 -18.5t-30 -8.5q-16 0 -12 19z" />
<glyph unicode="&#xde;" horiz-adv-x="1001" d="M14 -236q6 51 38 167t85 278t125 358.5t160 407.5q-14 -2 -28.5 -3t-24.5 -1q-8 -2 -18.5 -2h-20.5q-106 0 -107 63q0 14 10 39q59 6 122 18.5t126 26.5l90 205q23 53 47.5 105.5t47.5 103.5l2 3t8 5q10 0 30.5 -20.5t39 -46t20.5 -44.5q0 -12 -4 -18l-43 -100l-66 -150 q84 18 141.5 27.5t110.5 9.5q139 0 199.5 -77t60.5 -185q0 -78 -39 -164t-104.5 -172t-151.5 -162q-43 -39 -90 -70.5t-96 -56.5q-63 -33 -130 -52t-132 -19q-37 0 -70 7t-67 17l-189 -485q-18 -47 -57 -47q-31 0 -25 34zM315 344q39 4 79 12.5t83 22.5q88 29 173 74 t167 104q74 53 137.5 120.5t103.5 142.5t40 147q0 47 -44 74.5t-141 27.5q-66 0 -153.5 -16.5t-163.5 -34.5q-68 -154 -139.5 -329t-141.5 -345z" />
<glyph unicode="&#xdf;" horiz-adv-x="823" d="M-393 -231q0 20 8 49.5t33.5 54.5t75.5 25q-20 -31 -34 -67t-14 -58q0 -33 18.5 -70t74.5 -37q59 0 114.5 73t120.5 222q33 74 77 190.5t96 252t104.5 263.5t99.5 224q55 109 130 185.5t185 76.5q59 0 107.5 -35t48.5 -108q0 -68 -55.5 -119t-151.5 -88q-74 -27 -74 -72 q0 -10 4 -16q53 -88 81 -174t28 -199q0 -70 -14.5 -142.5t-44.5 -142.5q59 41 114.5 89.5t83.5 80.5q23 23 41.5 44.5t34.5 43.5q6 6 10 7q12 0 13 -19q0 -10 -9 -18q-43 -51 -88 -108.5t-98 -100.5q-23 -18 -57.5 -47t-69.5 -47q-57 -29 -106 -29q-76 0 -162 63 q-37 25 -66 74q-14 25 -14 55q0 31 22 31q10 0 25.5 -17.5t28.5 -43.5q20 -41 39.5 -71t64.5 -30q41 0 68.5 40t45 99.5t26 123t8.5 108.5q0 111 -15.5 179.5t-31 108.5t-15.5 64q0 18 10 31q14 16 50 46t77 65.5t74 75.5t39 79q0 4 1 9.5t1 9.5q0 25 -15.5 41t-62.5 16 q-70 0 -125 -79t-112 -210q-39 -92 -86 -220t-97.5 -266t-103.5 -266t-109 -221q-55 -90 -128 -151.5t-169 -61.5q-57 0 -106 38t-49 96z" />
<glyph unicode="&#xe0;" horiz-adv-x="733" d="M72 266q0 55 24.5 121t55.5 117q53 84 128.5 164t161.5 132t164 52q41 0 80 -13.5t78 -43.5q31 -25 31 -54t-25 -28q-18 0 -27 24q-27 70 -86 70q-53 0 -118.5 -47t-128.5 -113q-72 -72 -127.5 -158t-83.5 -155q-27 -63 -27 -94q0 -39 31 -39q35 0 102 53q45 35 98.5 91 t100.5 111.5t74 86.5q23 35 36 55q8 12 26.5 18.5t39.5 6.5q25 0 41 -9.5t8 -27.5t-35.5 -70.5t-61.5 -118t-63.5 -125t-44.5 -92.5q-29 -63 -28 -94q0 -27 20 -27q14 0 43 17q45 23 90 64.5t86 88.5q23 23 41.5 43.5t34.5 42.5q6 6 10 7q12 0 13 -19q0 -10 -9 -18 q-23 -29 -45 -55.5t-47 -53.5q-23 -27 -46 -52.5t-48 -47.5q-45 -43 -85 -63.5t-71 -20.5q-82 0 -82 106q0 37 13 82q4 14 18 47t32.5 73t35 76t22.5 56q-43 -66 -95 -130t-111.5 -107t-127.5 -43q-63 2 -89.5 34.5t-26.5 79.5zM455 1130q0 8 14.5 20.5t42.5 12.5 q14 0 27.5 -9t21.5 -20q14 -12 41 -39.5t59 -57.5t56 -54q6 -6 6 -15q0 -18 -14 -14q-4 2 -26.5 14.5t-47 29t-37.5 24.5q-18 12 -52 35.5t-61.5 46t-29.5 26.5z" />
<glyph unicode="&#xe1;" horiz-adv-x="733" d="M72 266q0 55 24.5 121t55.5 117q53 84 128.5 164t161.5 132t164 52q41 0 80 -13.5t78 -43.5q31 -25 31 -54t-25 -28q-18 0 -27 24q-27 70 -86 70q-53 0 -118.5 -47t-128.5 -113q-72 -72 -127.5 -158t-83.5 -155q-27 -63 -27 -94q0 -39 31 -39q35 0 102 53q45 35 98.5 91 t100.5 111.5t74 86.5q23 35 36 55q8 12 26.5 18.5t39.5 6.5q25 0 41 -9.5t8 -27.5t-35.5 -70.5t-61.5 -118t-63.5 -125t-44.5 -92.5q-29 -63 -28 -94q0 -27 20 -27q14 0 43 17q45 23 90 64.5t86 88.5q23 23 41.5 43.5t34.5 42.5q6 6 10 7q12 0 13 -19q0 -10 -9 -18 q-23 -29 -45 -55.5t-47 -53.5q-23 -27 -46 -52.5t-48 -47.5q-45 -43 -85 -63.5t-71 -20.5q-82 0 -82 106q0 37 13 82q4 14 18 47t32.5 73t35 76t22.5 56q-43 -66 -95 -130t-111.5 -107t-127.5 -43q-63 2 -89.5 34.5t-26.5 79.5zM596 968q0 8 6 15q39 35 87 83t69 68 q10 10 22.5 19.5t26.5 9.5q29 0 43 -12.5t14 -20.5q0 -4 -28.5 -26.5t-62.5 -46t-52 -35.5q-12 -8 -37 -24.5t-46.5 -29t-27.5 -14.5h-2q-12 0 -12 14z" />
<glyph unicode="&#xe2;" horiz-adv-x="733" d="M72 266q0 55 24.5 121t55.5 117q53 84 128.5 164t161.5 132t164 52q41 0 80 -13.5t78 -43.5q31 -25 31 -54t-25 -28q-18 0 -27 24q-27 70 -86 70q-53 0 -118.5 -47t-128.5 -113q-72 -72 -127.5 -158t-83.5 -155q-27 -63 -27 -94q0 -39 31 -39q35 0 102 53q45 35 98.5 91 t100.5 111.5t74 86.5q23 35 36 55q8 12 26.5 18.5t39.5 6.5q25 0 41 -9.5t8 -27.5t-35.5 -70.5t-61.5 -118t-63.5 -125t-44.5 -92.5q-29 -63 -28 -94q0 -27 20 -27q14 0 43 17q45 23 90 64.5t86 88.5q23 23 41.5 43.5t34.5 42.5q6 6 10 7q12 0 13 -19q0 -10 -9 -18 q-23 -29 -45 -55.5t-47 -53.5q-23 -27 -46 -52.5t-48 -47.5q-45 -43 -85 -63.5t-71 -20.5q-82 0 -82 106q0 37 13 82q4 14 18 47t32.5 73t35 76t22.5 56q-43 -66 -95 -130t-111.5 -107t-127.5 -43q-63 2 -89.5 34.5t-26.5 79.5zM467 960q0 8 10 19q31 23 67 53.5t66.5 58 t49.5 39.5q29 29 59 29q14 0 27.5 -9.5t21.5 -19.5q16 -20 57 -68t72 -83q6 -6 6 -13q0 -8 -6 -13t-12 -3q-6 0 -25.5 13.5t-41 28.5t-32.5 26q-14 10 -36.5 27.5t-44.5 35.5q-27 -18 -56.5 -35.5t-46.5 -27.5q-12 -10 -39.5 -25.5t-52.5 -29t-31 -13.5q-4 -2 -8 2t-4 8z " />
<glyph unicode="&#xe3;" horiz-adv-x="733" d="M72 266q0 55 24.5 121t55.5 117q53 84 128.5 164t161.5 132t164 52q41 0 80 -13.5t78 -43.5q31 -25 31 -54t-25 -28q-18 0 -27 24q-27 70 -86 70q-53 0 -118.5 -47t-128.5 -113q-72 -72 -127.5 -158t-83.5 -155q-27 -63 -27 -94q0 -39 31 -39q35 0 102 53q45 35 98.5 91 t100.5 111.5t74 86.5q23 35 36 55q8 12 26.5 18.5t39.5 6.5q25 0 41 -9.5t8 -27.5t-35.5 -70.5t-61.5 -118t-63.5 -125t-44.5 -92.5q-29 -63 -28 -94q0 -27 20 -27q14 0 43 17q45 23 90 64.5t86 88.5q23 23 41.5 43.5t34.5 42.5q6 6 10 7q12 0 13 -19q0 -10 -9 -18 q-23 -29 -45 -55.5t-47 -53.5q-23 -27 -46 -52.5t-48 -47.5q-45 -43 -85 -63.5t-71 -20.5q-82 0 -82 106q0 37 13 82q4 14 18 47t32.5 73t35 76t22.5 56q-43 -66 -95 -130t-111.5 -107t-127.5 -43q-63 2 -89.5 34.5t-26.5 79.5zM494 962q0 25 18.5 52.5t47 46t57.5 18.5 q53 0 97 -24.5t89 -24.5q20 0 32.5 11t29.5 36q4 0 9 -2t5 -18q0 -27 -20.5 -50.5t-47.5 -37t-47 -13.5q-41 0 -67.5 15.5t-50 31t-54.5 15.5q-33 0 -52 -23.5t-32 -36.5q-14 -6 -14 4z" />
<glyph unicode="&#xe4;" horiz-adv-x="733" d="M72 266q0 55 24.5 121t55.5 117q53 84 128.5 164t161.5 132t164 52q41 0 80 -13.5t78 -43.5q31 -25 31 -54t-25 -28q-18 0 -27 24q-27 70 -86 70q-53 0 -118.5 -47t-128.5 -113q-72 -72 -127.5 -158t-83.5 -155q-27 -63 -27 -94q0 -39 31 -39q35 0 102 53q45 35 98.5 91 t100.5 111.5t74 86.5q23 35 36 55q8 12 26.5 18.5t39.5 6.5q25 0 41 -9.5t8 -27.5t-35.5 -70.5t-61.5 -118t-63.5 -125t-44.5 -92.5q-29 -63 -28 -94q0 -27 20 -27q14 0 43 17q45 23 90 64.5t86 88.5q23 23 41.5 43.5t34.5 42.5q6 6 10 7q12 0 13 -19q0 -10 -9 -18 q-23 -29 -45 -55.5t-47 -53.5q-23 -27 -46 -52.5t-48 -47.5q-45 -43 -85 -63.5t-71 -20.5q-82 0 -82 106q0 37 13 82q4 14 18 47t32.5 73t35 76t22.5 56q-43 -66 -95 -130t-111.5 -107t-127.5 -43q-63 2 -89.5 34.5t-26.5 79.5zM518 1009q0 10 6 21.5t12 15.5q31 27 62 41 q8 8 41 8q25 0 16 -18q-12 -16 -18 -46t-17.5 -53.5t-42.5 -23.5q-23 0 -35 11.5t-20 25.5q-4 6 -4 18zM756 1009q0 10 6 21.5t12 15.5q31 27 61 41q8 8 41 8q25 0 17 -18q-12 -16 -18.5 -46t-17.5 -53.5t-42 -23.5q-23 0 -35 11.5t-20 25.5q-4 6 -4 18z" />
<glyph unicode="&#xe5;" horiz-adv-x="733" d="M72 266q0 55 24.5 121t55.5 117q53 84 128.5 164t161.5 132t164 52q41 0 80 -13.5t78 -43.5q31 -25 31 -54t-25 -28q-18 0 -27 24q-27 70 -86 70q-53 0 -118.5 -47t-128.5 -113q-72 -72 -127.5 -158t-83.5 -155q-27 -63 -27 -94q0 -39 31 -39q35 0 102 53q45 35 98.5 91 t100.5 111.5t74 86.5q23 35 36 55q8 12 26.5 18.5t39.5 6.5q25 0 41 -9.5t8 -27.5t-35.5 -70.5t-61.5 -118t-63.5 -125t-44.5 -92.5q-29 -63 -28 -94q0 -27 20 -27q14 0 43 17q45 23 90 64.5t86 88.5q23 23 41.5 43.5t34.5 42.5q6 6 10 7q12 0 13 -19q0 -10 -9 -18 q-23 -29 -45 -55.5t-47 -53.5q-23 -27 -46 -52.5t-48 -47.5q-45 -43 -85 -63.5t-71 -20.5q-82 0 -82 106q0 37 13 82q4 14 18 47t32.5 73t35 76t22.5 56q-43 -66 -95 -130t-111.5 -107t-127.5 -43q-63 2 -89.5 34.5t-26.5 79.5zM553 1061q0 45 27.5 78.5t69.5 51t83 17.5 q49 0 89 -27.5t40 -70.5q0 -49 -29 -84t-72 -52.5t-84 -17.5q-57 0 -90.5 30t-33.5 75zM636 1061q0 -29 14 -46.5t34 -17.5q39 0 66.5 37t27.5 80q0 51 -45 51q-41 0 -69 -35t-28 -69z" />
<glyph unicode="&#xe6;" horiz-adv-x="1187" d="M10 104q0 61 30 131t52 109q55 88 131 168t161 130t163 50q41 0 80 -13t75 -44q18 -14 25.5 -27.5t7.5 -23.5q0 -31 -26 -31q-18 0 -27 25q-27 70 -86 69q-51 0 -116.5 -47t-129.5 -113q-70 -74 -127 -158.5t-86 -154.5q-14 -31 -19 -54.5t-5 -39.5q0 -37 30 -37 q35 0 103 51q49 39 101 94.5t97 109.5t72 85q10 16 19.5 30.5t17.5 24.5t27.5 16.5t40.5 6.5q25 0 41 -8.5t6 -28.5q0 -2 -22.5 -42t-52.5 -95.5t-52 -106.5q-12 -29 -20.5 -53.5t-8.5 -40.5q0 -27 20 -27q14 0 43 17q33 16 52.5 26.5t34.5 12.5v16q0 63 23.5 132t45.5 110 q47 86 113.5 157.5t137.5 115.5t130 44q55 0 95 -30.5t40 -81.5q0 -20 -10 -47t-33 -56q-82 -104 -179 -164.5t-224 -89.5q-8 -25 -16.5 -49.5t-12.5 -46.5q-2 -8 -2 -17.5v-17.5q0 -43 18.5 -61.5t47.5 -18.5q45 0 96 23.5t96 54.5t68 49q23 20 45 42t47 48 q20 23 38.5 44.5t35.5 43.5q6 6 10 7q12 0 12 -19q0 -10 -8 -18q-37 -45 -74 -89t-76 -85q-45 -47 -123 -94.5t-174 -47.5q-63 0 -106 31t-55 86l-13 -10q-41 -33 -80.5 -57.5t-74.5 -24.5q-37 0 -59.5 23.5t-22.5 74.5q0 37 12 88q4 23 13.5 45.5t17.5 46.5 q-41 -66 -93.5 -130t-111.5 -107t-125 -43q-68 0 -94.5 32.5t-26.5 79.5zM813 250q53 20 123 65t136.5 105.5t107.5 130.5q16 29 16 43q0 25 -29 24q-33 0 -90 -39.5t-116.5 -102t-98.5 -130.5q-12 -20 -24.5 -44.5t-24.5 -51.5z" />
<glyph unicode="&#xe7;" horiz-adv-x="612" d="M-57 -403q12 -2 30.5 -4t39.5 -2q41 0 82 18.5t53 77.5q6 31 -7.5 51.5t-28.5 43t-15 59.5q0 66 50 94t113 28q18 0 19 -12q-45 -8 -71.5 -23.5t-26.5 -58.5q0 -29 12 -49t23.5 -40.5t11.5 -53.5q0 -55 -34 -95t-81 -61.5t-90 -21.5q-31 0 -53.5 11t-26.5 38zM43 127 q0 59 15.5 130t39 136.5t45.5 110.5q41 84 98.5 171t123 158.5t136 115.5t138.5 44q59 0 89 -42t30 -97q0 -59 -33 -106q-68 -98 -98 -99q-10 0 -11 15q0 14 17 57q8 18 20.5 54t21.5 74t7 66q-6 2 -18 3q-43 0 -93.5 -35t-101.5 -90.5t-94 -116t-72 -111.5 q-23 -41 -49.5 -99t-50 -122.5t-35.5 -118.5q-8 -29 -12 -57.5t-4 -54.5q0 -45 17 -76t60 -31q72 0 140.5 33t130 84t112.5 104q43 43 76 88q6 6 10 7q12 0 13 -19q0 -10 -9 -18l-90 -107q-43 -51 -110.5 -107.5t-145 -94t-151.5 -37.5q-88 0 -125 53t-37 135z" />
<glyph unicode="&#xe8;" horiz-adv-x="747" d="M-20 -47q0 20 1 40.5t3 43.5q12 100 62 219t155 254q70 90 151.5 135t157.5 45q53 0 94 -20q49 -27 49 -97q0 -51 -36.5 -113.5t-124.5 -119.5q-117 -74 -195 -98.5t-125 -26.5q-16 -23 -32.5 -71t-28 -100t-15.5 -93q0 -8 -1 -17.5t-1 -19.5q0 -61 21.5 -105.5 t77.5 -44.5q49 0 110.5 36t121.5 86.5t106.5 96.5t64.5 68l152 176l81 95q6 6 11 6q12 0 12 -17q0 -6 -10 -20q-20 -29 -46 -59.5t-48 -57.5q-29 -33 -71 -84t-88 -106.5t-89 -96.5q-78 -76 -167.5 -129t-187.5 -53q-80 0 -122.5 64.5t-42.5 183.5zM190 248q29 2 72 22.5 t90 49t87 58.5t65 50q47 37 69.5 82t22.5 78q0 23 -11.5 39t-33.5 16q-43 0 -93 -42t-100.5 -106.5t-94.5 -131t-73 -115.5zM303 968q0 8 14.5 20.5t42.5 12.5q14 0 27.5 -9t21.5 -20q14 -12 41 -39.5t59 -57.5t56 -54q6 -6 6 -15q0 -18 -14 -14q-4 2 -26.5 14.5t-47 29 t-37.5 24.5q-18 12 -52 35.5t-61.5 46t-29.5 26.5z" />
<glyph unicode="&#xe9;" horiz-adv-x="747" d="M-20 -47q0 20 1 40.5t3 43.5q12 100 62 219t155 254q70 90 151.5 135t157.5 45q53 0 94 -20q49 -27 49 -97q0 -51 -36.5 -113.5t-124.5 -119.5q-117 -74 -195 -98.5t-125 -26.5q-16 -23 -32.5 -71t-28 -100t-15.5 -93q0 -8 -1 -17.5t-1 -19.5q0 -61 21.5 -105.5 t77.5 -44.5q49 0 110.5 36t121.5 86.5t106.5 96.5t64.5 68l152 176l81 95q6 6 11 6q12 0 12 -17q0 -6 -10 -20q-20 -29 -46 -59.5t-48 -57.5q-29 -33 -71 -84t-88 -106.5t-89 -96.5q-78 -76 -167.5 -129t-187.5 -53q-80 0 -122.5 64.5t-42.5 183.5zM190 248q29 2 72 22.5 t90 49t87 58.5t65 50q47 37 69.5 82t22.5 78q0 23 -11.5 39t-33.5 16q-43 0 -93 -42t-100.5 -106.5t-94.5 -131t-73 -115.5zM444 806q0 8 6 15q39 35 87 83t69 68q10 10 22.5 19.5t26.5 9.5q29 0 43 -12.5t14 -20.5q0 -4 -28.5 -26.5t-62.5 -46t-52 -35.5q-12 -8 -37 -24.5 t-46.5 -29t-27.5 -14.5h-2q-12 0 -12 14z" />
<glyph unicode="&#xea;" horiz-adv-x="747" d="M-20 -47q0 20 1 40.5t3 43.5q12 100 62 219t155 254q70 90 151.5 135t157.5 45q53 0 94 -20q49 -27 49 -97q0 -51 -36.5 -113.5t-124.5 -119.5q-117 -74 -195 -98.5t-125 -26.5q-16 -23 -32.5 -71t-28 -100t-15.5 -93q0 -8 -1 -17.5t-1 -19.5q0 -61 21.5 -105.5 t77.5 -44.5q49 0 110.5 36t121.5 86.5t106.5 96.5t64.5 68l152 176l81 95q6 6 11 6q12 0 12 -17q0 -6 -10 -20q-20 -29 -46 -59.5t-48 -57.5q-29 -33 -71 -84t-88 -106.5t-89 -96.5q-78 -76 -167.5 -129t-187.5 -53q-80 0 -122.5 64.5t-42.5 183.5zM190 248q29 2 72 22.5 t90 49t87 58.5t65 50q47 37 69.5 82t22.5 78q0 23 -11.5 39t-33.5 16q-43 0 -93 -42t-100.5 -106.5t-94.5 -131t-73 -115.5zM315 798q0 8 10 19q31 23 67 53.5t66.5 58t49.5 39.5q29 29 59 29q14 0 27.5 -9.5t21.5 -19.5q16 -20 57 -68t72 -83q6 -6 6 -13q0 -8 -6 -13 t-12 -3q-6 0 -25.5 13.5t-41 28.5t-32.5 26q-14 10 -36.5 27.5t-44.5 35.5q-27 -18 -56.5 -35.5t-46.5 -27.5q-12 -10 -39.5 -25.5t-52.5 -29t-31 -13.5q-4 -2 -8 2t-4 8z" />
<glyph unicode="&#xeb;" horiz-adv-x="747" d="M-20 -47q0 20 1 40.5t3 43.5q12 100 62 219t155 254q70 90 151.5 135t157.5 45q53 0 94 -20q49 -27 49 -97q0 -51 -36.5 -113.5t-124.5 -119.5q-117 -74 -195 -98.5t-125 -26.5q-16 -23 -32.5 -71t-28 -100t-15.5 -93q0 -8 -1 -17.5t-1 -19.5q0 -61 21.5 -105.5 t77.5 -44.5q49 0 110.5 36t121.5 86.5t106.5 96.5t64.5 68l152 176l81 95q6 6 11 6q12 0 12 -17q0 -6 -10 -20q-20 -29 -46 -59.5t-48 -57.5q-29 -33 -71 -84t-88 -106.5t-89 -96.5q-78 -76 -167.5 -129t-187.5 -53q-80 0 -122.5 64.5t-42.5 183.5zM190 248q29 2 72 22.5 t90 49t87 58.5t65 50q47 37 69.5 82t22.5 78q0 23 -11.5 39t-33.5 16q-43 0 -93 -42t-100.5 -106.5t-94.5 -131t-73 -115.5zM367 847q0 10 6 21.5t12 15.5q31 27 62 41q8 8 41 8q25 0 16 -18q-12 -16 -18 -46t-17.5 -53.5t-42.5 -23.5q-23 0 -35 11.5t-20 25.5q-4 6 -4 18z M605 847q0 10 6 21.5t12 15.5q31 27 61 41q8 8 41 8q25 0 17 -18q-12 -16 -18.5 -46t-17.5 -53.5t-42 -23.5q-23 0 -35 11.5t-20 25.5q-4 6 -4 18z" />
<glyph unicode="&#xec;" horiz-adv-x="423" d="M49 131q0 31 6 68q8 43 32 103t53.5 120.5t54.5 103.5q20 33 47.5 78t51 84t30.5 51q14 27 51 42.5t63 15.5q33 0 33 -19q0 -12 -8 -22q-39 -63 -91.5 -147.5t-101.5 -172.5t-81.5 -168t-32.5 -137q0 -31 11 -49.5t42 -18.5q33 0 75 32t82 72t60 62l41 43 q10 10 18.5 21.5t16.5 21.5q6 6 10 7q12 0 12 -19q0 -10 -8 -18q-23 -29 -45 -55.5t-47 -53.5q-51 -61 -118.5 -118.5t-149.5 -57.5q-106 0 -107 131zM252 1075q0 8 14.5 20.5t42.5 12.5q14 0 27.5 -9t21.5 -20q14 -12 41 -39.5t59 -57.5t56 -54q6 -6 6 -15q0 -18 -14 -14 q-4 2 -26.5 14.5t-47 29t-37.5 24.5q-18 12 -52 35.5t-61.5 46t-29.5 26.5z" />
<glyph unicode="&#xed;" horiz-adv-x="423" d="M49 131q0 31 6 68q8 43 32 103t53.5 120.5t54.5 103.5q20 33 47.5 78t51 84t30.5 51q14 27 51 42.5t63 15.5q33 0 33 -19q0 -12 -8 -22q-39 -63 -91.5 -147.5t-101.5 -172.5t-81.5 -168t-32.5 -137q0 -31 11 -49.5t42 -18.5q33 0 75 32t82 72t60 62l41 43 q10 10 18.5 21.5t16.5 21.5q6 6 10 7q12 0 12 -19q0 -10 -8 -18q-23 -29 -45 -55.5t-47 -53.5q-51 -61 -118.5 -118.5t-149.5 -57.5q-106 0 -107 131zM393 913q0 8 6 15q39 35 87 83t69 68q10 10 22.5 19.5t26.5 9.5q29 0 43 -12.5t14 -20.5q0 -4 -28.5 -26.5t-62.5 -46 t-52 -35.5q-12 -8 -37 -24.5t-46.5 -29t-27.5 -14.5h-2q-12 0 -12 14z" />
<glyph unicode="&#xee;" horiz-adv-x="423" d="M49 131q0 31 6 68q8 43 32 103t53.5 120.5t54.5 103.5q20 33 47.5 78t51 84t30.5 51q14 27 51 42.5t63 15.5q33 0 33 -19q0 -12 -8 -22q-39 -63 -91.5 -147.5t-101.5 -172.5t-81.5 -168t-32.5 -137q0 -31 11 -49.5t42 -18.5q33 0 75 32t82 72t60 62l41 43 q10 10 18.5 21.5t16.5 21.5q6 6 10 7q12 0 12 -19q0 -10 -8 -18q-23 -29 -45 -55.5t-47 -53.5q-51 -61 -118.5 -118.5t-149.5 -57.5q-106 0 -107 131zM264 905q0 8 10 19q31 23 67 53.5t66.5 58t49.5 39.5q29 29 59 29q14 0 27.5 -9.5t21.5 -19.5q16 -20 57 -68t72 -83 q6 -6 6 -13q0 -8 -6 -13t-12 -3q-6 0 -25.5 13.5t-41 28.5t-32.5 26q-14 10 -36.5 27.5t-44.5 35.5q-27 -18 -56.5 -35.5t-46.5 -27.5q-12 -10 -39.5 -25.5t-52.5 -29t-31 -13.5q-4 -2 -8 2t-4 8z" />
<glyph unicode="&#xef;" horiz-adv-x="423" d="M49 131q0 31 6 68q8 43 32 103t53.5 120.5t54.5 103.5q20 33 47.5 78t51 84t30.5 51q14 27 51 42.5t63 15.5q33 0 33 -19q0 -12 -8 -22q-39 -63 -91.5 -147.5t-101.5 -172.5t-81.5 -168t-32.5 -137q0 -31 11 -49.5t42 -18.5q33 0 75 32t82 72t60 62l41 43 q10 10 18.5 21.5t16.5 21.5q6 6 10 7q12 0 12 -19q0 -10 -8 -18q-23 -29 -45 -55.5t-47 -53.5q-51 -61 -118.5 -118.5t-149.5 -57.5q-106 0 -107 131zM315 954q0 10 6 21.5t12 15.5q31 27 62 41q8 8 41 8q25 0 16 -18q-12 -16 -18 -46t-17.5 -53.5t-42.5 -23.5 q-23 0 -35 11.5t-20 25.5q-4 6 -4 18zM553 954q0 10 6 21.5t12 15.5q31 27 61 41q8 8 41 8q25 0 17 -18q-12 -16 -18.5 -46t-17.5 -53.5t-42 -23.5q-23 0 -35 11.5t-20 25.5q-4 6 -4 18z" />
<glyph unicode="&#xf0;" horiz-adv-x="620" d="M43 180q0 72 23 144q53 170 159.5 262t229.5 92q39 0 63.5 -17.5t32.5 -39.5q2 66 -10.5 141.5t-46.5 138.5q-27 -20 -57.5 -40.5t-55.5 -33.5q-20 -12 -35 -12q-20 0 -30.5 16.5t-20.5 36.5q27 8 72 35t92 58q-31 35 -71 57t-93 22q-16 0 -31.5 -3t-32.5 -3 q-18 0 -18 13q0 18 20.5 25t44 9t35.5 2q66 0 117 -22.5t88 -56.5q29 16 52.5 30.5t37.5 20.5q25 10 35 10q25 0 39 -19.5t23 -41.5q-8 4 -17 4q-18 0 -49 -12.5t-78 -43.5q41 -61 60.5 -140t19.5 -157q0 -104 -27.5 -221t-83 -219t-138 -166.5t-193.5 -64.5q-84 0 -120 59 t-36 137zM154 119q0 -39 11 -64.5t38 -25.5q43 0 88 37.5t86 98t72.5 131.5t50 138.5t18.5 118.5q0 41 -13 64.5t-42 23.5q-61 0 -116.5 -56.5t-99.5 -140.5t-68.5 -172t-24.5 -153z" />
<glyph unicode="&#xf1;" horiz-adv-x="753" d="M6 154q0 14 6 32q72 137 136.5 293t127.5 283q18 35 61.5 60.5t76.5 25.5q31 0 30 -23q0 -12 -18 -47q-23 -35 -55.5 -90t-67.5 -116.5t-64.5 -117t-43.5 -89.5q23 31 62.5 92t109.5 143l65 78q66 78 121 106.5t102 28.5q37 0 63.5 -18.5t26.5 -63.5q0 -53 -22.5 -105.5 t-36.5 -82.5q-14 -33 -41 -90.5t-53.5 -123t-45 -122.5t-18.5 -88q0 -27 17 -27q20 0 54 21.5t67.5 48t52.5 43.5q68 61 137 143q10 12 16 12t7 -12q0 -6 -5.5 -16t-11.5 -23q-12 -20 -38.5 -54t-55.5 -65q-43 -47 -95 -90t-116 -77q-16 -8 -29.5 -13.5t-21.5 -7.5t-16.5 -3 t-16.5 -1q-35 0 -49 26.5t-14 63.5q0 66 35.5 150t82.5 172t83 166.5t36 134.5q0 27 -9 43t-28 16q-25 0 -59 -27q-39 -27 -88 -88l-76 -94q-59 -74 -119.5 -156.5t-108.5 -154.5t-71 -115q-18 -33 -43 -33q-14 0 -26.5 14.5t-12.5 37.5zM487 923q0 25 18.5 52.5t47 46 t57.5 18.5q53 0 97 -24.5t89 -24.5q20 0 32.5 11t29.5 36q4 0 9 -2t5 -18q0 -27 -20.5 -50.5t-47.5 -37t-47 -13.5q-41 0 -67.5 15.5t-50 31t-54.5 15.5q-33 0 -52 -23.5t-32 -36.5q-14 -6 -14 4z" />
<glyph unicode="&#xf2;" horiz-adv-x="681" d="M57 203q0 74 25 145q25 70 66.5 133.5t95.5 118.5q70 72 159 125t162 53q57 0 89 -27.5t32 -66.5q0 -25 -16 -53q53 -6 104 -6q39 0 78 4t78 12h8q16 0 16 -8t-18 -15q-20 -8 -67.5 -16t-98.5 -13t-92 -5h-24.5t-18.5 2l-21 -11q25 -35 25 -96q0 -82 -40 -167 t-104.5 -157.5t-137 -117.5t-138.5 -45q-70 0 -116 59.5t-46 151.5zM164 168q0 -51 17.5 -89t56.5 -38q55 0 108 40t97 104.5t74 139t40 144.5q2 12 2 23.5v21.5q0 18 -2 33.5t-8 23.5q-4 0 -6 2q-25 4 -36 12.5t-26 18.5q-8 10 -8 25q0 14 11.5 22t25.5 4q51 -10 111 -18 q20 35 20 63q0 49 -74 50q-45 0 -93 -34t-95 -88.5t-90 -119t-74 -125.5q-20 -41 -35.5 -100.5t-15.5 -114.5zM383 1054q0 8 14.5 20.5t42.5 12.5q14 0 27.5 -9t21.5 -20q14 -12 41 -39.5t59 -57.5t56 -54q6 -6 6 -15q0 -18 -14 -14q-4 2 -26.5 14.5t-47 29t-37.5 24.5 q-18 12 -52 35.5t-61.5 46t-29.5 26.5z" />
<glyph unicode="&#xf3;" horiz-adv-x="681" d="M57 203q0 74 25 145q25 70 66.5 133.5t95.5 118.5q70 72 159 125t162 53q57 0 89 -27.5t32 -66.5q0 -25 -16 -53q53 -6 104 -6q39 0 78 4t78 12h8q16 0 16 -8t-18 -15q-20 -8 -67.5 -16t-98.5 -13t-92 -5h-24.5t-18.5 2l-21 -11q25 -35 25 -96q0 -82 -40 -167 t-104.5 -157.5t-137 -117.5t-138.5 -45q-70 0 -116 59.5t-46 151.5zM164 168q0 -51 17.5 -89t56.5 -38q55 0 108 40t97 104.5t74 139t40 144.5q2 12 2 23.5v21.5q0 18 -2 33.5t-8 23.5q-4 0 -6 2q-25 4 -36 12.5t-26 18.5q-8 10 -8 25q0 14 11.5 22t25.5 4q51 -10 111 -18 q20 35 20 63q0 49 -74 50q-45 0 -93 -34t-95 -88.5t-90 -119t-74 -125.5q-20 -41 -35.5 -100.5t-15.5 -114.5zM524 892q0 8 6 15q39 35 87 83t69 68q10 10 22.5 19.5t26.5 9.5q29 0 43 -12.5t14 -20.5q0 -4 -28.5 -26.5t-62.5 -46t-52 -35.5q-12 -8 -37 -24.5t-46.5 -29 t-27.5 -14.5h-2q-12 0 -12 14z" />
<glyph unicode="&#xf4;" horiz-adv-x="681" d="M57 203q0 74 25 145q25 70 66.5 133.5t95.5 118.5q70 72 159 125t162 53q57 0 89 -27.5t32 -66.5q0 -25 -16 -53q53 -6 104 -6q39 0 78 4t78 12h8q16 0 16 -8t-18 -15q-20 -8 -67.5 -16t-98.5 -13t-92 -5h-24.5t-18.5 2l-21 -11q25 -35 25 -96q0 -82 -40 -167 t-104.5 -157.5t-137 -117.5t-138.5 -45q-70 0 -116 59.5t-46 151.5zM164 168q0 -51 17.5 -89t56.5 -38q55 0 108 40t97 104.5t74 139t40 144.5q2 12 2 23.5v21.5q0 18 -2 33.5t-8 23.5q-4 0 -6 2q-25 4 -36 12.5t-26 18.5q-8 10 -8 25q0 14 11.5 22t25.5 4q51 -10 111 -18 q20 35 20 63q0 49 -74 50q-45 0 -93 -34t-95 -88.5t-90 -119t-74 -125.5q-20 -41 -35.5 -100.5t-15.5 -114.5zM395 884q0 8 10 19q31 23 67 53.5t66.5 58t49.5 39.5q29 29 59 29q14 0 27.5 -9.5t21.5 -19.5q16 -20 57 -68t72 -83q6 -6 6 -13q0 -8 -6 -13t-12 -3 q-6 0 -25.5 13.5t-41 28.5t-32.5 26q-14 10 -36.5 27.5t-44.5 35.5q-27 -18 -56.5 -35.5t-46.5 -27.5q-12 -10 -39.5 -25.5t-52.5 -29t-31 -13.5q-4 -2 -8 2t-4 8z" />
<glyph unicode="&#xf5;" horiz-adv-x="681" d="M57 203q0 74 25 145q25 70 66.5 133.5t95.5 118.5q70 72 159 125t162 53q57 0 89 -27.5t32 -66.5q0 -25 -16 -53q53 -6 104 -6q39 0 78 4t78 12h8q16 0 16 -8t-18 -15q-20 -8 -67.5 -16t-98.5 -13t-92 -5h-24.5t-18.5 2l-21 -11q25 -35 25 -96q0 -82 -40 -167 t-104.5 -157.5t-137 -117.5t-138.5 -45q-70 0 -116 59.5t-46 151.5zM164 168q0 -51 17.5 -89t56.5 -38q55 0 108 40t97 104.5t74 139t40 144.5q2 12 2 23.5v21.5q0 18 -2 33.5t-8 23.5q-4 0 -6 2q-25 4 -36 12.5t-26 18.5q-8 10 -8 25q0 14 11.5 22t25.5 4q51 -10 111 -18 q20 35 20 63q0 49 -74 50q-45 0 -93 -34t-95 -88.5t-90 -119t-74 -125.5q-20 -41 -35.5 -100.5t-15.5 -114.5zM422 886q0 25 18.5 52.5t47 46t57.5 18.5q53 0 97 -24.5t89 -24.5q20 0 32.5 11t29.5 36q4 0 9 -2t5 -18q0 -27 -20.5 -50.5t-47.5 -37t-47 -13.5 q-41 0 -67.5 15.5t-50 31t-54.5 15.5q-33 0 -52 -23.5t-32 -36.5q-14 -6 -14 4z" />
<glyph unicode="&#xf6;" horiz-adv-x="681" d="M57 203q0 74 25 145q25 70 66.5 133.5t95.5 118.5q70 72 159 125t162 53q57 0 89 -27.5t32 -66.5q0 -25 -16 -53q53 -6 104 -6q39 0 78 4t78 12h8q16 0 16 -8t-18 -15q-20 -8 -67.5 -16t-98.5 -13t-92 -5h-24.5t-18.5 2l-21 -11q25 -35 25 -96q0 -82 -40 -167 t-104.5 -157.5t-137 -117.5t-138.5 -45q-70 0 -116 59.5t-46 151.5zM164 168q0 -51 17.5 -89t56.5 -38q55 0 108 40t97 104.5t74 139t40 144.5q2 12 2 23.5v21.5q0 18 -2 33.5t-8 23.5q-4 0 -6 2q-25 4 -36 12.5t-26 18.5q-8 10 -8 25q0 14 11.5 22t25.5 4q51 -10 111 -18 q20 35 20 63q0 49 -74 50q-45 0 -93 -34t-95 -88.5t-90 -119t-74 -125.5q-20 -41 -35.5 -100.5t-15.5 -114.5zM446 933q0 10 6 21.5t12 15.5q31 27 62 41q8 8 41 8q25 0 16 -18q-12 -16 -18 -46t-17.5 -53.5t-42.5 -23.5q-23 0 -35 11.5t-20 25.5q-4 6 -4 18zM684 933 q0 10 6 21.5t12 15.5q31 27 61 41q8 8 41 8q25 0 17 -18q-12 -16 -18.5 -46t-17.5 -53.5t-42 -23.5q-23 0 -35 11.5t-20 25.5q-4 6 -4 18z" />
<glyph unicode="&#xf7;" horiz-adv-x="743" d="M100 365q37 -6 88 -7q86 0 187.5 8.5t177.5 4.5q59 -4 70.5 -35t11.5 -64q-8 10 -55 23q-14 2 -29.5 3t-38.5 1h-39.5t-46.5 -4q-18 0 -69.5 -5t-102.5 -9.5t-74 -4.5q-53 0 -66.5 28t-13.5 61zM145 43q0 12 7.5 23.5t15.5 17.5l31 22q14 10 32 19l29 14q10 4 27 15 q6 4 11 -1.5t1 -9.5q-18 -29 -25.5 -66.5t-19.5 -64t-47 -26.5q-23 0 -35 11t-20 28q-6 10 -7 18zM457 537q0 14 7 25t13 18q25 20 64 41q16 10 28 14t29 14q6 4 10 -1t0 -9q-18 -31 -25.5 -67.5t-19.5 -63.5t-47 -27q-23 0 -35 11.5t-20 27.5q-4 6 -4 17z" />
<glyph unicode="&#xf8;" horiz-adv-x="681" d="M57 203q0 74 25 145q25 70 66.5 133.5t95.5 118.5q70 72 159 125t162 53q57 0 89 -27.5t32 -66.5q0 -25 -16 -53q53 -6 104 -6q39 0 78 4t78 12h8q16 0 16 -8t-18 -15q-20 -8 -67.5 -16t-98.5 -13t-92 -5h-24.5t-18.5 2l-21 -11q25 -35 25 -96q0 -82 -40 -167 t-104.5 -157.5t-137 -117.5t-138.5 -45q-70 0 -116 59.5t-46 151.5zM96 -218.5q0 21.5 2 36.5q14 66 63.5 187.5t119.5 268.5q72 150 157.5 314t175.5 311q0 2 2 2q2 -2 5.5 -19.5t3.5 -39t-2 -33.5q-2 -4 -5 -12q-18 -31 -59 -105q-41 -72 -93 -168t-110 -207 q-57 -109 -106 -211q-49 -100 -84 -183t-45 -126l-2 -12l-2 -10q-3 -19 -13 -17q-8 2 -8 23.5zM164 168q0 -51 17.5 -89t56.5 -38q55 0 108 40t97 104.5t74 139t40 144.5q2 12 2 23.5v21.5q0 18 -2 33.5t-8 23.5q-4 0 -6 2q-25 4 -36 12.5t-26 18.5q-8 10 -8 25 q0 14 11.5 22t25.5 4q51 -10 111 -18q20 35 20 63q0 49 -74 50q-45 0 -93 -34t-95 -88.5t-90 -119t-74 -125.5q-20 -41 -35.5 -100.5t-15.5 -114.5z" />
<glyph unicode="&#xf9;" horiz-adv-x="710" d="M33 195q0 33 5 64.5t13 55.5q37 104 96.5 220t130 222.5t144.5 184.5q49 49 74 49q12 0 12 -14t-13.5 -41t-41.5 -62q-23 -27 -62 -97t-84 -159.5t-85 -177.5t-66 -153q-16 -39 -23.5 -70t-7.5 -51q0 -49 33 -49q43 0 110 80q16 20 47 62t67 92t68.5 97.5t53.5 77.5 l47 86q10 20 42 33.5t58 13.5q18 0 19 -18q0 -23 -9.5 -46.5t-25.5 -49.5q-31 -49 -59.5 -117t-50 -131.5t-27.5 -99.5q-8 -35 -9 -70q0 -8 1.5 -16.5t3.5 -14.5q4 -27 20 -26q8 0 21 6q45 23 90 64.5t86 88.5q20 23 38.5 43.5t34.5 42.5q6 6 11 7q12 0 12 -17q0 -12 -8 -20 l-90 -109q-23 -27 -47.5 -52.5t-47.5 -47.5q-41 -39 -85.5 -60.5t-79.5 -21.5q-41 0 -59.5 26.5t-18.5 71.5q0 53 21.5 128t51.5 153q-29 -45 -67.5 -98.5t-81.5 -100.5t-85 -77.5t-77 -30.5q-57 0 -78.5 38.5t-21.5 90.5zM395 1220q0 8 14.5 20.5t42.5 12.5q14 0 27.5 -9 t21.5 -20q14 -12 41 -39.5t59 -57.5t56 -54q6 -6 6 -15q0 -18 -14 -14q-4 2 -26.5 14.5t-47 29t-37.5 24.5q-18 12 -52 35.5t-61.5 46t-29.5 26.5z" />
<glyph unicode="&#xfa;" horiz-adv-x="710" d="M33 195q0 33 5 64.5t13 55.5q37 104 96.5 220t130 222.5t144.5 184.5q49 49 74 49q12 0 12 -14t-13.5 -41t-41.5 -62q-23 -27 -62 -97t-84 -159.5t-85 -177.5t-66 -153q-16 -39 -23.5 -70t-7.5 -51q0 -49 33 -49q43 0 110 80q16 20 47 62t67 92t68.5 97.5t53.5 77.5 l47 86q10 20 42 33.5t58 13.5q18 0 19 -18q0 -23 -9.5 -46.5t-25.5 -49.5q-31 -49 -59.5 -117t-50 -131.5t-27.5 -99.5q-8 -35 -9 -70q0 -8 1.5 -16.5t3.5 -14.5q4 -27 20 -26q8 0 21 6q45 23 90 64.5t86 88.5q20 23 38.5 43.5t34.5 42.5q6 6 11 7q12 0 12 -17q0 -12 -8 -20 l-90 -109q-23 -27 -47.5 -52.5t-47.5 -47.5q-41 -39 -85.5 -60.5t-79.5 -21.5q-41 0 -59.5 26.5t-18.5 71.5q0 53 21.5 128t51.5 153q-29 -45 -67.5 -98.5t-81.5 -100.5t-85 -77.5t-77 -30.5q-57 0 -78.5 38.5t-21.5 90.5zM537 1058q0 8 6 15q39 35 87 83t69 68 q10 10 22.5 19.5t26.5 9.5q29 0 43 -12.5t14 -20.5q0 -4 -28.5 -26.5t-62.5 -46t-52 -35.5q-12 -8 -37 -24.5t-46.5 -29t-27.5 -14.5h-2q-12 0 -12 14z" />
<glyph unicode="&#xfb;" horiz-adv-x="710" d="M33 195q0 33 5 64.5t13 55.5q37 104 96.5 220t130 222.5t144.5 184.5q49 49 74 49q12 0 12 -14t-13.5 -41t-41.5 -62q-23 -27 -62 -97t-84 -159.5t-85 -177.5t-66 -153q-16 -39 -23.5 -70t-7.5 -51q0 -49 33 -49q43 0 110 80q16 20 47 62t67 92t68.5 97.5t53.5 77.5 l47 86q10 20 42 33.5t58 13.5q18 0 19 -18q0 -23 -9.5 -46.5t-25.5 -49.5q-31 -49 -59.5 -117t-50 -131.5t-27.5 -99.5q-8 -35 -9 -70q0 -8 1.5 -16.5t3.5 -14.5q4 -27 20 -26q8 0 21 6q45 23 90 64.5t86 88.5q20 23 38.5 43.5t34.5 42.5q6 6 11 7q12 0 12 -17q0 -12 -8 -20 l-90 -109q-23 -27 -47.5 -52.5t-47.5 -47.5q-41 -39 -85.5 -60.5t-79.5 -21.5q-41 0 -59.5 26.5t-18.5 71.5q0 53 21.5 128t51.5 153q-29 -45 -67.5 -98.5t-81.5 -100.5t-85 -77.5t-77 -30.5q-57 0 -78.5 38.5t-21.5 90.5zM408 1050q0 8 10 19q31 23 67 53.5t66.5 58 t49.5 39.5q29 29 59 29q14 0 27.5 -9.5t21.5 -19.5q16 -20 57 -68t72 -83q6 -6 6 -13q0 -8 -6 -13t-12 -3q-6 0 -25.5 13.5t-41 28.5t-32.5 26q-14 10 -36.5 27.5t-44.5 35.5q-27 -18 -56.5 -35.5t-46.5 -27.5q-12 -10 -39.5 -25.5t-52.5 -29t-31 -13.5q-4 -2 -8 2t-4 8z " />
<glyph unicode="&#xfc;" horiz-adv-x="710" d="M33 195q0 33 5 64.5t13 55.5q37 104 96.5 220t130 222.5t144.5 184.5q49 49 74 49q12 0 12 -14t-13.5 -41t-41.5 -62q-23 -27 -62 -97t-84 -159.5t-85 -177.5t-66 -153q-16 -39 -23.5 -70t-7.5 -51q0 -49 33 -49q43 0 110 80q16 20 47 62t67 92t68.5 97.5t53.5 77.5 l47 86q10 20 42 33.5t58 13.5q18 0 19 -18q0 -23 -9.5 -46.5t-25.5 -49.5q-31 -49 -59.5 -117t-50 -131.5t-27.5 -99.5q-8 -35 -9 -70q0 -8 1.5 -16.5t3.5 -14.5q4 -27 20 -26q8 0 21 6q45 23 90 64.5t86 88.5q20 23 38.5 43.5t34.5 42.5q6 6 11 7q12 0 12 -17q0 -12 -8 -20 l-90 -109q-23 -27 -47.5 -52.5t-47.5 -47.5q-41 -39 -85.5 -60.5t-79.5 -21.5q-41 0 -59.5 26.5t-18.5 71.5q0 53 21.5 128t51.5 153q-29 -45 -67.5 -98.5t-81.5 -100.5t-85 -77.5t-77 -30.5q-57 0 -78.5 38.5t-21.5 90.5zM459 1099q0 10 6 21.5t12 15.5q31 27 62 41 q8 8 41 8q25 0 16 -18q-12 -16 -18 -46t-17.5 -53.5t-42.5 -23.5q-23 0 -35 11.5t-20 25.5q-4 6 -4 18zM697 1099q0 10 6 21.5t12 15.5q31 27 61 41q8 8 41 8q25 0 17 -18q-12 -16 -18.5 -46t-17.5 -53.5t-42 -23.5q-23 0 -35 11.5t-20 25.5q-4 6 -4 18z" />
<glyph unicode="&#xfd;" horiz-adv-x="690" d="M-219 -541q0 88 54 169t139 150.5t182.5 125t185.5 92.5q31 63 73 161.5t86 206t76.5 206t43.5 161.5q-29 -61 -75 -141t-100.5 -156t-108.5 -125t-101 -49q-66 0 -90.5 41t-24.5 98q0 78 30.5 165t74.5 169t83 144q-31 -8 -67 -9q-53 0 -101.5 20.5t-72.5 59.5 q-16 29 -17 39q-2 4 2 4l15 -10q33 -35 82 -57.5t110 -22.5q16 0 35.5 2t38.5 6q16 25 43 70q25 43 61 76q16 16 31 16q12 0 19.5 -13.5t7.5 -33.5q0 -35 -20.5 -81t-67.5 -75q-66 -94 -115 -200.5t-72 -233.5q-6 -31 -6 -53q0 -68 43 -68q49 0 117 80q23 27 65.5 92.5 t92 146.5t88 160.5t53.5 137.5q4 25 19.5 36t31.5 11t28.5 -8t12.5 -23q0 -49 -12 -117q-14 -70 -37 -149.5t-51 -165.5q-29 -86 -60 -166q-31 -82 -61.5 -152.5t-52.5 -121.5q57 33 109 71.5t91 83.5q23 23 41.5 43.5t34.5 42.5q6 6 10 7q12 0 13 -19q0 -10 -9 -18 q-45 -59 -92 -109q-43 -49 -103.5 -91t-125.5 -75q-47 -98 -107.5 -210.5t-134.5 -214t-162 -166t-192 -64.5q-33 0 -58.5 25.5t-25.5 78.5zM-166 -539q0 -59 37 -59q23 0 51.5 18.5t63.5 49.5q29 27 65.5 65.5t67.5 74.5t41 52q35 53 74.5 125t80.5 158 q-82 -37 -165.5 -90.5t-155.5 -118t-116 -134t-44 -141.5zM555 1165q0 8 6 15q39 35 87 83t69 68q10 10 22.5 19.5t26.5 9.5q29 0 43 -12.5t14 -20.5q0 -4 -28.5 -26.5t-62.5 -46t-52 -35.5q-12 -8 -37 -24.5t-46.5 -29t-27.5 -14.5h-2q-12 0 -12 14z" />
<glyph unicode="&#xfe;" horiz-adv-x="612" d="M-72 -248q0 23 19.5 98.5t54.5 188.5t81 249t100.5 281.5t112.5 285.5t118 259l6 6q8 0 31.5 -23.5t27.5 -45.5q0 -6 -2 -11q-14 -27 -42.5 -95t-67.5 -163q59 14 100 20.5t76 6.5q94 0 133 -50t39 -122q0 -63 -43 -141t-114 -149t-158 -116t-175 -45q-43 0 -92 17 q-61 -156 -107 -279t-61 -164q-12 -30 -24 -30t-13 22zM156 254q74 4 162 41t167.5 95.5t132 128t52.5 138.5q0 68 -119 68q-45 0 -106.5 -11.5t-114.5 -23.5q-41 -100 -86 -213.5t-88 -222.5z" />
<glyph unicode="&#xff;" horiz-adv-x="690" d="M-219 -541q0 88 54 169t139 150.5t182.5 125t185.5 92.5q31 63 73 161.5t86 206t76.5 206t43.5 161.5q-29 -61 -75 -141t-100.5 -156t-108.5 -125t-101 -49q-66 0 -90.5 41t-24.5 98q0 78 30.5 165t74.5 169t83 144q-31 -8 -67 -9q-53 0 -101.5 20.5t-72.5 59.5 q-16 29 -17 39q-2 4 2 4l15 -10q33 -35 82 -57.5t110 -22.5q16 0 35.5 2t38.5 6q16 25 43 70q25 43 61 76q16 16 31 16q12 0 19.5 -13.5t7.5 -33.5q0 -35 -20.5 -81t-67.5 -75q-66 -94 -115 -200.5t-72 -233.5q-6 -31 -6 -53q0 -68 43 -68q49 0 117 80q23 27 65.5 92.5 t92 146.5t88 160.5t53.5 137.5q4 25 19.5 36t31.5 11t28.5 -8t12.5 -23q0 -49 -12 -117q-14 -70 -37 -149.5t-51 -165.5q-29 -86 -60 -166q-31 -82 -61.5 -152.5t-52.5 -121.5q57 33 109 71.5t91 83.5q23 23 41.5 43.5t34.5 42.5q6 6 10 7q12 0 13 -19q0 -10 -9 -18 q-45 -59 -92 -109q-43 -49 -103.5 -91t-125.5 -75q-47 -98 -107.5 -210.5t-134.5 -214t-162 -166t-192 -64.5q-33 0 -58.5 25.5t-25.5 78.5zM-166 -539q0 -59 37 -59q23 0 51.5 18.5t63.5 49.5q29 27 65.5 65.5t67.5 74.5t41 52q35 53 74.5 125t80.5 158 q-82 -37 -165.5 -90.5t-155.5 -118t-116 -134t-44 -141.5zM477 1206q0 10 6 21.5t12 15.5q31 27 62 41q8 8 41 8q25 0 16 -18q-12 -16 -18 -46t-17.5 -53.5t-42.5 -23.5q-23 0 -35 11.5t-20 25.5q-4 6 -4 18zM715 1206q0 10 6 21.5t12 15.5q31 27 61 41q8 8 41 8 q25 0 17 -18q-12 -16 -18.5 -46t-17.5 -53.5t-42 -23.5q-23 0 -35 11.5t-20 25.5q-4 6 -4 18z" />
<glyph unicode="&#x152;" horiz-adv-x="2408" d="M49 240v44t4 42q8 111 37 214t70 181q70 129 171 247.5t222 211.5q119 92 247 146t249 54q160 0 225 -81.5t65 -202.5q0 -53 -10 -110.5t-29 -117.5q35 -53 51.5 -119.5t16.5 -136.5q0 -74 -18 -145q72 43 147.5 80t153.5 59q-127 0 -191.5 54.5t-64.5 134.5q0 96 45 182 q43 84 117.5 152.5t171.5 123.5q94 53 198 90q211 76 391 76q49 0 110.5 -14t105.5 -47t44 -84q0 -63 -49 -107.5t-123.5 -72t-156.5 -43t-148 -21.5q-53 -4 -108.5 -7t-110.5 -3q-68 0 -135.5 4t-132.5 10q-59 -55 -101.5 -118.5t-46.5 -129.5q0 -63 68 -109t160 -46 q51 0 108.5 14t81.5 14q23 4 42.5 -22.5t19.5 -48.5q0 -23 -21 -23q-63 -6 -137 -28q-154 -47 -307 -142q-76 -47 -142 -100q-68 -55 -120 -114.5t-82 -119.5q-16 -37 -17 -57q0 -86 203 -86q70 0 163 16.5t192.5 45t187.5 67.5q49 23 117.5 67t134 98t109.5 111.5t44 106.5 q0 39 -53 39q-37 0 -92 -19.5t-117.5 -50t-120 -69.5t-96.5 -76q-18 -18 -33 -18q-12 0 -12 16q0 23 25 45q25 20 73.5 59t109 78t122 66.5t108.5 27.5q61 0 106.5 -28.5t45.5 -106.5q0 -66 -39 -130t-99.5 -122.5t-128 -106.5t-126.5 -77q-119 -61 -272.5 -105.5 t-315.5 -44.5q-33 0 -66 2.5t-65 6.5q-76 10 -135.5 51t-81.5 106q-139 -117 -291 -178t-287 -61q-117 0 -192 51q-78 51 -122 135t-59 191q-4 31 -6 63.5t-2 65.5zM180 160q0 -43 5 -82t16 -74q33 -109 109.5 -166t178.5 -57q127 0 258.5 71.5t253.5 225.5q0 16 7 35 q27 100 149 211l27 53q12 27 24 57q29 61 58.5 152.5t29.5 171.5q0 39 -8 65q-23 -61 -47 -115.5t-47 -91.5q-104 -174 -185 -278.5t-153 -169.5q-61 -55 -141 -104.5t-152 -92.5q-16 -10 -6 6t23 27q109 82 213 197.5t196 252t160 281.5l4 15q25 53 41 145t16 176 q0 68 -14 128.5t-47 99t-90 38.5q-125 0 -236.5 -59t-208.5 -158q-98 -100 -177 -228t-140 -265t-89 -254t-28 -213zM1671 1081q227 -4 432 29q43 6 109.5 19.5t131 34t109 47t44.5 61.5q0 23 -34 32t-79 11t-82 2q-121 0 -233.5 -34t-194.5 -75q-39 -23 -93.5 -54.5 t-109.5 -72.5z" />
<glyph unicode="&#x153;" horiz-adv-x="1273" d="M57 203q0 76 25 145q25 72 66.5 134.5t95.5 117.5q72 72 161 125t160 53q55 0 87 -26.5t34 -63.5q10 14 20.5 27.5t20.5 27.5q70 90 152 135.5t157 45.5q53 0 94 -21q49 -27 50 -96q0 -51 -37 -113.5t-125 -120.5q-117 -74 -195 -98t-125 -26q-14 -23 -30.5 -71 t-28.5 -100.5t-16 -93.5q-2 -8 -2 -17v-20q0 -61 21.5 -105t76.5 -44q49 0 110.5 36t122 86t106.5 96t64 69l152 176l41 47q10 12 20.5 24.5t20.5 22.5q6 6 10 6q12 0 12 -14q0 -8 -10 -23q-20 -29 -46 -59.5t-48 -56.5q-29 -33 -71 -84.5t-88 -106.5t-89 -98 q-76 -74 -166 -127t-188 -53q-76 0 -119 59t-47 168q-63 -76 -140 -125t-147 -49t-116 59.5t-46 151.5zM164 168q0 -51 17.5 -89t56.5 -38q57 0 111 42t98.5 109.5t72.5 143.5q6 25 14.5 50.5t16.5 51.5l6 31q-25 23 -25 51q0 29 19.5 56.5t41 45t28.5 15.5q20 35 20 63 q0 49 -74 50q-59 0 -124.5 -57.5t-125 -142.5t-102.5 -167q-20 -41 -35.5 -101.5t-15.5 -113.5zM717 481q29 2 71.5 22.5t89 50.5t87.5 58.5t65 49.5q45 37 67.5 81.5t22.5 77.5q0 23 -11 39.5t-34 16.5q-41 0 -90 -42t-100 -106.5t-95 -131.5t-73 -116z" />
<glyph unicode="&#x178;" d="M-33 584q0 61 34 117.5t84 103.5t97 80l54 37q10 4 11 -1.5t-7 -11.5q-25 -25 -57.5 -75t-61.5 -109t-47 -113q-16 -53 -17 -96q0 -39 16.5 -64.5t53.5 -25.5q80 0 170 61t182 157.5t185 217.5q92 119 174 236q43 63 92 136t93 136.5t73 99.5q18 25 32 39q12 14 25 4 q76 -57 76 -165q0 -45 -13.5 -102.5t-41.5 -129.5q-18 -45 -50 -110.5t-70 -139t-74 -142.5t-60.5 -119t-30.5 -68q-23 -57 -43.5 -121t-20.5 -103q0 -41 29 -41q37 0 85 37t99.5 92.5t96.5 111.5t73 95q43 57 94.5 125t97.5 134.5t70 121.5q12 27 22.5 45.5t18.5 30.5 q-6 12 -12 19.5t-12 13.5q-23 10 -23 24q0 16 17.5 28.5t40.5 12.5q18 0 38.5 -10t36.5 -39q18 -27 26.5 -83t8.5 -128q0 -90 -11 -195.5t-32.5 -208t-52.5 -186.5q63 -6 118.5 -28.5t88.5 -65.5q12 -14 12 -26q0 -18 -14 0q-16 20 -57.5 28t-90.5 10t-90 2 q-111 -268 -240.5 -455.5t-263.5 -309.5q-135 -123 -264 -191t-235 -98q-88 -25 -160 -25q-76 0 -125 27.5t-72 77.5q-16 37 -16 79q0 66 36 149t107 173q86 109 226.5 218.5t302.5 201.5q162 90 325.5 153.5t298.5 79.5q37 86 62.5 186.5t39 201t13.5 184.5q0 35 -3 65.5 t-7 57.5l-12 -29l-15 -33q-61 -111 -134 -219.5t-140 -196.5q-61 -78 -152.5 -157.5t-181.5 -122.5q-45 -23 -82 -23q-45 0 -68.5 32t-23.5 83q0 47 22 111q12 31 42 98t59 131q33 78 69.5 164t67.5 166q33 84 69.5 177t60.5 173t21 125l-10 -23l-69 -121q-20 -35 -40 -67.5 t-40 -67.5l-92 -153q-51 -88 -110.5 -178.5t-127.5 -176.5q-68 -88 -143 -155q-78 -68 -164 -110t-180 -42q-92 0 -139.5 52.5t-47.5 138.5zM186 -666q0 -33 13 -59q16 -43 57 -59q18 -9 49 -9q41 0 94.5 18.5t116.5 61.5q162 104 298 226t245 247t189.5 243t129.5 214 q-119 -25 -258 -77t-276 -126q-139 -74 -268.5 -166t-225.5 -192q-70 -76 -108 -148q-55 -102 -56 -174zM1327 1554q0 10 6 21.5t12 15.5q31 27 62 41q8 8 41 8q25 0 16 -18q-12 -16 -18 -46t-17.5 -53.5t-42.5 -23.5q-23 0 -35 11.5t-20 25.5q-4 6 -4 18zM1565 1554 q0 10 6 21.5t12 15.5q31 27 61 41q8 8 41 8q25 0 17 -18q-12 -16 -18.5 -46t-17.5 -53.5t-42 -23.5q-23 0 -35 11.5t-20 25.5q-4 6 -4 18z" />
<glyph unicode="&#x2c6;" horiz-adv-x="434" d="M0 907q0 8 10 19q31 23 67 53.5t66.5 58t49.5 39.5q29 29 59 29q14 0 27.5 -9.5t21.5 -19.5q16 -20 57 -68t72 -83q6 -6 6 -13q0 -8 -6 -13t-12 -3q-6 0 -25.5 13.5t-41 28.5t-32.5 26q-14 10 -36.5 27.5t-44.5 35.5q-27 -18 -56.5 -35.5t-46.5 -27.5 q-12 -10 -39.5 -25.5t-52.5 -29t-31 -13.5q-4 -2 -8 2t-4 8z" />
<glyph unicode="&#x2dc;" horiz-adv-x="385" d="M0 909q0 25 18.5 52.5t47 46t57.5 18.5q53 0 97 -24.5t89 -24.5q20 0 32.5 11t29.5 36q4 0 9 -2t5 -18q0 -27 -20.5 -50.5t-47.5 -37t-47 -13.5q-41 0 -67.5 15.5t-50 31t-54.5 15.5q-33 0 -52 -23.5t-32 -36.5q-14 -6 -14 4z" />
<glyph unicode="&#x2000;" horiz-adv-x="936" />
<glyph unicode="&#x2001;" horiz-adv-x="1872" />
<glyph unicode="&#x2002;" horiz-adv-x="936" />
<glyph unicode="&#x2003;" horiz-adv-x="1872" />
<glyph unicode="&#x2004;" horiz-adv-x="624" />
<glyph unicode="&#x2005;" horiz-adv-x="468" />
<glyph unicode="&#x2006;" horiz-adv-x="312" />
<glyph unicode="&#x2007;" horiz-adv-x="312" />
<glyph unicode="&#x2008;" horiz-adv-x="234" />
<glyph unicode="&#x2009;" horiz-adv-x="374" />
<glyph unicode="&#x200a;" horiz-adv-x="104" />
<glyph unicode="&#x2010;" horiz-adv-x="718" d="M96 469q37 -6 88 -6q84 0 184.5 8t180.5 4q59 -4 70.5 -34.5t11.5 -63.5q-8 10 -58 22q-27 4 -65 4h-40t-46 -4q-8 0 -41 -3t-75 -6t-79 -6t-53 -3q-49 0 -63.5 25.5t-14.5 62.5z" />
<glyph unicode="&#x2011;" horiz-adv-x="718" d="M96 469q37 -6 88 -6q84 0 184.5 8t180.5 4q59 -4 70.5 -34.5t11.5 -63.5q-8 10 -58 22q-27 4 -65 4h-40t-46 -4q-8 0 -41 -3t-75 -6t-79 -6t-53 -3q-49 0 -63.5 25.5t-14.5 62.5z" />
<glyph unicode="&#x2012;" horiz-adv-x="718" d="M96 469q37 -6 88 -6q84 0 184.5 8t180.5 4q59 -4 70.5 -34.5t11.5 -63.5q-8 10 -58 22q-27 4 -65 4h-40t-46 -4q-8 0 -41 -3t-75 -6t-79 -6t-53 -3q-49 0 -63.5 25.5t-14.5 62.5z" />
<glyph unicode="&#x2013;" horiz-adv-x="866" d="M96 469q18 -2 53 -4t78 -2q102 0 197 6q51 2 116.5 4t122 3t78.5 -1q59 -4 70.5 -34.5t11.5 -63.5q-6 10 -46 15t-96 7t-110 2q-25 0 -46 -1t-40 -1q-109 -6 -180 -12q-74 -6 -131 -6q-49 0 -63.5 25.5t-14.5 62.5z" />
<glyph unicode="&#x2014;" horiz-adv-x="1187" d="M96 469q25 -4 101 -4q18 -2 38.5 -2h40.5q66 0 144 1t162 5l213 4q78 2 157.5 3t108.5 -1q59 -4 70.5 -34.5t11.5 -63.5q-29 16 -99.5 20t-150.5 4q-76 0 -146.5 -2t-117.5 -4q-51 -2 -123 -4t-143.5 -4t-124 -4t-64.5 -2q-49 0 -63.5 25.5t-14.5 62.5z" />
<glyph unicode="&#x2018;" horiz-adv-x="393" d="M279 983q0 23 8 45q16 53 59 109.5t96.5 100.5t106.5 67q2 2 9 -1.5t-7 -11.5q-66 -47 -105.5 -111.5t-62.5 -127.5q23 -27 23 -64q0 -27 -15.5 -49t-46.5 -22q-29 0 -47 16t-18 49z" />
<glyph unicode="&#x2019;" horiz-adv-x="409" d="M277.5 921q-7.5 3 7.5 13q66 45 106.5 109.5t63.5 127.5q-23 27 -23 64q0 29 15.5 50.5t46.5 21.5q29 0 47 -16.5t18 -49.5q0 -55 -43 -120.5t-105.5 -120.5t-121.5 -80q-4 -2 -11.5 1z" />
<glyph unicode="&#x201a;" horiz-adv-x="614" d="M217 -80q-6 0 2 17q8 16 30.5 60t51.5 96t56.5 99.5t45.5 69.5q29 37 58 37q35 0 35 -41q0 -29 -27 -68q-47 -70 -112.5 -141.5t-131.5 -124.5q-2 -4 -8 -4z" />
<glyph unicode="&#x201c;" horiz-adv-x="620" d="M279 983q0 23 8 45q16 53 59 109.5t96.5 100.5t106.5 67q2 2 9 -1.5t-7 -11.5q-66 -47 -105.5 -111.5t-62.5 -127.5q23 -27 23 -64q0 -27 -15.5 -49t-46.5 -22q-29 0 -47 16t-18 49zM498 983q0 23 8 45q16 53 59 109.5t96.5 100.5t106.5 67q4 2 11 0t-7 -13 q-66 -47 -106.5 -111.5t-63.5 -127.5q23 -27 23 -64q0 -27 -15.5 -49t-46.5 -22q-29 0 -47 16t-18 49z" />
<glyph unicode="&#x201d;" horiz-adv-x="618" d="M277.5 921q-7.5 3 7.5 13q66 45 106.5 109.5t63.5 127.5q-23 27 -23 64q0 29 15.5 50.5t46.5 21.5q29 0 47 -16.5t18 -49.5q0 -55 -43 -120.5t-105.5 -120.5t-121.5 -80q-4 -2 -11.5 1zM485.5 921q-8.5 3 8.5 13q66 45 105.5 109.5t62.5 127.5q-23 27 -23 64 q0 29 15.5 50.5t45.5 21.5q29 0 47.5 -16.5t18.5 -49.5q0 -55 -43 -120.5t-105.5 -120.5t-121.5 -80q-2 -2 -10.5 1z" />
<glyph unicode="&#x201e;" horiz-adv-x="843" d="M217 -80q-6 0 2 17q8 16 30.5 60t51.5 96t56.5 99.5t45.5 69.5q29 37 58 37q35 0 35 -41q0 -29 -27 -68q-47 -70 -112.5 -141.5t-131.5 -124.5q-2 -4 -8 -4zM446 -80q-6 0 3 17q8 16 30.5 60t51 96t56 99.5t46.5 69.5q29 37 57 37q35 0 35 -43q0 -29 -25 -66 q-47 -70 -112.5 -141.5t-130.5 -124.5q-5 -4 -11 -4z" />
<glyph unicode="&#x2022;" horiz-adv-x="892" d="M137 401q12 92 67.5 172t138.5 128.5t175 48.5q102 0 171 -68t69 -170q0 -90 -49.5 -174t-128 -140.5t-168.5 -66.5q-10 -2 -19.5 -2h-19.5q-113 0 -179.5 77t-56.5 195z" />
<glyph unicode="&#x2026;" horiz-adv-x="1187" d="M162 43q0 12 7 23.5t15 17.5q14 10 30.5 21.5t35.5 19.5l29 14q10 4 26 15q6 4 10 -1.5t2 -9.5q-18 -29 -26 -66.5t-20.5 -64t-45.5 -26.5q-23 0 -35 11t-22 28q-6 10 -6 18zM532 43q0 25 21 41l33 22q14 10 32 19l29 14q10 4 27 15q6 4 11 -1.5t1 -9.5 q-18 -29 -26.5 -66.5t-20.5 -64t-45 -26.5q-23 0 -35 11t-20 28q-6 10 -7 18zM903 43q0 12 6 23.5t13 17.5l32 22q14 10 33 19l29 14q10 4 26 15q6 4 11.5 -1.5t1.5 -9.5q-18 -29 -26.5 -66.5t-20.5 -64t-45 -26.5q-23 0 -35.5 11t-20.5 28q-4 6 -4 18z" />
<glyph unicode="&#x202f;" horiz-adv-x="374" />
<glyph unicode="&#x2039;" horiz-adv-x="655" d="M137 434q12 18 58.5 53t106.5 75t118.5 75t97.5 53q10 4 25.5 9.5t27.5 5.5q27 0 13 -27q0 -2 -30 -23.5t-72 -53.5t-85 -62.5t-71.5 -52t-30.5 -23.5q18 -18 49 -51t62.5 -73t53 -79t21.5 -70q1 -29 -22 -43q-23 39 -79 90.5t-123 100.5t-116 86q-2 2 -2 6z" />
<glyph unicode="&#x203a;" horiz-adv-x="675" d="M160 180q0 8 6 17q2 2 30.5 23.5t69.5 52t83 61.5t72 52.5t34 25.5q-12 10 -37 34.5t-51.5 56.5t-44.5 58q-23 31 -39.5 62.5t-16.5 58.5q0 29 23 43q27 -43 83 -92t121.5 -97.5t114.5 -86.5l2 -11q-12 -20 -58 -54t-105.5 -73t-118 -73.5t-99.5 -53.5q-24 -14 -53 -14 q-16 0 -16 10z" />
<glyph unicode="&#x205f;" horiz-adv-x="468" />
<glyph unicode="&#x20ac;" horiz-adv-x="899" d="M74 518q2 29 15 54.5t61 29.5q37 4 88 0q10 29 21 52.5t22 43.5l6 13q-51 -2 -87 -5.5t-53 -13.5q2 33 19.5 58.5t83.5 25.5q20 0 38.5 -1t33.5 -3q47 74 114.5 149.5t147.5 126t164 50.5q49 0 86.5 -18.5t58.5 -61.5q12 -25 12 -55q0 -55 -39 -105q-37 -45 -70.5 -70.5 t-47.5 -25.5q-8 0 -9 8q0 14 21 41q10 10 24 37l29 57q10 23 19.5 48.5t9.5 45.5q0 39 -43 39q-78 0 -174.5 -73.5t-171.5 -202.5q61 4 94 14q31 8 39 19q-2 -29 -11.5 -58.5t-50.5 -34.5q-6 0 -12 -1t-16 -1q-14 0 -35 1t-39 4q-14 -25 -27 -54l-28 -57h10q96 -4 143 10 q45 12 55 25q-2 -31 -10 -60.5t-49 -33.5q-27 -2 -78 0t-92 4q-16 -43 -28.5 -87t-20.5 -85q-2 -16 -3 -32t-1 -28q0 -115 84 -114q43 0 94 26q51 27 109.5 67t107.5 84t76 83q8 -16 8 -37q0 -39 -35 -81t-82 -81q-53 -45 -120.5 -73.5t-149.5 -28.5q-94 0 -143 66.5 t-49 166.5q-2 37 5 76t17 78q-47 -4 -87 -8.5t-54 -12.5z" />
<glyph unicode="&#x2122;" horiz-adv-x="962" d="M137 725q0 18 12.5 42t26.5 44l-2 -2l14 20l33 56q29 49 56.5 94t41.5 84l-14 -2q-20 -2 -40.5 -5t-39.5 -3q-37 0 -47 13t-10 32q0 6 6 6t17.5 -2t27.5 -2q18 0 43 1t53 3h19q2 2 2 4q0 6 6 6q8 0 16 -8q6 0 14.5 1t16.5 1q18 4 37.5 5t30.5 1q35 0 41 -17.5t6 -35.5 q0 -4 -4 -4q4 0 -15.5 6t-66.5 6h-22.5t-26.5 -2v-6q0 -16 -19.5 -55t-42 -79t-35.5 -61q-27 -33 -51 -84q-8 -8 -12 -20q-33 -66 -39 -90q0 -4 -6 -4q-12 8 -19.5 19t-7.5 38zM391 725q0 23 14.5 49.5t28.5 44.5v-2l8 12q4 10 7.5 16.5t17.5 24.5h-2q41 66 77 127.5 t48 112.5q0 4 4 4q16 4 36.5 -11.5t22.5 -35.5t-3 -49t-13 -62l-12 -63q-4 -31 -6.5 -51.5t-8.5 -36.5q31 39 68 88t72.5 97t60.5 82t29 40q0 4 4 4q16 0 33.5 -10t17.5 -29q0 -2 -3 -13t-18 -38l-12 -22q-23 -43 -42 -87.5t-42 -93.5l-10 -24q-8 -18 -15.5 -37t-13.5 -39 q-4 -16 -6 -28.5t-2 -18.5q0 -2 -2 -5t-4 -1q-20 10 -27.5 27.5t-7.5 37.5q0 35 23.5 86t50.5 101q18 35 33.5 62.5t21.5 47.5l-94 -133q-35 -45 -63.5 -82t-45.5 -72q-8 -14 -11 -27t-3 -22q0 -6 -4 -6q-25 0 -33 18.5t-8 43.5q0 35 6 55q4 37 13.5 86t17.5 94 q-18 -37 -37.5 -70.5t-30.5 -50.5q-16 -25 -33.5 -52.5t-27.5 -51.5q-14 -31 -25.5 -54.5t-13.5 -33.5q0 -6 -6 -6q-14 8 -21.5 19t-7.5 38z" />
<glyph unicode="&#x25fc;" horiz-adv-x="1095" d="M0 0v1096h1096v-1096h-1096z" />
<glyph unicode="&#xfb03;" horiz-adv-x="2054" d="M2 414q0 37 14 39h2q8 0 7 -17q-2 -6 -2 -20q0 -16 8 -30.5t28 -18.5q6 -2 14.5 -2h16.5q29 0 70 6t88 22q80 29 191.5 95.5t252.5 201.5l168 293q90 156 153.5 243t129.5 87q18 0 37 -6q12 -8 12 -31q0 -27 -15.5 -63.5t-37.5 -75.5q-39 -63 -103.5 -136t-148.5 -141 q-47 -82 -92 -164t-86 -166l-158 -309q-12 -23 -28.5 -57.5t-37.5 -81.5q-43 -96 -87 -212t-83 -237q-20 -59 -33.5 -114.5t-23.5 -106.5q-12 -63 -12 -117q0 -51 16.5 -82.5t52.5 -31.5q49 0 96.5 42t89.5 104.5t75.5 124t52.5 97.5q47 92 66.5 192.5t15.5 172.5 q-35 -20 -71 -28.5t-62 -8.5q-27 0 -39 6q-18 10 -19 27q0 27 36 57.5t81 38.5q10 2 18.5 3t16.5 1q20 0 33 -6q23 -16 24 -27q20 12 57 44t79 72t79 76t57 56q2 2 3 2q41 47 85 98.5t93 108.5l221 256q16 29 29.5 56.5t27.5 54.5l51 100l48 96q16 31 45.5 82t67.5 103.5 t77 88.5t72 36q16 0 16 -23q0 -25 -15.5 -69t-38 -91t-42.5 -86t-42 -75.5t-44 -73.5q-45 -76 -93.5 -143.5t-88.5 -110.5q-63 -113 -111.5 -214.5t-99.5 -199.5q-12 -23 -28.5 -57.5t-37.5 -81.5q-43 -96 -86 -212t-84 -237q-18 -59 -32.5 -114.5t-24.5 -106.5 q-12 -63 -13 -117q0 -51 16.5 -82.5t53.5 -31.5q49 0 96 42t89 104.5t76 124t52 97.5q47 92 66.5 192.5t15.5 172.5q-33 -20 -68.5 -28.5t-64.5 -8.5q-25 0 -37 6q-20 8 -20 27q0 27 37 57.5t80 38.5q10 2 19 3t17 1q18 0 31 -6q25 -14 25 -27q23 12 58.5 43t75.5 69t76 73 t56 57l2 8q25 123 82 227.5t104 180.5q14 25 51 40t66 15q31 0 31 -18q0 -12 -8 -23q-41 -63 -94.5 -149t-92.5 -175t-39 -165q0 -31 11.5 -49.5t42.5 -18.5q33 0 74.5 32t81.5 72t61 62l41 43q10 10 18 21.5t16 21.5q6 6 11 6q12 0 12 -18q0 -10 -8 -19 q-23 -29 -45.5 -55.5t-46.5 -52.5q-51 -61 -119 -118.5t-150 -57.5q-106 0 -106 131q-35 -39 -81 -86t-91 -86t-74 -60q6 -33 6 -98q0 -57 -7 -124.5t-28 -119.5q-25 -68 -62.5 -144.5t-89.5 -143t-120 -109.5t-154 -43q-88 0 -116 59q-23 55 -23 127q0 49 9.5 105.5 t23.5 116.5q16 53 31.5 105t34.5 103q35 102 68.5 181.5t47.5 111.5q66 133 136.5 271.5t123.5 234.5q-80 -100 -161.5 -191t-171.5 -196q-2 -2 -3 -4q-35 -41 -84 -90t-97 -91t-81 -65q4 -18 6.5 -51t2.5 -74q0 -51 -6.5 -108.5t-24.5 -104.5q-25 -68 -63 -144.5t-90 -143 t-119.5 -109.5t-153.5 -43q-90 0 -117 59q-25 53 -24 127q0 98 34 222q14 53 30.5 105t33.5 103q35 102 68.5 181.5t48.5 111.5q66 137 137 276.5t149 280.5q-55 -45 -120.5 -100t-135 -106.5t-134 -84t-118.5 -32.5q-80 0 -110.5 40t-30.5 85zM2118 1077q0 31 21.5 51.5 t49.5 20.5q51 0 52 -51q0 -29 -21.5 -51.5t-50.5 -22.5q-25 0 -38 15.5t-13 37.5z" />
<glyph unicode="&#xfb04;" horiz-adv-x="2338" d="M2 414q0 37 14 39h2q8 0 7 -17q-2 -6 -2 -20q0 -16 8 -30.5t28 -18.5q6 -2 14.5 -2h16.5q29 0 70 6t88 22q80 29 191.5 95.5t252.5 201.5l168 293q90 156 153.5 243t129.5 87q18 0 37 -6q12 -8 12 -31q0 -27 -15.5 -63.5t-37.5 -75.5q-39 -63 -103.5 -136t-148.5 -141 q-47 -82 -92 -164t-86 -166l-158 -309q-12 -23 -28.5 -57.5t-37.5 -81.5q-43 -96 -87 -212t-83 -237q-20 -59 -33.5 -114.5t-23.5 -106.5q-12 -63 -12 -117q0 -51 16.5 -82.5t52.5 -31.5q49 0 96.5 42t89.5 104.5t75.5 124t52.5 97.5q47 92 66.5 192.5t15.5 172.5 q-35 -20 -71 -28.5t-62 -8.5q-27 0 -39 6q-18 10 -19 27q0 27 36 57.5t81 38.5q10 2 18.5 3t16.5 1q20 0 33 -6q23 -16 24 -27q20 12 57 44t79 72t79 76t57 56q2 2 3 2q41 47 85 98.5t93 108.5l221 256q16 29 29.5 56.5t27.5 54.5l51 100q14 27 25.5 51.5t22.5 44.5 q16 31 45.5 82t67.5 103.5t77 88.5t72 36q16 0 16 -23q0 -25 -15.5 -69t-38 -91t-42.5 -86t-42 -75.5t-44 -73.5q-45 -76 -93.5 -143.5t-88.5 -110.5q-63 -113 -111.5 -214.5t-99.5 -199.5q-12 -23 -28.5 -57.5t-37.5 -81.5q-43 -96 -86 -212t-84 -237q-18 -59 -32.5 -114.5 t-24.5 -106.5q-12 -63 -13 -117q0 -51 16.5 -82.5t53.5 -31.5q49 0 96 42t89 104.5t76 124t52 97.5q47 92 66.5 192.5t15.5 172.5q-33 -20 -68.5 -28.5t-64.5 -8.5q-25 0 -37 6q-20 8 -20 27q0 27 37 57.5t80 38.5q10 2 19 3t17 1q18 0 31 -6q25 -14 25 -27q23 12 59.5 45 t78.5 72t78 75l56 56q8 8 17 15q20 72 36 110q-125 -43 -206 -43q-29 0 -52 6q-31 6 -30 17q0 12 39 10q8 -2 15 -2h15q49 0 110.5 15.5t131.5 41.5q80 197 174 367t192 311q98 139 191.5 245.5t169.5 178.5q53 47 108.5 76t102.5 29q61 0 87 -32t26 -79q0 -57 -26 -127 t-60 -129q-68 -115 -172.5 -243t-223.5 -244q-119 -117 -239.5 -209.5t-219.5 -135.5q-16 -41 -42.5 -103t-38.5 -110q-16 -59 -27.5 -131.5t-13.5 -169.5q0 -94 51 -94q25 0 61 25q57 39 101.5 79t93.5 91q25 29 68.5 80t94 111.5t93.5 109.5q20 25 40.5 48t41.5 46 q6 6 10 6q12 0 12 -16q0 -10 -8 -21q-23 -29 -48.5 -59.5t-47.5 -56.5q-12 -12 -46 -52.5t-78 -94.5t-91 -110.5t-87 -103.5t-65 -72q-45 -43 -88 -67.5t-110 -24.5q-51 0 -82 45q-27 47 -25 160q0 37 12.5 107.5t30.5 142.5q-35 -39 -82 -87t-94 -90t-78 -63q6 -33 6 -98 q0 -57 -7 -124.5t-28 -119.5q-25 -68 -62.5 -144.5t-89.5 -143t-120 -109.5t-154 -43q-88 0 -116 59q-23 55 -23 127q0 49 9.5 105.5t23.5 116.5q16 53 31.5 105t34.5 103q35 102 68.5 181.5t47.5 111.5q66 133 136.5 271.5t123.5 234.5q-80 -100 -161.5 -191t-171.5 -196 q-2 -2 -3 -4q-35 -41 -84 -90t-97 -91t-81 -65q4 -18 6.5 -51t2.5 -74q0 -51 -6.5 -108.5t-24.5 -104.5q-25 -68 -63 -144.5t-90 -143t-119.5 -109.5t-153.5 -43q-90 0 -117 59q-25 53 -24 127q0 98 34 222q14 53 30.5 105t33.5 103q35 102 68.5 181.5t48.5 111.5 q66 137 137 276.5t149 280.5q-55 -45 -120.5 -100t-135 -106.5t-134 -84t-118.5 -32.5q-80 0 -110.5 40t-30.5 85zM1921 463q35 18 75 46t85 62q86 72 177 164t179 197q45 51 85 101t75 97q72 96 122 178.5t66 131.5q8 25 8 49q0 63 -51 63q-33 0 -67 -28 q-68 -53 -168.5 -165t-206.5 -257q-106 -143 -207.5 -310t-171.5 -329z" />
</font>
</defs>
</svg>
